<?xml version="1.0" standalone="no"?>
<!DOCTYPE svg PUBLIC "-//W3C//DTD SVG 20010904//EN"
 "http://www.w3.org/TR/2001/REC-SVG-20010904/DTD/svg10.dtd">
<svg version="1.0" xmlns="http://www.w3.org/2000/svg"
 width="128.000000pt" height="128.000000pt" viewBox="0 0 128.000000 128.000000"
 preserveAspectRatio="xMidYMid meet">

<g transform="translate(0.000000,128.000000) scale(0.100000,-0.100000)"
fill="#000000" stroke="none">
<path d="M372 1219 c-5 -13 -15 -41 -23 -61 -13 -38 -13 -38 -70 -38 -66 0
-81 -13 -47 -39 77 -62 73 -54 59 -102 -7 -24 -15 -52 -17 -61 -8 -26 12 -22
61 12 24 17 46 30 49 30 2 0 28 -14 55 -32 28 -17 54 -29 57 -26 3 4 -2 30
-10 59 -9 29 -16 55 -16 59 0 3 23 23 51 44 27 22 46 43 42 47 -4 4 -35 9 -68
11 l-59 3 -19 50 c-24 64 -34 74 -45 44z"/>
<path d="M832 1033 l-43 -37 -54 29 c-30 16 -56 27 -60 24 -3 -3 4 -32 16 -63
l22 -57 -41 -42 c-23 -24 -42 -46 -42 -50 0 -4 28 -7 63 -7 l63 0 29 -55 c16
-30 33 -51 37 -47 3 4 13 32 20 62 l14 55 62 9 c34 5 62 13 62 18 0 5 -23 23
-51 40 l-51 32 7 46 c3 25 8 53 11 63 8 27 -17 20 -64 -20z"/>
<path d="M368 687 c-6 -90 -24 -124 -96 -178 l-52 -40 2 -192 3 -192 45 -23
c39 -20 54 -23 115 -18 39 4 113 9 165 12 123 8 155 34 114 92 -14 20 -14 22
3 22 39 0 59 55 29 82 -11 11 -9 15 15 25 41 17 50 60 17 88 -22 18 -23 24
-12 41 18 26 6 64 -23 75 -13 5 -67 9 -119 9 -91 0 -94 1 -84 19 15 29 12 147
-5 181 -19 37 -62 70 -90 70 -21 0 -23 -6 -27 -73z"/>
<path d="M1012 729 c-40 -104 -35 -99 -101 -99 -34 0 -61 -4 -61 -9 0 -5 21
-26 46 -48 l47 -39 -17 -58 c-10 -32 -15 -60 -12 -63 3 -3 27 9 54 26 27 17
52 31 57 31 5 0 30 -14 57 -31 27 -17 51 -29 54 -26 3 3 -2 31 -12 63 l-17 58
47 39 c25 22 46 43 46 48 0 4 -28 9 -62 11 l-62 3 -19 50 c-24 64 -34 74 -45
44z"/>
<path d="M82 458 c-13 -13 -18 -311 -6 -342 4 -12 20 -16 55 -16 l49 0 0 185
0 185 -43 0 c-24 0 -48 -5 -55 -12z"/>
</g>
</svg>
