<svg width="3" height="11" viewBox="0 0 3 11" fill="none" xmlns="http://www.w3.org/2000/svg">
<path d="M1.58038 10.112C1.17504 10.112 0.839042 9.98933 0.572375 9.744C0.316375 9.488 0.188375 9.17333 0.188375 8.8C0.188375 8.42667 0.316375 8.11733 0.572375 7.872C0.839042 7.616 1.17504 7.488 1.58038 7.488C1.97504 7.488 2.30038 7.616 2.55638 7.872C2.81238 8.11733 2.94038 8.42667 2.94038 8.8C2.94038 9.17333 2.81238 9.488 2.55638 9.744C2.30038 9.98933 1.97504 10.112 1.58038 10.112ZM1.58038 3.488C1.17504 3.488 0.839042 3.36533 0.572375 3.12C0.316375 2.864 0.188375 2.54933 0.188375 2.176C0.188375 1.80267 0.316375 1.49333 0.572375 1.248C0.839042 0.991999 1.17504 0.863999 1.58038 0.863999C1.97504 0.863999 2.30038 0.991999 2.55638 1.248C2.81238 1.49333 2.94038 1.80267 2.94038 2.176C2.94038 2.54933 2.81238 2.864 2.55638 3.12C2.30038 3.36533 1.97504 3.488 1.58038 3.488Z" fill="#232735"/>
</svg>
