<svg width="60" height="60" viewBox="0 0 60 60" fill="none" xmlns="http://www.w3.org/2000/svg">
<g clip-path="url(#clip0_130_13105)">
<path d="M56 0H4C1.79086 0 0 1.79086 0 4V56C0 58.2091 1.79086 60 4 60H56C58.2091 60 60 58.2091 60 56V4C60 1.79086 58.2091 0 56 0Z" fill="url(#paint0_linear_130_13105)"/>
<path d="M36.9578 35.9578C36.8142 35.9578 36.6765 36.0149 36.5749 36.1164C36.4734 36.218 36.4163 36.3557 36.4163 36.4993V41.3742C36.4163 41.5178 36.3593 41.6555 36.2577 41.7571C36.1562 41.8586 36.0184 41.9157 35.8748 41.9157H19.6252C19.4816 41.9157 19.3438 41.8586 19.2423 41.7571C19.1407 41.6555 19.0837 41.5178 19.0837 41.3742V22.4163H21.7918C22.2226 22.4162 22.6357 22.2449 22.9403 21.9403C23.2449 21.6357 23.4162 21.2226 23.4163 20.7918V18.083H35.8748C35.9459 18.083 36.0164 18.097 36.0821 18.1242C36.1478 18.1514 36.2074 18.1913 36.2577 18.2416C36.308 18.2919 36.3479 18.3516 36.3751 18.4173C36.4023 18.483 36.4163 18.5534 36.4163 18.6245V22.9578C36.4163 23.0289 36.4303 23.0994 36.4576 23.1651C36.4848 23.2308 36.5247 23.2904 36.5749 23.3407C36.6252 23.391 36.6849 23.4309 36.7506 23.4581C36.8163 23.4853 36.8867 23.4993 36.9578 23.4993C37.0289 23.4993 37.0994 23.4853 37.1651 23.4581C37.2308 23.4309 37.2904 23.391 37.3407 23.3407C37.391 23.2904 37.4309 23.2308 37.4581 23.1651C37.4853 23.0994 37.4993 23.0289 37.4993 22.9578V18.6252C37.4993 18.1943 37.3282 17.781 37.0236 17.4762C36.7189 17.1715 36.3057 17.0002 35.8748 17H22.8748C22.8036 16.9996 22.733 17.0133 22.667 17.0403C22.6011 17.0673 22.5411 17.107 22.4905 17.1572L18.1572 21.4905C18.107 21.5411 18.0673 21.6011 18.0403 21.667C18.0133 21.733 17.9996 21.8036 18 21.8748V41.3742C17.9999 41.5876 18.0419 41.799 18.1235 41.9963C18.2052 42.1935 18.3249 42.3728 18.4758 42.5238C18.6267 42.6747 18.8059 42.7945 19.0031 42.8762C19.2003 42.9579 19.4117 43 19.6252 43H35.8748C36.3059 43 36.7192 42.8288 37.024 42.524C37.3288 42.2192 37.5 41.8059 37.5 41.3748V36.4993C37.5 36.4282 37.486 36.3577 37.4587 36.292C37.4315 36.2262 37.3915 36.1665 37.3412 36.1162C37.2908 36.0659 37.231 36.026 37.1653 35.9989C37.0995 35.9717 37.029 35.9577 36.9578 35.9578ZM21.7918 21.3333H19.8469L22.3327 18.8476V20.7918C22.3327 20.9353 22.2757 21.073 22.1743 21.1745C22.0729 21.276 21.9353 21.3332 21.7918 21.3333Z" fill="white"/>
<path d="M33.1655 38.124H26.6655C26.5219 38.124 26.3842 38.1811 26.2826 38.2826C26.1811 38.3842 26.124 38.5219 26.124 38.6655C26.124 38.8091 26.1811 38.9469 26.2826 39.0484C26.3842 39.15 26.5219 39.207 26.6655 39.207H33.1655C33.3091 39.207 33.4469 39.15 33.5484 39.0484C33.65 38.9469 33.707 38.8091 33.707 38.6655C33.707 38.5219 33.65 38.3842 33.5484 38.2826C33.4469 38.1811 33.3091 38.124 33.1655 38.124Z" fill="white" stroke="white" stroke-width="0.4"/>
<path d="M30.0455 31.624H26.6655C26.5219 31.624 26.3842 31.6811 26.2826 31.7826C26.1811 31.8842 26.124 32.0219 26.124 32.1655C26.124 32.3091 26.1811 32.4469 26.2826 32.5484C26.3842 32.65 26.5219 32.707 26.6655 32.707H30.0455C30.1891 32.707 30.3269 32.65 30.4284 32.5484C30.53 32.4469 30.587 32.3091 30.587 32.1655C30.587 32.0219 30.53 31.8842 30.4284 31.7826C30.3269 31.6811 30.1891 31.624 30.0455 31.624Z" fill="white" stroke="white" stroke-width="0.4"/>
<path d="M28.8322 25.124H26.6655C26.5219 25.124 26.3842 25.1811 26.2826 25.2826C26.1811 25.3842 26.124 25.5219 26.124 25.6655C26.124 25.8091 26.1811 25.9469 26.2826 26.0484C26.3842 26.15 26.5219 26.207 26.6655 26.207H28.8322C28.9758 26.207 29.1135 26.15 29.2151 26.0484C29.3166 25.9469 29.3737 25.8091 29.3737 25.6655C29.3737 25.5219 29.3166 25.3842 29.2151 25.2826C29.1135 25.1811 28.9758 25.124 28.8322 25.124Z" fill="white" stroke="white" stroke-width="0.4"/>
<path d="M21.2785 23.9004C21.1726 23.9004 21.0711 23.9424 20.9963 24.0173C20.9214 24.0921 20.8794 24.1936 20.8794 24.2995V27.492C20.8794 27.5979 20.9214 27.6994 20.9963 27.7742C21.0711 27.849 21.1726 27.8911 21.2785 27.8911H24.471C24.5769 27.8911 24.6784 27.849 24.7532 27.7742C24.828 27.6994 24.8701 27.5979 24.8701 27.492V24.2995C24.8701 24.1936 24.828 24.0921 24.7532 24.0173C24.6784 23.9424 24.5769 23.9004 24.471 23.9004H21.2785ZM24.072 27.0929H21.6775V24.6985H24.072V27.0929Z" fill="white" stroke="white" stroke-width="0.2"/>
<path d="M24.471 30.1709H21.2785C21.1726 30.1709 21.0711 30.2129 20.9963 30.2878C20.9214 30.3626 20.8794 30.4641 20.8794 30.57V33.7625C20.8794 33.8684 20.9214 33.9699 20.9963 34.0447C21.0711 34.1196 21.1726 34.1616 21.2785 34.1616H24.471C24.5769 34.1616 24.6784 34.1196 24.7532 34.0447C24.828 33.9699 24.8701 33.8684 24.8701 33.7625V30.57C24.8701 30.4641 24.828 30.3626 24.7532 30.2878C24.6784 30.2129 24.5769 30.1709 24.471 30.1709ZM24.072 33.3635H21.6775V30.969H24.072V33.3635Z" fill="white" stroke="white" stroke-width="0.2"/>
<path d="M24.471 36.4424H21.2785C21.1726 36.4424 21.0711 36.4844 20.9963 36.5593C20.9214 36.6341 20.8794 36.7356 20.8794 36.8415V40.034C20.8794 40.1399 20.9214 40.2414 20.9963 40.3162C21.0711 40.391 21.1726 40.4331 21.2785 40.4331H24.471C24.5769 40.4331 24.6784 40.391 24.7532 40.3162C24.828 40.2414 24.8701 40.1399 24.8701 40.034V36.8415C24.8701 36.7356 24.828 36.6341 24.7532 36.5593C24.6784 36.4844 24.5769 36.4424 24.471 36.4424ZM24.072 39.6349H21.6775V37.2405H24.072V39.6349Z" fill="white" stroke="white" stroke-width="0.2"/>
<path d="M41.1169 29.5357C41.1169 28.6397 40.8512 27.7639 40.3534 27.0189C39.8557 26.2739 39.1481 25.6933 38.3204 25.3504C37.4926 25.0075 36.5817 24.9178 35.7029 25.0926C34.8242 25.2674 34.017 25.6988 33.3834 26.3324C32.7499 26.966 32.3184 27.7732 32.1436 28.6519C31.9688 29.5307 32.0585 30.4416 32.4014 31.2693C32.7443 32.0971 33.3249 32.8046 34.0699 33.3024C34.8149 33.8002 35.6908 34.0659 36.5867 34.0659C37.7882 34.0659 38.9405 33.5886 39.7901 32.739C40.6396 31.8895 41.1169 30.7372 41.1169 29.5357ZM41.5482 29.5357C41.5482 30.517 41.2573 31.4763 40.7121 32.2922C40.1669 33.1081 39.392 33.744 38.4854 34.1195C37.5788 34.4951 36.5812 34.5933 35.6188 34.4019C34.6564 34.2104 33.7723 33.7379 33.0784 33.044C32.3846 32.3501 31.912 31.4661 31.7206 30.5037C31.5291 29.5412 31.6274 28.5436 32.0029 27.637C32.3784 26.7304 33.0144 25.9556 33.8303 25.4104C34.6462 24.8652 35.6055 24.5742 36.5867 24.5742C37.9027 24.5742 39.1647 25.0969 40.0953 26.0274C41.0259 26.9578 41.5487 28.2198 41.5489 29.5357H41.5482ZM36.1736 30.6973L38.7668 28.104C38.7869 28.084 38.8106 28.0681 38.8368 28.0573C38.863 28.0464 38.891 28.0409 38.9194 28.0409C38.9477 28.0409 38.9757 28.0464 39.0019 28.0573C39.0281 28.0681 39.0518 28.084 39.0719 28.104C39.0919 28.1241 39.1078 28.1478 39.1186 28.174C39.1295 28.2002 39.135 28.2282 39.135 28.2565C39.135 28.2849 39.1295 28.3129 39.1186 28.3391C39.1078 28.3652 39.0919 28.389 39.0719 28.409L36.3234 31.1582C36.3034 31.1782 36.2796 31.1941 36.2534 31.205C36.2272 31.2158 36.1992 31.2214 36.1709 31.2214C36.1426 31.2214 36.1145 31.2158 36.0883 31.205C36.0622 31.1941 36.0384 31.1782 36.0184 31.1582L34.4926 29.6298C34.4726 29.6097 34.4567 29.586 34.4459 29.5598C34.435 29.5336 34.4295 29.5056 34.4295 29.4773C34.4295 29.4489 34.435 29.4209 34.4459 29.3947C34.4567 29.3686 34.4726 29.3448 34.4926 29.3248C34.5331 29.2843 34.5879 29.2616 34.6451 29.2616C34.6735 29.2616 34.7015 29.2672 34.7277 29.278C34.7538 29.2888 34.7776 29.3047 34.7976 29.3248L36.1736 30.6973Z" fill="white" stroke="white"/>
</g>
<defs>
<linearGradient id="paint0_linear_130_13105" x1="30" y1="0" x2="30" y2="60" gradientUnits="userSpaceOnUse">
<stop stop-color="#FF8331"/>
<stop offset="1" stop-color="#DC5F19"/>
</linearGradient>
<clipPath id="clip0_130_13105">
<rect width="60" height="60" rx="30" fill="white"/>
</clipPath>
</defs>
</svg>
