<svg width="29" height="28" viewBox="0 0 29 28" fill="none" xmlns="http://www.w3.org/2000/svg">
<path d="M14.3002 17.0761H3.44482C3.44482 16.3633 3.58522 15.6575 3.85798 14.999C4.13075 14.3405 4.53055 13.7422 5.03455 13.2382C5.53856 12.7342 6.1369 12.3344 6.79541 12.0616C7.45393 11.7888 8.15972 11.6484 8.87249 11.6484C9.58526 11.6484 10.2911 11.7888 10.9496 12.0616C11.6081 12.3344 12.2064 12.7342 12.7104 13.2382C13.2144 13.7422 13.6142 14.3405 13.887 14.999C14.1598 15.6575 14.3002 16.3633 14.3002 17.0761V17.0761Z" stroke="white" stroke-miterlimit="10" stroke-linecap="round" stroke-linejoin="round"/>
<path d="M8.87343 11.6213C7.55744 11.6213 6.48877 10.0364 6.48877 8.71411C6.48877 8.08157 6.74005 7.47493 7.18732 7.02766C7.6346 6.58038 8.24124 6.3291 8.87378 6.3291C9.50633 6.3291 10.113 6.58038 10.5602 7.02766C11.0075 7.47493 11.2588 8.08157 11.2588 8.71411C11.2581 10.0364 10.1887 11.6213 8.87343 11.6213Z" stroke="white" stroke-miterlimit="10" stroke-linecap="round" stroke-linejoin="round"/>
<path d="M26.2804 20.9878H2.71378C2.25926 20.9878 1.82335 20.8073 1.50195 20.4859C1.18056 20.1645 1 19.7286 1 19.2741V2.71378C1 2.25926 1.18056 1.82335 1.50195 1.50195C1.82335 1.18056 2.25926 1 2.71378 1H26.2804C26.7349 1 27.1708 1.18056 27.4922 1.50195C27.8136 1.82335 27.9941 2.25926 27.9941 2.71378V19.2741C27.9941 19.7286 27.8136 20.1645 27.4922 20.4859C27.1708 20.8073 26.7349 20.9878 26.2804 20.9878V20.9878Z" stroke="white" stroke-miterlimit="10" stroke-linecap="round" stroke-linejoin="round"/>
<path d="M1 17.0752H27.9941" stroke="white" stroke-miterlimit="10" stroke-linecap="round" stroke-linejoin="round"/>
<path d="M17.4251 23.5865C17.1185 22.7807 16.9927 21.9174 17.0565 21.0576H11.9988C12.1031 21.9119 12.0026 22.7788 11.7055 23.5865C10.8577 25.7197 8.28491 27.0001 8.28491 27.0001H20.7091C20.7091 27.0001 18.2269 25.6047 17.4251 23.5865Z" stroke="white" stroke-miterlimit="10" stroke-linecap="round" stroke-linejoin="round"/>
<path d="M16.5244 7.56152H24.5855" stroke="white" stroke-miterlimit="10" stroke-linecap="round" stroke-linejoin="round"/>
<path d="M16.5244 10.7949H24.5855" stroke="white" stroke-miterlimit="10" stroke-linecap="round" stroke-linejoin="round"/>
<path d="M16.5244 14.0293H24.5855" stroke="white" stroke-miterlimit="10" stroke-linecap="round" stroke-linejoin="round"/>
</svg>
