<svg width="40" height="40" viewBox="0 0 40 40" fill="none" xmlns="http://www.w3.org/2000/svg">
<path d="M2.24219 15.0254H11.1892V17.1064H2.24219V15.0254Z" fill="#AD4583"/>
<path d="M29.7013 17.8438H37.7552V19.9227H29.6982L29.7013 17.8438Z" fill="#823462"/>
<path d="M20.411 2.49143C20.275 2.48343 20.138 2.48343 20.001 2.48343C16.8949 2.47614 13.9119 3.69659 11.7016 5.87891C9.49141 8.06122 8.23316 11.0285 8.20098 14.1344C8.19764 14.4331 8.20497 14.7301 8.22297 15.0254C8.24497 15.3754 8.98897 15.7254 9.04097 16.0664C9.09297 16.4074 8.45497 16.7664 8.54097 17.1064C9.04507 19.1589 10.0948 21.0368 11.579 22.5414C12.8539 23.8415 13.8571 25.3824 14.53 27.0744C14.8094 27.7723 15.0331 28.4912 15.199 29.2244H20.41V2.49143H20.411Z" fill="#FDE01D"/>
<path d="M20.3141 37.9836V29.2246H15.2031C15.4397 30.2704 15.5588 31.3394 15.5581 32.4116V37.9996L20.3141 37.9836Z" fill="#F2EDE5"/>
<path d="M13.0488 32.832H20.4108V34.913H13.0488V32.832Z" fill="#E7E3DB"/>
<path d="M20 29.2246V37.9846L24.446 37.9696V32.3466C24.4459 31.296 24.564 30.2488 24.798 29.2246H20Z" fill="#E7E3DB"/>
<path d="M20 2.4834V29.2244H24.8C25.3869 26.6833 26.6594 24.3517 28.479 22.4834C29.2186 21.7198 29.852 20.8601 30.362 19.9274C30.547 19.5884 29.845 19.2414 29.996 18.8864C30.147 18.5314 31.138 18.1994 31.249 17.8464C31.807 16.0783 31.9408 14.2036 31.6396 12.3742C31.3385 10.5447 30.6108 8.81186 29.5154 7.31592C28.4201 5.81998 26.9879 4.60297 25.3347 3.76342C23.6816 2.92387 21.8541 2.48536 20 2.4834V2.4834Z" fill="#FED330"/>
<path d="M20 32.832H26.952V34.913H20V32.832Z" fill="#D9D1C2"/>
<path d="M15.0686 11.4501C15.0688 11.1699 15.1803 10.9012 15.3784 10.703C15.5766 10.5048 15.8453 10.3934 16.1256 10.3931C16.4116 10.3906 16.6873 10.4995 16.8943 10.6968C17.1014 10.8942 17.2234 11.1643 17.2346 11.4501V19.0931C17.2417 19.8619 17.5538 20.5964 18.1023 21.1352C18.6508 21.6739 19.3908 21.9728 20.1596 21.9661H20.2986C21.0465 21.9653 21.7636 21.6679 22.2924 21.139C22.8213 20.6101 23.1188 19.8931 23.1196 19.1451V16.6661C23.1198 16.47 23.1979 16.2819 23.3366 16.1432C23.4753 16.0044 23.6634 15.9264 23.8596 15.9261C24.0695 15.9264 24.2708 16.0099 24.4193 16.1584C24.5678 16.3069 24.6513 16.5082 24.6516 16.7181V19.9241H30.3626C30.7249 19.2608 31.0219 18.5639 31.2496 17.8431H26.7326V16.7181C26.7318 15.9564 26.4288 15.2261 25.8902 14.6875C25.3516 14.1489 24.6213 13.8459 23.8596 13.8451C23.1116 13.8459 22.3946 14.1434 21.8657 14.6723C21.3368 15.2011 21.0394 15.9182 21.0386 16.6661V19.1451C21.0383 19.3413 20.9603 19.5294 20.8215 19.6681C20.6828 19.8068 20.4947 19.8849 20.2986 19.8851H20.1586C19.9432 19.8865 19.7355 19.8051 19.5784 19.6577C19.4213 19.5103 19.3269 19.3082 19.3146 19.0931V11.4501C19.3146 10.611 18.9812 9.80621 18.3878 9.21284C17.7945 8.61948 16.9897 8.28613 16.1506 8.28613C15.3114 8.28613 14.5066 8.61948 13.9133 9.21284C13.3199 9.80621 12.9866 10.611 12.9866 11.4501V15.0251H8.22656C8.27009 15.7268 8.37618 16.4233 8.54356 17.1061H15.0686V11.4501Z" fill="#FD8D34"/>
<path d="M30.362 19.9247C30.7243 19.2613 31.0213 18.5644 31.249 17.8437H26.732V16.7187C26.7312 15.957 26.4283 15.2267 25.8896 14.688C25.351 14.1494 24.6207 13.8465 23.859 13.8457C23.1111 13.8465 22.394 14.144 21.8651 14.6728C21.3363 15.2017 21.0388 15.9188 21.038 16.6667V19.1447C21.0377 19.3409 20.9597 19.5289 20.821 19.6677C20.6822 19.8064 20.4942 19.8844 20.298 19.8847H20.159C20.1056 19.8845 20.0524 19.8792 20 19.8687V21.9607C20.053 21.9607 20.106 21.9607 20.159 21.9607H20.298C21.0459 21.9599 21.763 21.6624 22.2919 21.1336C22.8207 20.6047 23.1182 19.8876 23.119 19.1397V16.6617C23.1193 16.4655 23.1973 16.2775 23.336 16.1387C23.4747 16 23.6628 15.922 23.859 15.9217C24.069 15.922 24.2703 16.0055 24.4187 16.154C24.5672 16.3024 24.6507 16.5037 24.651 16.7137V19.9197L30.362 19.9247Z" fill="#F15F29"/>
<path d="M13.0488 28.083H20.4108V30.164H13.0488V28.083Z" fill="#E7E3DB"/>
<path d="M20 28.083H26.952V30.164H20V28.083Z" fill="#D9D1C2"/>
</svg>
