<svg width="36" height="36" viewBox="0 0 36 36" fill="none" xmlns="http://www.w3.org/2000/svg">
<path d="M11.7318 36.0004H1.32578C1.12641 36.0002 0.931312 35.9427 0.763673 35.8347C0.596033 35.7268 0.462906 35.5731 0.380121 35.3917C0.297336 35.2103 0.268373 35.009 0.296677 34.8116C0.324981 34.6143 0.409361 34.4292 0.539784 34.2784L2.78578 31.6914C1.16868 29.6644 0.287803 27.1483 0.287403 24.5552C0.287002 21.9621 1.1671 19.4458 2.78358 17.4182C4.40006 15.3906 6.6571 13.972 9.18509 13.3947C11.7131 12.8174 14.3622 13.1156 16.6986 14.2404C19.035 15.3653 20.9202 17.2501 22.0455 19.5863C23.1708 21.9225 23.4694 24.5715 22.8926 27.0996C22.3158 29.6277 20.8976 31.885 18.8703 33.5019C16.8431 35.1188 14.3269 35.9993 11.7338 35.9994L11.7318 36.0004Z" fill="#BEEBFA"/>
<path d="M11.7314 13.1084V36.0004C13.2346 36.0004 14.7229 35.7043 16.1116 35.1291C17.5003 34.5539 18.7621 33.7108 19.825 32.6479C20.8879 31.5851 21.731 30.3233 22.3062 28.9346C22.8814 27.5459 23.1774 26.0575 23.1774 24.5544C23.1774 23.0513 22.8814 21.5629 22.3062 20.1742C21.731 18.7855 20.8879 17.5237 19.825 16.4609C18.7621 15.398 17.5003 14.5549 16.1116 13.9797C14.7229 13.4045 13.2346 13.1084 11.7314 13.1084Z" fill="#9EE2F8"/>
<path d="M15.1996 23.5136H8.26265C7.99228 23.5052 7.73578 23.3919 7.54749 23.1977C7.3592 23.0035 7.25391 22.7436 7.25391 22.4731C7.25391 22.2026 7.3592 21.9427 7.54749 21.7485C7.73578 21.5543 7.99228 21.441 8.26265 21.4326H15.1996C15.47 21.441 15.7265 21.5543 15.9148 21.7485C16.1031 21.9427 16.2084 22.2026 16.2084 22.4731C16.2084 22.7436 16.1031 23.0035 15.9148 23.1977C15.7265 23.3919 15.47 23.5052 15.1996 23.5136Z" fill="#9EE2F8"/>
<path d="M15.1996 27.6757H8.26265C7.99228 27.6673 7.73578 27.554 7.54749 27.3598C7.3592 27.1656 7.25391 26.9057 7.25391 26.6352C7.25391 26.3647 7.3592 26.1048 7.54749 25.9106C7.73578 25.7164 7.99228 25.6031 8.26265 25.5947H15.1996C15.47 25.6031 15.7265 25.7164 15.9148 25.9106C16.1031 26.1048 16.2084 26.3647 16.2084 26.6352C16.2084 26.9057 16.1031 27.1656 15.9148 27.3598C15.7265 27.554 15.47 27.6673 15.1996 27.6757Z" fill="#9EE2F8"/>
<path d="M15.1994 25.5943H11.7314V27.6752H15.1994C15.3388 27.6796 15.4776 27.6559 15.6076 27.6055C15.7376 27.5552 15.8562 27.4792 15.9563 27.3822C16.0564 27.2851 16.136 27.169 16.1904 27.0406C16.2447 26.9122 16.2727 26.7742 16.2727 26.6347C16.2727 26.4953 16.2447 26.3573 16.1904 26.2289C16.136 26.1005 16.0564 25.9844 15.9563 25.8873C15.8562 25.7903 15.7376 25.7143 15.6076 25.664C15.4776 25.6136 15.3388 25.5899 15.1994 25.5943Z" fill="#87C0ED"/>
<path d="M15.1994 21.4321H11.7314V23.5131H15.1994C15.3388 23.5175 15.4776 23.4937 15.6076 23.4434C15.7376 23.3931 15.8562 23.3171 15.9563 23.22C16.0564 23.123 16.136 23.0069 16.1904 22.8785C16.2447 22.7501 16.2727 22.6121 16.2727 22.4726C16.2727 22.3332 16.2447 22.1952 16.1904 22.0668C16.136 21.9384 16.0564 21.8223 15.9563 21.7252C15.8562 21.6282 15.7376 21.5522 15.6076 21.5019C15.4776 21.4515 15.3388 21.4278 15.1994 21.4321Z" fill="#87C0ED"/>
<path d="M34.7622 23.3754H24.3572C21.7644 23.3752 19.2485 22.4946 17.2215 20.8778C15.1945 19.2611 13.7765 17.004 13.1998 14.4761C12.6231 11.9483 12.9218 9.29951 14.047 6.96358C15.1722 4.62765 17.0572 2.743 19.3933 1.61827C21.7295 0.493529 24.3783 0.195362 26.9061 0.772591C29.4338 1.34982 31.6906 2.76824 33.307 4.79556C34.9233 6.82288 35.8034 9.33896 35.8031 11.9318C35.8028 14.5246 34.9221 17.0404 33.3052 19.0674L35.5482 21.6534C35.6786 21.8042 35.763 21.9892 35.7913 22.1866C35.8196 22.3839 35.7907 22.5853 35.7079 22.7666C35.6251 22.948 35.492 23.1018 35.3243 23.2097C35.1567 23.3176 34.9616 23.3751 34.7622 23.3754Z" fill="#999FED"/>
<path d="M35.5484 21.6524L33.3054 19.0664C34.6489 17.382 35.4896 15.3526 35.731 13.2116C35.9723 11.0706 35.6045 8.9049 34.6697 6.96366C33.735 5.02242 32.2713 3.38443 30.4471 2.23805C28.6228 1.09168 26.512 0.483477 24.3574 0.483398V23.3754H34.7624C34.9618 23.3751 35.1569 23.3176 35.3245 23.2097C35.4922 23.1018 35.6253 22.948 35.7081 22.7667C35.7909 22.5853 35.8198 22.384 35.7915 22.1866C35.7632 21.9893 35.6789 21.8042 35.5484 21.6534V21.6524Z" fill="#7C84E8"/>
<path d="M24.3574 19.0058C24.9323 19.0058 25.3984 18.5398 25.3984 17.9648C25.3984 17.3899 24.9323 16.9238 24.3574 16.9238C23.7825 16.9238 23.3164 17.3899 23.3164 17.9648C23.3164 18.5398 23.7825 19.0058 24.3574 19.0058Z" fill="#FFF79F"/>
<path d="M24.3577 15.8546C24.0816 15.8546 23.8168 15.7449 23.6216 15.5497C23.4264 15.3545 23.3167 15.0897 23.3167 14.8136V11.7276C23.3167 11.4515 23.4264 11.1867 23.6216 10.9915C23.8168 10.7963 24.0816 10.6866 24.3577 10.6866C24.6173 10.6864 24.8741 10.6334 25.1125 10.5308C25.3509 10.4281 25.5659 10.278 25.7445 10.0896C25.923 9.90112 26.0612 9.67831 26.1509 9.4347C26.2405 9.1911 26.2795 8.93179 26.2657 8.67259C26.2387 8.19166 26.0314 7.73859 25.6852 7.40368C25.339 7.06878 24.8792 6.87665 24.3977 6.86559H24.3587C23.8982 6.86538 23.453 7.03149 23.1052 7.33337C22.7574 7.63525 22.5303 8.05259 22.4657 8.50859C22.4535 8.5974 22.4475 8.68694 22.4477 8.77659C22.452 8.91594 22.4283 9.05474 22.378 9.18476C22.3276 9.31477 22.2517 9.43335 22.1546 9.53345C22.0576 9.63355 21.9414 9.71314 21.813 9.76749C21.6846 9.82184 21.5466 9.84985 21.4072 9.84985C21.2678 9.84985 21.1298 9.82184 21.0014 9.76749C20.873 9.71314 20.7568 9.63355 20.6598 9.53345C20.5627 9.43335 20.4868 9.31477 20.4364 9.18476C20.3861 9.05474 20.3624 8.91594 20.3667 8.77659C20.3666 8.59093 20.3793 8.40549 20.4047 8.22158C20.5046 7.50705 20.7962 6.83293 21.2485 6.27086C21.7008 5.70878 22.297 5.27976 22.9736 5.02939C23.6503 4.77902 24.3821 4.71666 25.0913 4.84893C25.8006 4.9812 26.4607 5.30316 27.0016 5.7806C27.5425 6.25804 27.944 6.87311 28.1633 7.56044C28.3826 8.24778 28.4116 8.98169 28.2472 9.68419C28.0828 10.3867 27.7311 11.0315 27.2296 11.5501C26.728 12.0687 26.0953 12.4418 25.3987 12.6296V14.8146C25.3984 15.0905 25.2887 15.355 25.0935 15.55C24.8983 15.745 24.6336 15.8546 24.3577 15.8546Z" fill="#FFF79F"/>
<path d="M24.3574 16.9229V19.0038C24.6278 18.9955 24.8843 18.8822 25.0726 18.688C25.2609 18.4937 25.3661 18.2339 25.3661 17.9633C25.3661 17.6928 25.2609 17.433 25.0726 17.2388C24.8843 17.0445 24.6278 16.9312 24.3574 16.9229Z" fill="#FFDE55"/>
<path d="M28.3444 8.56516C28.2893 7.55993 27.8572 6.61244 27.1343 5.91178C26.4114 5.21112 25.4509 4.80882 24.4444 4.78516H24.3574V6.86515H24.3974C24.7678 6.87251 25.1281 6.98743 25.4343 7.1959C25.7406 7.40438 25.9796 7.69741 26.1222 8.03931C26.2649 8.38121 26.305 8.75722 26.2378 9.12153C26.1705 9.48584 25.9987 9.82273 25.7434 10.0912C25.5659 10.2809 25.3513 10.4321 25.1128 10.5353C24.8744 10.6385 24.6172 10.6916 24.3574 10.6912V15.8582C24.6335 15.8582 24.8983 15.7485 25.0935 15.5533C25.2887 15.358 25.3984 15.0932 25.3984 14.8172V12.6282C26.1052 12.4376 26.7464 12.0572 27.2524 11.5282C27.6279 11.1356 27.9187 10.67 28.1065 10.1602C28.2944 9.65047 28.3754 9.10753 28.3444 8.56516Z" fill="#FFDE55"/>
</svg>
