<svg width="24" height="24" viewBox="0 0 24 24" fill="none" xmlns="http://www.w3.org/2000/svg">
<rect width="24" height="24" rx="12" fill="url(#paint0_linear_5664_10391)"/>
<g clip-path="url(#clip0_5664_10391)">
<path d="M7.05 3.6355C6.80039 3.73394 6.54375 3.99058 6.44883 4.24722C6.38906 4.40543 6.375 4.52496 6.375 4.84488V5.24566L5.47148 5.25621L4.56445 5.26675L4.35352 5.36871C4.08281 5.5023 3.81563 5.76949 3.68203 6.04019L3.58008 6.25113V12.2804V18.3097L3.68203 18.5207C3.81563 18.7914 4.08281 19.0586 4.35352 19.1921L4.56445 19.2941L8.77266 19.3046C12.9527 19.3117 12.9844 19.3117 13.0547 19.2414C13.1391 19.157 13.1496 18.9355 13.0758 18.8336C13.0266 18.7668 12.9316 18.7668 8.9168 18.7492C5.06016 18.7316 4.80352 18.7281 4.66992 18.6683C4.48008 18.5839 4.30781 18.4117 4.21641 18.2218L4.14258 18.0636L4.13203 13.6234L4.125 9.18668H12H19.875V11.6476C19.875 14.0628 19.875 14.1086 19.9453 14.1789C20.0402 14.2738 20.2723 14.2738 20.3672 14.1789C20.4375 14.1086 20.4375 14.0769 20.4305 10.1781L20.4199 6.25113L20.318 6.04019C20.1844 5.76949 19.9172 5.5023 19.6465 5.36871L19.4355 5.26675L18.532 5.25621L17.625 5.24566V4.84488C17.625 4.33863 17.5547 4.12769 17.3086 3.87808C16.7461 3.3191 15.7195 3.51949 15.4488 4.24722C15.3891 4.40543 15.375 4.52496 15.375 4.84488V5.24918H14.25H13.125V4.84488C13.125 4.52496 13.1109 4.40543 13.0512 4.24722C12.7805 3.51949 11.7539 3.3191 11.1914 3.87808C10.9418 4.12769 10.875 4.33863 10.875 4.84488V5.24918H9.75H8.625V4.84488C8.625 4.33863 8.5582 4.12769 8.30859 3.87808C7.9957 3.56871 7.48242 3.47027 7.05 3.6355ZM7.78125 4.24019C7.84805 4.28238 7.93242 4.37379 7.97109 4.44058C8.04141 4.5566 8.04492 4.61988 8.04492 5.53043C8.04492 6.44097 8.04141 6.50425 7.97109 6.62027C7.74961 6.99644 7.25039 6.99644 7.02891 6.62027C6.95859 6.50425 6.95508 6.44097 6.95508 5.53043C6.95508 4.61988 6.95859 4.5566 7.02891 4.44058C7.13438 4.26128 7.30313 4.15933 7.5 4.15933C7.6125 4.15933 7.70391 4.18394 7.78125 4.24019ZM12.2812 4.24019C12.348 4.28238 12.4324 4.37379 12.4711 4.44058C12.5414 4.5566 12.5449 4.61988 12.5449 5.53043C12.5449 6.44097 12.5414 6.50425 12.4711 6.62027C12.2496 6.99644 11.7504 6.99644 11.5289 6.62027C11.4586 6.50425 11.4551 6.44097 11.4551 5.53043C11.4551 4.61988 11.4586 4.5566 11.5289 4.44058C11.6344 4.26128 11.8031 4.15933 12 4.15933C12.1125 4.15933 12.2039 4.18394 12.2812 4.24019ZM16.7813 4.24019C16.848 4.28238 16.9324 4.37379 16.9711 4.44058C17.0414 4.5566 17.0449 4.61988 17.0449 5.53043C17.0449 6.44097 17.0414 6.50425 16.9711 6.62027C16.7496 6.99644 16.2504 6.99644 16.0289 6.62027C15.9586 6.50425 15.9551 6.44097 15.9551 5.53043C15.9551 4.61988 15.9586 4.5566 16.0289 4.44058C16.1344 4.26128 16.3031 4.15933 16.5 4.15933C16.6125 4.15933 16.7039 4.18394 16.7813 4.24019ZM6.375 6.21597C6.375 6.72222 6.4418 6.93316 6.69141 7.18277C7.25391 7.74175 8.28047 7.54136 8.55117 6.81363C8.61094 6.65543 8.625 6.5359 8.625 6.21597V5.81168H9.75H10.875V6.21597C10.875 6.5359 10.8891 6.65543 10.9488 6.81363C11.2195 7.54136 12.2461 7.74175 12.8086 7.18277C13.0582 6.93316 13.125 6.72222 13.125 6.21597V5.81168H14.25H15.375V6.21597C15.375 6.72222 15.4418 6.93316 15.6914 7.18277C16.2539 7.74175 17.2805 7.54136 17.5512 6.81363C17.6109 6.65543 17.625 6.5359 17.625 6.21246V5.80465L18.409 5.81871C19.2809 5.83277 19.3898 5.85738 19.6184 6.09644C19.8469 6.33902 19.8539 6.38472 19.868 7.55894L19.882 8.62418H12H4.11797L4.13203 7.55894C4.14609 6.38472 4.15313 6.3355 4.38164 6.09996C4.6207 5.85035 4.75781 5.82222 5.68242 5.81519L6.375 5.81168V6.21597Z" fill="white"/>
<path d="M6.06562 10.6641C5.83711 10.8047 5.8125 10.8891 5.8125 11.5781C5.8125 12.2672 5.83711 12.3516 6.06562 12.4922C6.17109 12.5555 6.24492 12.5625 6.9375 12.5625C7.63008 12.5625 7.70391 12.5555 7.80937 12.4922C8.03789 12.3516 8.0625 12.2672 8.0625 11.5781C8.0625 10.8891 8.03789 10.8047 7.80937 10.6641C7.70391 10.6008 7.63008 10.5938 6.9375 10.5938C6.24492 10.5938 6.17109 10.6008 6.06562 10.6641ZM7.5 11.5781V12H6.9375H6.375V11.5781V11.1562H6.9375H7.5V11.5781Z" fill="white"/>
<path d="M9.44062 10.6641C9.21211 10.8047 9.1875 10.8891 9.1875 11.5781C9.1875 12.2672 9.21211 12.3516 9.44062 12.4922C9.54609 12.5555 9.61992 12.5625 10.3125 12.5625C11.0051 12.5625 11.0789 12.5555 11.1844 12.4922C11.4129 12.3516 11.4375 12.2672 11.4375 11.5781C11.4375 10.8891 11.4129 10.8047 11.1844 10.6641C11.0789 10.6008 11.0051 10.5938 10.3125 10.5938C9.61992 10.5938 9.54609 10.6008 9.44062 10.6641ZM10.875 11.5781V12H10.3125H9.75V11.5781V11.1562H10.3125H10.875V11.5781Z" fill="white"/>
<path d="M12.8156 10.6641C12.5871 10.8047 12.5625 10.8891 12.5625 11.5781C12.5625 12.2672 12.5871 12.3516 12.8156 12.4922C12.9211 12.5555 12.9949 12.5625 13.6875 12.5625C14.3801 12.5625 14.4539 12.5555 14.5594 12.4922C14.7879 12.3516 14.8125 12.2672 14.8125 11.5781C14.8125 10.8891 14.7879 10.8047 14.5594 10.6641C14.4539 10.6008 14.3801 10.5938 13.6875 10.5938C12.9949 10.5938 12.9211 10.6008 12.8156 10.6641ZM14.25 11.5781V12H13.6875H13.125V11.5781V11.1562H13.6875H14.25V11.5781Z" fill="white"/>
<path d="M16.1906 10.6641C15.9621 10.8047 15.9375 10.8891 15.9375 11.5781C15.9375 12.2672 15.9621 12.3516 16.1906 12.4922C16.2961 12.5555 16.3699 12.5625 17.0625 12.5625C17.7551 12.5625 17.8289 12.5555 17.9344 12.4922C18.1629 12.3516 18.1875 12.2672 18.1875 11.5781C18.1875 10.8891 18.1629 10.8047 17.9344 10.6641C17.8289 10.6008 17.7551 10.5938 17.0625 10.5938C16.3699 10.5938 16.2961 10.6008 16.1906 10.6641ZM17.625 11.5781V12H17.0625H16.5V11.5781V11.1562H17.0625H17.625V11.5781Z" fill="white"/>
<path d="M6.06562 13.1953C5.83711 13.3359 5.8125 13.4203 5.8125 14.1094C5.8125 14.7984 5.83711 14.8828 6.06562 15.0234C6.17109 15.0867 6.24492 15.0938 6.9375 15.0938C7.63008 15.0938 7.70391 15.0867 7.80937 15.0234C8.03789 14.8828 8.0625 14.7984 8.0625 14.1094C8.0625 13.4203 8.03789 13.3359 7.80937 13.1953C7.70391 13.132 7.63008 13.125 6.9375 13.125C6.24492 13.125 6.17109 13.132 6.06562 13.1953ZM7.5 14.1094V14.5312H6.9375H6.375V14.1094V13.6875H6.9375H7.5V14.1094Z" fill="white"/>
<path d="M9.44062 13.1953C9.21211 13.3359 9.1875 13.4203 9.1875 14.1094C9.1875 14.7984 9.21211 14.8828 9.44062 15.0234C9.54609 15.0867 9.61992 15.0938 10.3125 15.0938C11.0051 15.0938 11.0789 15.0867 11.1844 15.0234C11.4129 14.8828 11.4375 14.7984 11.4375 14.1094C11.4375 13.4203 11.4129 13.3359 11.1844 13.1953C11.0789 13.132 11.0051 13.125 10.3125 13.125C9.61992 13.125 9.54609 13.132 9.44062 13.1953ZM10.875 14.1094V14.5312H10.3125H9.75V14.1094V13.6875H10.3125H10.875V14.1094Z" fill="white"/>
<path d="M12.8156 13.1944C12.5871 13.3351 12.5625 13.4194 12.5625 14.1085C12.5625 14.7976 12.5871 14.8819 12.8156 15.0226C12.9738 15.1175 13.241 15.1175 13.3359 15.0226C13.4871 14.8714 13.3887 14.5304 13.1953 14.5304C13.1285 14.5304 13.125 14.5058 13.125 14.1085V13.6866H13.7578C14.3449 13.6866 14.3941 13.6831 14.4609 13.6163C14.5066 13.5706 14.5312 13.5003 14.5312 13.4054C14.5312 13.3104 14.5066 13.2401 14.4609 13.1944C14.3941 13.1276 14.3449 13.1241 13.6629 13.1241C12.9949 13.1241 12.9211 13.1312 12.8156 13.1944Z" fill="white"/>
<path d="M16.0077 13.1914C15.287 13.3496 14.7316 13.6554 14.1937 14.1933C13.6452 14.7418 13.3429 15.2972 13.1882 16.0426C13.0863 16.5277 13.1144 17.3328 13.2445 17.7758C13.4378 18.4297 13.7472 18.9429 14.2218 19.4035C14.6859 19.857 15.1534 20.1277 15.7863 20.3176C16.2292 20.4476 17.0343 20.4758 17.5195 20.3738C18.2648 20.2191 18.8202 19.9168 19.3687 19.3683C19.9171 18.8199 20.2195 18.2644 20.3741 17.5191C20.4761 17.034 20.448 16.2289 20.3179 15.7859C20.1281 15.1531 19.8573 14.6855 19.4038 14.2215C18.9433 13.7469 18.43 13.441 17.7761 13.2441C17.3507 13.1176 16.4648 13.0894 16.0077 13.1914ZM17.5546 13.8101C17.9027 13.898 18.4546 14.1793 18.7323 14.4148C20.1105 15.575 20.223 17.614 18.982 18.9183C18.0749 19.8711 16.5491 20.1207 15.382 19.5054C14.5769 19.0801 14.0003 18.3453 13.7929 17.484C13.698 17.0761 13.698 16.4855 13.7929 16.0777C13.9441 15.4519 14.3378 14.8226 14.8406 14.4043C15.1077 14.1828 15.6702 13.8945 16.0077 13.8066C16.4683 13.6871 17.0835 13.6871 17.5546 13.8101Z" fill="white"/>
<path d="M17.3367 16.6301L16.2188 17.7445L15.6984 17.2277C15.1992 16.7355 15.1711 16.7109 15.034 16.7109C14.8477 16.7109 14.7422 16.8199 14.7422 17.0098C14.7422 17.1434 14.7703 17.1785 15.4031 17.8078C16.0605 18.4688 16.0641 18.4688 16.2188 18.4688H16.377L17.632 17.2102C18.873 15.9727 18.8906 15.9516 18.8906 15.8109C18.8906 15.6211 18.7816 15.5156 18.5918 15.5156C18.4582 15.5156 18.4195 15.5473 17.3367 16.6301Z" fill="white"/>
<path d="M6.06562 15.7266C5.83711 15.8672 5.8125 15.9516 5.8125 16.6406C5.8125 17.3297 5.83711 17.4141 6.06562 17.5547C6.17109 17.618 6.24492 17.625 6.9375 17.625C7.63008 17.625 7.70391 17.618 7.80937 17.5547C8.03789 17.4141 8.0625 17.3297 8.0625 16.6406C8.0625 15.9516 8.03789 15.8672 7.80937 15.7266C7.70391 15.6633 7.63008 15.6562 6.9375 15.6562C6.24492 15.6562 6.17109 15.6633 6.06562 15.7266ZM7.5 16.6406V17.0625H6.9375H6.375V16.6406V16.2188H6.9375H7.5V16.6406Z" fill="white"/>
<path d="M9.44062 15.7266C9.21211 15.8672 9.1875 15.9516 9.1875 16.6406C9.1875 17.3297 9.21211 17.4141 9.44062 17.5547C9.54609 17.618 9.61992 17.625 10.3125 17.625C11.0051 17.625 11.0789 17.618 11.1844 17.5547C11.4129 17.4141 11.4375 17.3297 11.4375 16.6406C11.4375 15.9516 11.4129 15.8672 11.1844 15.7266C11.0789 15.6633 11.0051 15.6562 10.3125 15.6562C9.61992 15.6562 9.54609 15.6633 9.44062 15.7266ZM10.875 16.6406V17.0625H10.3125H9.75V16.6406V16.2188H10.3125H10.875V16.6406Z" fill="white"/>
</g>
<defs>
<linearGradient id="paint0_linear_5664_10391" x1="12" y1="0" x2="12" y2="24" gradientUnits="userSpaceOnUse">
<stop stop-color="#FF8331"/>
<stop offset="1" stop-color="#DC5F19"/>
</linearGradient>
<clipPath id="clip0_5664_10391">
<rect width="18" height="18" fill="white" transform="translate(3 3)"/>
</clipPath>
</defs>
</svg>
