<svg width="46" height="47" viewBox="0 0 46 47" fill="none" xmlns="http://www.w3.org/2000/svg">
<path d="M0 23.3267C0 17.2267 2.42319 11.3765 6.73653 7.0632C11.0499 2.74987 16.9 0.32666 23 0.32666C29.1 0.32666 34.9501 2.74987 39.2635 7.0632C43.5768 11.3765 46 17.2267 46 23.3267C46 29.4266 43.5768 35.2768 39.2635 39.5901C34.9501 43.9035 29.1 46.3267 23 46.3267C16.9 46.3267 11.0499 43.9035 6.73653 39.5901C2.42319 35.2768 0 29.4266 0 23.3267ZM8.3628 8.68946C6.43475 10.6073 4.90616 12.8884 3.86549 15.4009C2.82482 17.9133 2.29273 20.6072 2.3 23.3267C2.29258 26.0463 2.82461 28.7404 3.86528 31.2531C4.90596 33.7657 6.43462 36.0471 8.3628 37.965C10.2807 39.8929 12.5618 41.4213 15.0743 42.4618C17.5868 43.5023 20.2806 44.0341 23 44.0267C25.7194 44.0342 28.4133 43.5024 30.9257 42.4619C33.4382 41.4214 35.7194 39.893 37.6372 37.965C39.5655 36.0472 41.0943 33.7659 42.135 31.2532C43.1757 28.7405 43.7076 26.0463 43.7 23.3267C43.7075 20.6072 43.1755 17.9132 42.1349 15.4007C41.0942 12.8882 39.5655 10.6071 37.6372 8.68946C35.7194 6.76131 33.4383 5.23266 30.9259 4.19198C28.4134 3.1513 25.7195 2.61926 23 2.62666C20.2806 2.61939 17.5867 3.15148 15.0742 4.19215C12.5617 5.23282 10.2806 6.76141 8.3628 8.68946ZM23.0885 26.7767C22.7601 26.7767 22.4451 26.6462 22.2128 26.4139C21.9805 26.1816 21.85 25.8666 21.85 25.5381V11.9417C21.85 11.6062 21.9833 11.2844 22.2205 11.0472C22.4577 10.8099 22.7795 10.6767 23.115 10.6767C23.4505 10.6767 23.7722 10.8099 24.0095 11.0472C24.2467 11.2844 24.38 11.6062 24.38 11.9417V24.3007H33.2626C33.5908 24.3007 33.9055 24.4311 34.1376 24.6631C34.3696 24.8952 34.5 25.2099 34.5 25.5381C34.5 25.8666 34.3695 26.1816 34.1372 26.4139C33.9049 26.6462 33.5899 26.7767 33.2615 26.7767H23.0885Z" fill="url(#paint0_linear_130_9552)"/>
<defs>
<linearGradient id="paint0_linear_130_9552" x1="23" y1="0.32666" x2="23" y2="46.3267" gradientUnits="userSpaceOnUse">
<stop stop-color="#FF8331"/>
<stop offset="1" stop-color="#DC5F19"/>
</linearGradient>
</defs>
</svg>
