<svg width="16" height="16" viewBox="0 0 16 16" fill="none" xmlns="http://www.w3.org/2000/svg">
<path d="M16.0002 8.00048C16.0017 9.84095 15.3697 11.6259 14.2105 13.0553C13.0512 14.4848 11.4352 15.4717 9.63412 15.8503C7.83301 16.2289 5.95647 15.9761 4.31978 15.1343C2.68309 14.2925 1.38598 12.9131 0.646358 11.2278C-0.0932616 9.54249 -0.230317 7.65397 0.258219 5.87952C0.746754 4.10507 1.83111 2.55282 3.32911 1.48356C4.82711 0.414295 6.64748 -0.106829 8.48438 0.00773798C10.3213 0.122305 12.0628 0.865582 13.4163 2.11269C14.2308 2.86199 14.881 3.77213 15.3258 4.78558C15.7706 5.79903 16.0002 6.89373 16.0002 8.00048Z" fill="#F0CD00"/>
<path d="M16 8.00057C16 10.0707 15.1975 12.0602 13.7612 13.551C12.3249 15.0418 10.3666 15.9177 8.29788 15.9947C6.23055 15.9156 4.27425 15.0387 2.8396 13.5481C1.40495 12.0575 0.603516 10.0691 0.603516 8.00029C0.603516 5.93145 1.40495 3.94304 2.8396 2.45245C4.27425 0.961851 6.23055 0.0849682 8.29788 0.00585938C10.3667 0.0828656 12.3251 0.958882 13.7614 2.44978C15.1977 3.94067 16.0002 5.93034 16 8.00057Z" fill="#FFDE50"/>
<path d="M13.4153 2.11267L2.11169 13.4163C1.72661 12.9979 1.38702 12.5399 1.09863 12.0499L12.0495 1.09961C12.5395 1.38779 12.9973 1.7274 13.4153 2.11267Z" fill="#FFEA94"/>
<path d="M15.4484 5.07537L5.07537 15.4489C4.34682 15.1624 3.66433 14.7704 3.0498 14.2854L14.2849 3.0498C14.77 3.66422 15.1621 4.34673 15.4484 5.07537Z" fill="#FFEA94"/>
<path d="M14.2167 8.00074C14.215 9.64171 13.5645 11.2154 12.4071 12.3787C11.2497 13.542 9.6793 14.2005 8.03835 14.2106C6.39741 14.2206 4.81905 13.5815 3.64745 12.4325C2.47586 11.2835 1.80608 9.71791 1.78418 8.07708C1.78418 8.05145 1.78418 8.02637 1.78418 8.00074C1.78418 6.3521 2.43906 4.77098 3.60477 3.60517C4.77048 2.43935 6.35154 1.78433 8.00018 1.78418H8.07708C9.33278 1.79801 10.5545 2.19373 11.5799 2.91872C12.2674 3.40455 12.8498 4.02412 13.2923 4.74033C13.898 5.71988 14.2181 6.84907 14.2167 8.00074Z" fill="#FAA300"/>
<path d="M12.3957 3.60468L3.60412 12.3962C2.45518 11.2505 1.8017 9.6996 1.78418 8.07708C1.78418 8.05145 1.78418 8.02637 1.78418 8.00074C1.78418 6.3521 2.43906 4.77098 3.60477 3.60516C4.77048 2.43935 6.35154 1.78433 8.00018 1.78418H8.07708C9.33278 1.79801 10.5545 2.19373 11.5799 2.91872C11.8708 3.12381 12.1437 3.3533 12.3957 3.60468Z" fill="#FFBD00"/>
<path d="M14.2161 8.00032C14.2161 9.64905 13.5611 11.2303 12.3953 12.3961C11.2294 13.5619 9.64823 14.2169 7.9995 14.2169C7.88174 14.2169 7.76471 14.2135 7.64844 14.2068C9.23442 14.1179 10.7262 13.4252 11.8175 12.271C12.9089 11.1167 13.5169 9.58852 13.5169 8.00004C13.5169 6.41156 12.9089 4.88334 11.8175 3.7291C10.7262 2.57486 9.23442 1.88217 7.64844 1.79323C7.76471 1.78655 7.88174 1.7832 7.9995 1.7832C8.81592 1.7832 9.62434 1.94402 10.3786 2.25646C11.1329 2.56891 11.8182 3.02687 12.3955 3.60419C12.9727 4.18151 13.4306 4.86688 13.743 5.62117C14.0554 6.37547 14.2161 7.1839 14.2161 8.00032Z" fill="#F68E00"/>
</svg>
