
<svg width="40" height="41" viewBox="0 0 40 41" fill="none" xmlns="http://www.w3.org/2000/svg">
<rect y="0.551758" width="40" height="40" rx="4" fill="url(#paint0_linear_130_10731)"/>
<path d="M11.0731 8.11992C10.7461 8.23594 10.3981 8.61035 10.2979 8.94785C10.2293 9.19043 10.2188 10.609 10.2293 21.0557C10.2452 32.6994 10.2452 32.8998 10.3506 33.1055C10.5036 33.4219 10.8252 33.7014 11.1311 33.791C11.3631 33.8596 12.4442 33.8701 19.5 33.8701C26.5559 33.8701 27.637 33.8596 27.869 33.791C28.1749 33.7014 28.4965 33.4219 28.6495 33.1055C28.7549 32.8998 28.7549 32.71 28.7707 23.0859L28.7813 13.2773L26.1551 10.6564L23.5342 8.03027L17.417 8.03555C12.112 8.03555 11.2682 8.05137 11.0731 8.11992ZM23.0965 10.7883L23.1124 12.866L23.2706 13.1244C23.3707 13.2826 23.529 13.4408 23.6872 13.541L23.9456 13.6992L26.0233 13.715L28.0957 13.7309V23.223C28.0957 31.9189 28.0905 32.7311 28.0114 32.8682C27.8057 33.2109 28.4649 33.1846 19.5 33.1846C10.5352 33.1846 11.1944 33.2109 10.9887 32.8682C10.9096 32.7311 10.9043 31.7502 10.9043 20.9502C10.9043 10.1871 10.9096 9.16934 10.9887 9.0375C11.1891 8.69473 10.762 8.72109 17.2166 8.71582H23.0807L23.0965 10.7883ZM25.9547 13.0822C24.0932 13.098 24.0879 13.0928 23.8401 12.7236C23.7188 12.5549 23.7188 12.5285 23.7188 10.8568V9.16406L25.67 11.1152L27.6211 13.0664L25.9547 13.0822Z" fill="white"/>
<path d="M13.4777 15.2498C12.0908 15.7034 11.4211 17.2907 12.0486 18.6196C12.2332 19.0151 12.7869 19.5688 13.1824 19.7534C14.4059 20.3334 15.8455 19.8166 16.4256 18.5932C16.5996 18.2346 16.626 18.1239 16.6418 17.702C16.6682 17.1694 16.5838 16.7791 16.3518 16.352C16.1514 15.9828 15.6609 15.5399 15.2443 15.35C14.9279 15.2077 14.8172 15.1813 14.332 15.1655C13.8943 15.1549 13.715 15.1707 13.4777 15.2498ZM14.949 15.967C15.6029 16.2623 15.9879 16.8582 15.9879 17.5754C15.9932 17.9077 15.9668 18.0237 15.8402 18.2821C15.5344 18.9096 15.007 19.2629 14.332 19.3051C13.7783 19.3368 13.4092 19.1891 13.0084 18.7936C12.6076 18.3928 12.4652 18.0237 12.4969 17.4647C12.5233 16.9848 12.6709 16.6473 12.9926 16.3256C13.5305 15.7877 14.2635 15.6506 14.949 15.967Z" fill="white"/>
<path d="M13.8206 16.3571C13.5358 16.5364 13.404 16.9425 13.5411 17.2114C13.6571 17.4224 14.1212 17.2958 14.1212 17.048C14.1212 16.9214 14.2161 16.8581 14.2952 16.9372C14.3374 16.9794 14.311 17.0427 14.1897 17.164C13.8944 17.4804 13.8206 17.7968 14.0052 17.9603C14.195 18.1343 14.543 18.0499 14.543 17.8337C14.543 17.781 14.6116 17.6913 14.696 17.6333C14.8964 17.4856 15.044 17.1165 14.9966 16.8634C14.9755 16.7579 14.8805 16.5839 14.7856 16.4784C14.6274 16.3097 14.58 16.2886 14.3005 16.2728C14.0579 16.2569 13.9524 16.2728 13.8206 16.3571Z" fill="white"/>
<path d="M14.1211 18.2445C13.8996 18.3236 13.8416 18.6136 14.0157 18.7876C14.2319 19.0038 14.543 18.8562 14.543 18.5345C14.543 18.3025 14.3426 18.1654 14.1211 18.2445Z" fill="white"/>
<path d="M17.496 15.7822C17.3589 15.9193 17.3641 16.1092 17.5013 16.2357C17.6067 16.3307 17.7649 16.3359 22.2948 16.3359C26.8247 16.3359 26.9829 16.3307 27.0884 16.2357C27.2255 16.1092 27.2308 15.9193 27.0936 15.7822C26.9882 15.6768 26.9196 15.6768 22.2948 15.6768C17.67 15.6768 17.6015 15.6768 17.496 15.7822Z" fill="white"/>
<path d="M17.6543 17.243C17.3906 17.3432 17.3115 17.6016 17.4961 17.7861C17.6016 17.8916 17.6701 17.8916 22.2949 17.8916C26.9197 17.8916 26.9883 17.8916 27.0938 17.7861C27.2309 17.649 27.2256 17.4592 27.0885 17.3326C26.983 17.2377 26.8195 17.2324 22.3529 17.2219C19.8111 17.2166 17.6965 17.2271 17.6543 17.243Z" fill="white"/>
<path d="M17.4749 18.9041C17.3641 19.0623 17.3694 19.2258 17.4854 19.3312C17.5751 19.4104 17.8335 19.4209 20.0905 19.4209C22.4477 19.4209 22.6007 19.4156 22.6798 19.326C22.7958 19.1994 22.7905 18.9832 22.6745 18.8777C22.5848 18.7986 22.3264 18.7881 20.0641 18.7881H17.554L17.4749 18.9041Z" fill="white"/>
<path d="M13.5094 21.0553C12.2965 21.4402 11.5951 22.6637 11.8746 23.9082C12.2227 25.4639 13.9155 26.2496 15.3498 25.5271C17.2957 24.5516 16.9899 21.5773 14.8858 21.0342C14.4639 20.9234 13.9049 20.934 13.5094 21.0553ZM14.601 21.6564C14.7698 21.6933 15.0071 21.7883 15.1389 21.8621C15.893 22.3051 16.2094 23.2965 15.8455 24.0875C15.4395 24.9629 14.3953 25.3689 13.5569 24.984C13.1877 24.8152 12.845 24.4935 12.6551 24.1402C12.5285 23.9082 12.5127 23.8185 12.5127 23.3756C12.5127 22.9326 12.5285 22.843 12.6551 22.6109C12.9188 22.1047 13.3881 21.7408 13.9155 21.6406C14.2424 21.5773 14.2688 21.5773 14.601 21.6564Z" fill="white"/>
<path d="M13.8734 22.1419C13.4831 22.337 13.3513 22.9382 13.6624 23.1122C13.789 23.1808 13.8206 23.1808 13.9525 23.1122C14.0316 23.0647 14.1001 22.9804 14.1107 22.9171C14.137 22.7536 14.2689 22.6534 14.3111 22.7642C14.3322 22.8222 14.2952 22.8907 14.2056 22.9593C13.8365 23.2493 13.8048 23.7872 14.1529 23.8716C14.3058 23.9138 14.5431 23.7872 14.5431 23.6712C14.5431 23.629 14.6327 23.4972 14.7488 23.3812C14.9808 23.1386 15.0493 22.896 14.9702 22.5954C14.8437 22.1419 14.3163 21.9257 13.8734 22.1419Z" fill="white"/>
<path d="M13.9945 24.1459C13.8785 24.2566 13.889 24.4992 14.0051 24.6047C14.1264 24.7154 14.3531 24.7207 14.4586 24.61C14.5588 24.515 14.5693 24.2145 14.4797 24.1248C14.39 24.0352 14.0894 24.0457 13.9945 24.1459Z" fill="white"/>
<path d="M17.4961 21.583C17.4381 21.641 17.3906 21.7465 17.3906 21.8203C17.3906 21.8941 17.4381 21.9996 17.4961 22.0576C17.6016 22.1631 17.6701 22.1631 22.2949 22.1631C26.9197 22.1631 26.9883 22.1631 27.0938 22.0576C27.1518 21.9996 27.1992 21.8941 27.1992 21.8203C27.1992 21.7465 27.1518 21.641 27.0938 21.583C26.9883 21.4775 26.9197 21.4775 22.2949 21.4775C17.6701 21.4775 17.6016 21.4775 17.4961 21.583Z" fill="white"/>
<path d="M17.4803 23.1545C17.3695 23.2758 17.3643 23.4234 17.475 23.5764L17.5541 23.6924H22.2949H27.0357L27.1148 23.5764C27.2256 23.4182 27.2203 23.2547 27.1043 23.1492C27.0146 23.0648 26.6033 23.0596 22.2844 23.0596C17.7809 23.0596 17.5594 23.0648 17.4803 23.1545Z" fill="white"/>
<path d="M17.4961 24.6943C17.3748 24.8156 17.359 25.0002 17.4644 25.1479C17.5383 25.2428 17.6279 25.248 20.0801 25.248C22.5322 25.248 22.6219 25.2428 22.6957 25.1479C22.8011 25.0002 22.7853 24.8156 22.664 24.6943C22.5638 24.5941 22.49 24.5889 20.0801 24.5889C17.6701 24.5889 17.5963 24.5941 17.4961 24.6943Z" fill="white"/>
<path d="M13.6624 26.8248C12.4442 27.1359 11.6479 28.3172 11.8378 29.5459C11.9643 30.358 12.46 31.0225 13.2088 31.3811C13.6096 31.5709 13.636 31.5762 14.2266 31.5762C14.7329 31.5762 14.8805 31.5551 15.1389 31.4549C15.7137 31.2229 16.2727 30.6639 16.5047 30.0891C16.6735 29.6514 16.6788 28.7074 16.5047 28.2803C16.2674 27.6844 15.7085 27.1412 15.0862 26.9092C14.7065 26.7668 14.0368 26.7299 13.6624 26.8248ZM14.9913 27.5947C15.3393 27.7635 15.6821 28.1168 15.8508 28.4807C15.9616 28.718 15.9879 28.8604 15.9932 29.1768C15.9932 29.5248 15.9669 29.625 15.8192 29.9256C15.5028 30.5742 14.9227 30.9381 14.2266 30.9381C13.5569 30.9381 13.0137 30.6111 12.6973 30.0152C12.3387 29.3402 12.4389 28.5492 12.9557 28.0008C13.3565 27.5684 13.6993 27.4313 14.3057 27.4523C14.6274 27.4629 14.7961 27.4998 14.9913 27.5947Z" fill="white"/>
<path d="M13.9365 27.9318C13.6465 28.0583 13.5199 28.2535 13.5146 28.5541C13.5146 28.7966 13.5305 28.8388 13.6623 28.9074C13.7889 28.9812 13.8205 28.9812 13.9471 28.9126C14.0262 28.8705 14.1053 28.7755 14.1211 28.7017C14.1369 28.6279 14.1949 28.5646 14.2424 28.5541C14.3848 28.5277 14.3479 28.6701 14.1738 28.7966C13.9998 28.9285 13.8785 29.2554 13.9312 29.4611C14.0051 29.7617 14.4322 29.7617 14.543 29.4611C14.5746 29.3873 14.6643 29.266 14.7539 29.1974C14.9332 29.0445 15.0387 28.7175 14.9859 28.475C14.8805 27.9898 14.3848 27.7314 13.9365 27.9318Z" fill="white"/>
<path d="M13.9998 29.9572C13.7994 30.1787 13.9576 30.4951 14.2582 30.4951C14.4692 30.4951 14.543 30.4107 14.543 30.1682C14.543 30.0258 14.5166 29.9572 14.4428 29.915C14.2846 29.8359 14.0947 29.8518 13.9998 29.9572Z" fill="white"/>
<path d="M17.4803 27.426C17.359 27.5578 17.3696 27.7318 17.4961 27.8584C17.6016 27.9639 17.6702 27.9639 22.295 27.9639C26.9198 27.9639 26.9883 27.9639 27.0938 27.8584C27.2256 27.7266 27.2309 27.5314 27.1043 27.4207C27.0147 27.3363 26.6034 27.3311 22.2844 27.3311C17.7809 27.3311 17.5594 27.3363 17.4803 27.426Z" fill="white"/>
<path d="M17.4749 28.9764C17.3641 29.1346 17.3694 29.298 17.4854 29.4035C17.5751 29.4879 17.9864 29.4932 22.3054 29.4932C26.8089 29.4932 27.0304 29.4879 27.1095 29.3982C27.2202 29.277 27.2255 29.1293 27.1147 28.9764L27.0356 28.8604H22.2948H17.554L17.4749 28.9764Z" fill="white"/>
<path d="M17.5753 30.4529C17.3591 30.5742 17.3275 30.801 17.4962 30.9697C17.5964 31.0699 17.6702 31.0752 20.0802 31.0752C22.4902 31.0752 22.564 31.0699 22.6642 30.9697C22.7855 30.8484 22.8013 30.6639 22.6958 30.5162C22.622 30.4213 22.5271 30.416 20.1488 30.4055C18.3663 30.3949 17.6491 30.4055 17.5753 30.4529Z" fill="white"/>
<defs>
<linearGradient id="paint0_linear_130_10731" x1="20" y1="0.551758" x2="20" y2="40.5518" gradientUnits="userSpaceOnUse">
<stop stop-color="#FF8331"/>
<stop offset="1" stop-color="#DC5F19"/>
</linearGradient>
</defs>
</svg>
