<svg width="81" height="80" viewBox="0 0 81 80" fill="none" xmlns="http://www.w3.org/2000/svg">
<path d="M38.547 0.24958C28.1095 1.04646 19.7657 4.67146 12.7813 11.4215C6.31258 17.6715 2.37508 25.234 0.87508 34.2965C0.50008 36.484 0.453205 43.4996 0.796955 45.7027C2.60945 57.7027 8.73446 67.3121 18.7813 73.9527C22.7657 76.5777 28.7345 78.9527 33.2345 79.6871C35.4063 80.0465 37.2032 78.609 37.2188 76.5152C37.2188 74.6871 36.1563 73.5465 34.0157 73.1402C27.4845 71.8433 21.0782 68.3277 16.4063 63.4683C8.14071 54.8433 5.06258 42.4683 8.37508 30.9996C11.5782 19.8902 20.5626 11.0308 31.6563 8.06208C35.2501 7.09333 37.8282 6.79646 41.5782 6.92146C46.297 7.06208 49.9063 7.89021 54.1563 9.78083C56.4532 10.8121 58.9845 12.3121 58.8282 12.5621C58.7657 12.6558 58.1407 13.5933 57.422 14.6558C56.7032 15.7027 56.1251 16.6558 56.1251 16.7652C56.1251 16.8746 56.2345 17.1246 56.3751 17.3121C56.5782 17.5933 56.7657 17.6558 57.5001 17.6558C58.547 17.6558 68.4532 16.7652 69.0157 16.6246C69.6563 16.4683 70.1876 15.7027 70.1876 14.9527C70.1876 14.0465 67.1876 3.35896 66.8282 2.96833C66.1876 2.26521 65.7501 2.59333 64.0938 4.98396C63.3751 6.03083 62.7657 6.87458 62.7345 6.87458C62.7032 6.87458 62.0001 6.46833 61.1563 5.95271C56.4063 3.09333 51.0157 1.21833 45.5782 0.546455C43.7345 0.327705 39.8126 0.15583 38.547 0.24958Z" fill="url(#paint0_linear_130_9702)"/>
<path d="M37.4531 14.4367C36.8438 14.7024 36.3594 15.2492 36.0469 15.968C35.8438 16.4836 35.8125 18.1867 35.8125 29.718V42.8899L47.875 49.1242C56.5625 53.6242 60.1094 55.3742 60.5938 55.4367C62.9844 55.7024 64.4688 52.468 62.7031 50.8586C62.5156 50.6867 57.5938 48.0774 51.7812 45.0774L41.2031 39.593L41.125 27.7024C41.0469 15.9992 41.0469 15.7961 40.7188 15.3586C40.0312 14.4211 38.4844 13.9836 37.4531 14.4367Z" fill="url(#paint1_linear_130_9702)"/>
<path d="M74.4844 23.3591C74.4063 23.3903 74.0625 23.4528 73.7344 23.5153C73.0313 23.6247 72.0469 24.4528 71.6719 25.2497C71.1719 26.3278 71.5 28.2653 72.5469 30.3591C73.4063 32.0466 75.8907 32.5309 77.4844 31.3122C78.7344 30.3591 78.9532 28.7653 78.1407 26.5466C77.6094 25.0778 77.4063 24.7184 76.7969 24.1403C76.2813 23.6716 74.9375 23.2184 74.4844 23.3591Z" fill="url(#paint2_linear_130_9702)"/>
<path d="M75.8594 35.8749C75.1406 36.2343 74.2969 37.2187 74.1094 37.9218C73.8906 38.7031 73.8906 40.8593 74.1094 41.8749C74.7188 44.7343 78.8281 45.2656 80.1562 42.6562C80.4531 42.0468 80.5 41.7343 80.5 39.9999C80.5 38.2656 80.4531 37.9531 80.1562 37.3437C79.6094 36.2812 78.7031 35.7187 77.4062 35.6562C76.6562 35.6249 76.2188 35.6874 75.8594 35.8749Z" fill="url(#paint3_linear_130_9702)"/>
<path d="M74.4065 48.1713C73.5002 48.4681 72.7971 49.3275 72.219 50.8744C71.6252 52.4681 71.4846 53.6244 71.7502 54.4369C72.5471 56.8744 76.0002 57.4056 77.5002 55.3275C77.7346 54.9994 78.1721 53.9838 78.4534 53.0619C78.9534 51.4681 78.969 51.3431 78.7815 50.515C78.3596 48.6088 76.3909 47.5463 74.4065 48.1713Z" fill="url(#paint4_linear_130_9702)"/>
<path d="M69.0938 59.2029C68.1719 59.4998 67.6251 59.9217 66.7501 61.031C66.2344 61.6873 65.7032 62.4217 65.5782 62.656C64.7813 64.2185 65.3907 66.2029 66.9376 66.9998C67.8751 67.4842 69.1251 67.4998 70.0313 67.031C70.7188 66.6873 72.3594 64.8123 72.8438 63.8123C73.5938 62.2967 72.9219 60.2342 71.4219 59.4529C70.9063 59.1717 69.5938 59.031 69.0938 59.2029Z" fill="url(#paint5_linear_130_9702)"/>
<path d="M59.7344 67.8278C59.0625 68.0935 56.8437 69.4997 56.4844 69.8747C55.6875 70.7341 55.4062 72.4841 55.9062 73.4841C56.5625 74.7809 57.5 75.3747 58.8906 75.3591C59.7656 75.3591 60.0156 75.2653 61.2031 74.5934C61.9375 74.1716 62.7656 73.6091 63.0312 73.3591C65.2344 71.2341 63.7187 67.6091 60.6562 67.6716C60.3594 67.6716 59.9375 67.7497 59.7344 67.8278Z" fill="url(#paint6_linear_130_9702)"/>
<path d="M47.7656 72.9372C45.8281 73.3747 45.4062 73.5622 44.7969 74.2341C44.1094 74.9997 43.9375 75.4216 43.9375 76.4216C43.9375 77.781 44.5469 78.7966 45.7188 79.406C46.4531 79.781 47.7969 79.7497 49.7031 79.2966C50.6875 79.0622 50.9531 78.9216 51.5938 78.2966C53.1719 76.781 52.9531 74.3747 51.125 73.2497C50.2031 72.6872 49.2969 72.5935 47.7656 72.9372Z" fill="url(#paint7_linear_130_9702)"/>
<defs>
<linearGradient id="paint0_linear_130_9702" x1="35.376" y1="79.7422" x2="35.376" y2="0.223412" gradientUnits="userSpaceOnUse">
<stop stop-color="#FF8331"/>
<stop offset="1" stop-color="#DC5F19"/>
</linearGradient>
<linearGradient id="paint1_linear_130_9702" x1="49.6453" y1="55.4521" x2="49.6453" y2="14.2568" gradientUnits="userSpaceOnUse">
<stop stop-color="#FF8331"/>
<stop offset="1" stop-color="#DC5F19"/>
</linearGradient>
<linearGradient id="paint2_linear_130_9702" x1="75.0316" y1="31.9912" x2="75.0316" y2="23.333" gradientUnits="userSpaceOnUse">
<stop stop-color="#FF8331"/>
<stop offset="1" stop-color="#DC5F19"/>
</linearGradient>
<linearGradient id="paint3_linear_130_9702" x1="77.2227" y1="44.3457" x2="77.2227" y2="35.6485" gradientUnits="userSpaceOnUse">
<stop stop-color="#FF8331"/>
<stop offset="1" stop-color="#DC5F19"/>
</linearGradient>
<linearGradient id="paint4_linear_130_9702" x1="75.2568" y1="56.6172" x2="75.2568" y2="47.9919" gradientUnits="userSpaceOnUse">
<stop stop-color="#FF8331"/>
<stop offset="1" stop-color="#DC5F19"/>
</linearGradient>
<linearGradient id="paint5_linear_130_9702" x1="69.1902" y1="67.373" x2="69.1902" y2="59.128" gradientUnits="userSpaceOnUse">
<stop stop-color="#FF8331"/>
<stop offset="1" stop-color="#DC5F19"/>
</linearGradient>
<linearGradient id="paint6_linear_130_9702" x1="59.8661" y1="75.3594" x2="59.8661" y2="67.6708" gradientUnits="userSpaceOnUse">
<stop stop-color="#FF8331"/>
<stop offset="1" stop-color="#DC5F19"/>
</linearGradient>
<linearGradient id="paint7_linear_130_9702" x1="48.2936" y1="79.6641" x2="48.2936" y2="72.7365" gradientUnits="userSpaceOnUse">
<stop stop-color="#FF8331"/>
<stop offset="1" stop-color="#DC5F19"/>
</linearGradient>
</defs>
</svg>
