<svg width="24" height="19" viewBox="0 0 24 19" fill="none" xmlns="http://www.w3.org/2000/svg">
<path d="M13.377 0.763174C12.3516 0.927237 10.752 1.50146 10.5527 1.77099C10.4355 1.92333 10.459 2.29833 10.5938 2.4331C10.7578 2.59716 11.0391 2.57958 11.4902 2.38036C12.2754 2.0288 13.1484 1.78856 13.9805 1.69481L14.3438 1.6538V2.22216C14.3438 2.89013 14.4199 3.01903 14.8125 3.01903C15.2051 3.01903 15.2812 2.89013 15.2812 2.22802C15.2812 1.57763 15.2168 1.61278 16.1074 1.76513C17.4434 1.99364 18.9434 2.66747 19.8105 3.42919L20.0332 3.62255L19.6816 3.98583C19.4883 4.18505 19.3125 4.41943 19.2949 4.50146C19.2129 4.82958 19.5645 5.18114 19.8926 5.09911C19.9746 5.08153 20.209 4.90575 20.4141 4.71239L20.7773 4.35497L21.0293 4.67138C21.8438 5.69677 22.418 7.01513 22.6348 8.38036C22.7637 9.1831 22.8105 9.11278 22.166 9.11278C21.5039 9.11278 21.375 9.18896 21.375 9.58153C21.375 9.97411 21.5039 10.0503 22.166 10.0503C22.8164 10.0503 22.7812 9.98583 22.6289 10.8765C22.4004 12.2183 21.8496 13.4604 21.0293 14.4917L20.7773 14.8081L20.4141 14.4507C20.209 14.2573 19.9746 14.0815 19.8926 14.064C19.5645 13.9819 19.2129 14.3335 19.2949 14.6616C19.3125 14.7436 19.4883 14.978 19.6816 15.1831L20.0391 15.5464L19.7227 15.7925C18.5977 16.689 17.0684 17.31 15.6504 17.4624L15.2812 17.5034V16.9409C15.2812 16.2729 15.2051 16.144 14.8125 16.144C14.4199 16.144 14.3438 16.2729 14.3438 16.9409V17.5093L13.9805 17.4683C13.1484 17.3745 12.2754 17.1343 11.4902 16.7827C10.8457 16.4956 10.4766 16.5952 10.4766 17.0698C10.4766 17.3745 10.5527 17.4565 11.0684 17.6909C12.2109 18.2183 13.1367 18.4292 14.5195 18.4702C15.3867 18.4936 15.6504 18.4819 16.2539 18.3823C18.1992 18.0483 19.7461 17.2515 21.1172 15.8862C22.3945 14.603 23.1562 13.2085 23.5605 11.4097C23.7305 10.6304 23.7422 8.71435 23.584 7.91161C23.209 6.06005 22.4238 4.58349 21.1172 3.27685C19.8457 2.00536 18.5508 1.29638 16.7461 0.868643C15.9551 0.681143 14.209 0.628408 13.377 0.763174Z" fill="url(#paint0_linear_130_9731)"/>
<path d="M6.02344 3.60449C5.94727 3.68066 5.90625 3.79785 5.90625 3.95605C5.90625 4.11426 5.94727 4.23145 6.02344 4.30762C6.13477 4.41895 6.2168 4.4248 8.91211 4.4248C11.6484 4.4248 11.6895 4.4248 11.8008 4.30176C11.9473 4.14355 11.9473 3.76855 11.8008 3.61035C11.6895 3.4873 11.6484 3.4873 8.91211 3.4873C6.2168 3.4873 6.13477 3.49316 6.02344 3.60449Z" fill="url(#paint1_linear_130_9731)"/>
<path d="M18.1815 5.53285C18.0878 5.59144 17.496 6.1598 16.869 6.78675L15.7323 7.92933L15.5213 7.83558C15.1932 7.69496 14.3846 7.71253 14.0331 7.87074C13.5819 8.06996 13.3124 8.32191 13.119 8.71449C12.9608 9.03089 12.9374 9.13636 12.9374 9.55824C12.9374 9.87464 12.9725 10.1325 13.0311 10.2848L13.1249 10.5192L12.9139 10.7535C12.8026 10.8825 12.6854 11.0582 12.6678 11.1461C12.5858 11.4567 12.9374 11.8082 13.2538 11.7262C13.3417 11.7028 13.5233 11.5856 13.6581 11.4625C13.8924 11.2516 13.9159 11.2457 14.0799 11.316C14.3671 11.4332 14.8475 11.4684 15.2049 11.3981C15.8436 11.2633 16.2479 10.9703 16.5057 10.4489C16.6639 10.1325 16.6874 10.027 16.6874 9.60511C16.6874 9.28871 16.6522 9.03089 16.5936 8.87269L16.494 8.63246L17.6659 7.45472C18.3163 6.80433 18.8729 6.21253 18.9139 6.13636C19.1307 5.70277 18.5975 5.26331 18.1815 5.53285ZM15.1171 8.77308C15.2401 8.80824 15.4217 8.93128 15.5155 9.03675C15.6678 9.20667 15.6913 9.27699 15.6913 9.58753C15.6913 9.91566 15.6737 9.96253 15.4979 10.1383C15.0995 10.5368 14.5253 10.5368 14.1268 10.1383C13.951 9.96253 13.9335 9.9098 13.9335 9.59339C13.9335 9.17738 14.0565 8.97816 14.4256 8.8141C14.7069 8.68519 14.8124 8.67933 15.1171 8.77308Z" fill="url(#paint2_linear_130_9731)"/>
<path d="M3.21094 6.41699C3.13477 6.49316 3.09375 6.61035 3.09375 6.76855C3.09375 6.92676 3.13477 7.04395 3.21094 7.12012C3.32813 7.2373 3.4043 7.2373 7.1543 7.2373H10.9863L11.1094 7.10254C11.2852 6.91504 11.2793 6.59277 11.1035 6.42871L10.9688 6.2998H7.14844C3.4043 6.2998 3.32813 6.2998 3.21094 6.41699Z" fill="url(#paint3_linear_130_9731)"/>
<path d="M0.398438 9.22949C0.322266 9.30566 0.28125 9.42285 0.28125 9.58105C0.28125 9.73926 0.322266 9.85645 0.398438 9.93262C0.515625 10.0498 0.591797 10.0498 5.4375 10.0498C10.2832 10.0498 10.3594 10.0498 10.4766 9.93262C10.5527 9.85645 10.5938 9.73926 10.5938 9.58105C10.5938 9.42285 10.5527 9.30566 10.4766 9.22949C10.3594 9.1123 10.2832 9.1123 5.4375 9.1123C0.591797 9.1123 0.515625 9.1123 0.398438 9.22949Z" fill="url(#paint4_linear_130_9731)"/>
<path d="M3.21094 12.042C3.13477 12.1182 3.09375 12.2354 3.09375 12.3936C3.09375 12.5518 3.13477 12.6689 3.21094 12.7451C3.32813 12.8623 3.4043 12.8623 7.1543 12.8623H10.9863L11.1094 12.7275C11.2852 12.54 11.2793 12.2178 11.1035 12.0537L10.9688 11.9248H7.14844C3.4043 11.9248 3.32813 11.9248 3.21094 12.042Z" fill="url(#paint5_linear_130_9731)"/>
<path d="M6.02344 14.8545C5.94727 14.9307 5.90625 15.0479 5.90625 15.2061C5.90625 15.3643 5.94727 15.4814 6.02344 15.5576C6.13477 15.6689 6.2168 15.6748 8.91211 15.6748C11.6484 15.6748 11.6895 15.6748 11.8008 15.5518C11.9473 15.3936 11.9473 15.0186 11.8008 14.8604C11.6895 14.7373 11.6484 14.7373 8.91211 14.7373C6.2168 14.7373 6.13477 14.7432 6.02344 14.8545Z" fill="url(#paint6_linear_130_9731)"/>
<defs>
<linearGradient id="paint0_linear_130_9731" x1="17.0861" y1="18.4805" x2="17.0861" y2="0.687874" gradientUnits="userSpaceOnUse">
<stop stop-color="#FF8331"/>
<stop offset="1" stop-color="#DC5F19"/>
</linearGradient>
<linearGradient id="paint1_linear_130_9731" x1="8.90845" y1="4.4248" x2="8.90845" y2="3.4873" gradientUnits="userSpaceOnUse">
<stop stop-color="#FF8331"/>
<stop offset="1" stop-color="#DC5F19"/>
</linearGradient>
<linearGradient id="paint2_linear_130_9731" x1="15.8099" y1="11.7383" x2="15.8099" y2="5.4502" gradientUnits="userSpaceOnUse">
<stop stop-color="#FF8331"/>
<stop offset="1" stop-color="#DC5F19"/>
</linearGradient>
<linearGradient id="paint3_linear_130_9731" x1="7.16603" y1="7.2373" x2="7.16603" y2="6.2998" gradientUnits="userSpaceOnUse">
<stop stop-color="#FF8331"/>
<stop offset="1" stop-color="#DC5F19"/>
</linearGradient>
<linearGradient id="paint4_linear_130_9731" x1="5.4375" y1="10.0498" x2="5.4375" y2="9.1123" gradientUnits="userSpaceOnUse">
<stop stop-color="#FF8331"/>
<stop offset="1" stop-color="#DC5F19"/>
</linearGradient>
<linearGradient id="paint5_linear_130_9731" x1="7.16603" y1="12.8623" x2="7.16603" y2="11.9248" gradientUnits="userSpaceOnUse">
<stop stop-color="#FF8331"/>
<stop offset="1" stop-color="#DC5F19"/>
</linearGradient>
<linearGradient id="paint6_linear_130_9731" x1="8.90845" y1="15.6748" x2="8.90845" y2="14.7373" gradientUnits="userSpaceOnUse">
<stop stop-color="#FF8331"/>
<stop offset="1" stop-color="#DC5F19"/>
</linearGradient>
</defs>
</svg>
