<svg width="42" height="42" viewBox="0 0 42 42" fill="none" xmlns="http://www.w3.org/2000/svg">
<rect width="42" height="42" rx="21" fill="#FFE0CC"/>
<g clip-path="url(#clip0_130_13053)">
<path d="M30.75 13.5C30.9489 13.5 31.1397 13.579 31.2803 13.7197C31.421 13.8603 31.5 14.0511 31.5 14.25V27.75C31.5 27.9489 31.421 28.1397 31.2803 28.2803C31.1397 28.421 30.9489 28.5 30.75 28.5H11.25C11.0511 28.5 10.8603 28.421 10.7197 28.2803C10.579 28.1397 10.5 27.9489 10.5 27.75V14.25C10.5 14.0511 10.579 13.8603 10.7197 13.7197C10.8603 13.579 11.0511 13.5 11.25 13.5H30.75ZM11.25 12C10.6533 12 10.081 12.2371 9.65901 12.659C9.23705 13.081 9 13.6533 9 14.25V27.75C9 28.3467 9.23705 28.919 9.65901 29.341C10.081 29.7629 10.6533 30 11.25 30H30.75C31.3467 30 31.919 29.7629 32.341 29.341C32.7629 28.919 33 28.3467 33 27.75V14.25C33 13.6533 32.7629 13.081 32.341 12.659C31.919 12.2371 31.3467 12 30.75 12H11.25Z" fill="url(#paint0_linear_130_13053)"/>
<path d="M19.5001 17.2504C19.5001 17.0515 19.5791 16.8607 19.7197 16.72C19.8604 16.5794 20.0512 16.5004 20.2501 16.5004H27.7501C27.949 16.5004 28.1397 16.5794 28.2804 16.72C28.4211 16.8607 28.5001 17.0515 28.5001 17.2504C28.5001 17.4493 28.4211 17.64 28.2804 17.7807C28.1397 17.9213 27.949 18.0004 27.7501 18.0004H20.2501C20.0512 18.0004 19.8604 17.9213 19.7197 17.7807C19.5791 17.64 19.5001 17.4493 19.5001 17.2504ZM17.2561 15.9694C17.3259 16.039 17.3813 16.1218 17.4191 16.2129C17.4569 16.304 17.4764 16.4017 17.4764 16.5004C17.4764 16.599 17.4569 16.6967 17.4191 16.7878C17.3813 16.8789 17.3259 16.9617 17.2561 17.0314L15.0061 19.2814C14.9364 19.3512 14.8536 19.4066 14.7625 19.4444C14.6714 19.4822 14.5737 19.5017 14.4751 19.5017C14.3764 19.5017 14.2787 19.4822 14.1876 19.4444C14.0965 19.4066 14.0137 19.3512 13.9441 19.2814L13.1941 18.5314C13.1243 18.4616 13.069 18.3788 13.0313 18.2877C12.9935 18.1966 12.9741 18.099 12.9741 18.0004C12.9741 17.8012 13.0532 17.6102 13.1941 17.4694C13.3349 17.3285 13.5259 17.2494 13.7251 17.2494C13.9242 17.2494 14.1152 17.3285 14.2561 17.4694L14.4751 17.6899L16.1941 15.9694C16.2637 15.8995 16.3465 15.8441 16.4376 15.8063C16.5287 15.7685 16.6264 15.749 16.7251 15.749C16.8237 15.749 16.9214 15.7685 17.0125 15.8063C17.1036 15.8441 17.1864 15.8995 17.2561 15.9694ZM19.5001 23.2504C19.5001 23.0515 19.5791 22.8607 19.7197 22.72C19.8604 22.5794 20.0512 22.5004 20.2501 22.5004H27.7501C27.949 22.5004 28.1397 22.5794 28.2804 22.72C28.4211 22.8607 28.5001 23.0515 28.5001 23.2504C28.5001 23.4493 28.4211 23.64 28.2804 23.7807C28.1397 23.9213 27.949 24.0004 27.7501 24.0004H20.2501C20.0512 24.0004 19.8604 23.9213 19.7197 23.7807C19.5791 23.64 19.5001 23.4493 19.5001 23.2504ZM17.2561 21.9694C17.3259 22.039 17.3813 22.1218 17.4191 22.2129C17.4569 22.304 17.4764 22.4017 17.4764 22.5004C17.4764 22.599 17.4569 22.6967 17.4191 22.7878C17.3813 22.8789 17.3259 22.9617 17.2561 23.0314L15.0061 25.2814C14.9364 25.3512 14.8536 25.4066 14.7625 25.4444C14.6714 25.4822 14.5737 25.5017 14.4751 25.5017C14.3764 25.5017 14.2787 25.4822 14.1876 25.4444C14.0965 25.4066 14.0137 25.3512 13.9441 25.2814L13.1941 24.5314C13.1243 24.4616 13.069 24.3788 13.0313 24.2877C12.9935 24.1966 12.9741 24.099 12.9741 24.0004C12.9741 23.9017 12.9935 23.8041 13.0313 23.713C13.069 23.6219 13.1243 23.5391 13.1941 23.4694C13.2638 23.3996 13.3466 23.3443 13.4377 23.3066C13.5288 23.2688 13.6265 23.2494 13.7251 23.2494C13.8237 23.2494 13.9213 23.2688 14.0124 23.3066C14.1036 23.3443 14.1863 23.3996 14.2561 23.4694L14.4751 23.6899L16.1941 21.9694C16.2637 21.8995 16.3465 21.8441 16.4376 21.8063C16.5287 21.7685 16.6264 21.749 16.7251 21.749C16.8237 21.749 16.9214 21.7685 17.0125 21.8063C17.1036 21.8441 17.1864 21.8995 17.2561 21.9694Z" fill="url(#paint1_linear_130_13053)"/>
</g>
<defs>
<linearGradient id="paint0_linear_130_13053" x1="21" y1="12" x2="21" y2="30" gradientUnits="userSpaceOnUse">
<stop stop-color="#FF8331"/>
<stop offset="1" stop-color="#DC5F19"/>
</linearGradient>
<linearGradient id="paint1_linear_130_13053" x1="20.7371" y1="15.749" x2="20.7371" y2="25.5017" gradientUnits="userSpaceOnUse">
<stop stop-color="#FF8331"/>
<stop offset="1" stop-color="#DC5F19"/>
</linearGradient>
<clipPath id="clip0_130_13053">
<rect width="24" height="24" fill="white" transform="translate(9 9)"/>
</clipPath>
</defs>
</svg>
