<svg width="42" height="42" viewBox="0 0 42 42" fill="none" xmlns="http://www.w3.org/2000/svg">
<rect width="42" height="42" rx="21" fill="#FFE0CC"/>
<path d="M20.99 11C15.47 11 11 15.48 11 21C11 26.52 15.47 31 20.99 31C26.52 31 31 26.52 31 21C31 15.48 26.52 11 20.99 11ZM21 29C16.58 29 13 25.42 13 21C13 16.58 16.58 13 21 13C25.42 13 29 16.58 29 21C29 25.42 25.42 29 21 29ZM21.5 16H20V22L25.25 25.15L26 23.92L21.5 21.25V16Z" fill="url(#paint0_linear_130_13063)"/>
<defs>
<linearGradient id="paint0_linear_130_13063" x1="21" y1="11" x2="21" y2="31" gradientUnits="userSpaceOnUse">
<stop stop-color="#FF8331"/>
<stop offset="1" stop-color="#DC5F19"/>
</linearGradient>
</defs>
</svg>
