<svg width="15" height="13" viewBox="0 0 15 13" fill="none" xmlns="http://www.w3.org/2000/svg">
<path d="M0.940985 8.87607L0.0557545 2.9752C0.0394881 2.88032 0.0520259 2.78275 0.0917502 2.69507C0.131474 2.6074 0.196562 2.53363 0.278615 2.4833C0.360667 2.43298 0.455919 2.40839 0.55208 2.41272C0.64824 2.41705 0.740896 2.4501 0.818092 2.5076L3.57569 4.62876C3.64706 4.68377 3.72911 4.7233 3.8166 4.74483C3.90409 4.76636 3.99511 4.76942 4.08386 4.75382C4.1726 4.73821 4.25712 4.70428 4.33202 4.6542C4.40692 4.60411 4.47055 4.53896 4.51887 4.4629L6.81687 0.930976C6.87058 0.844003 6.94564 0.772209 7.03492 0.722416C7.12419 0.672622 7.22471 0.646484 7.32693 0.646484C7.42915 0.646484 7.52967 0.672622 7.61895 0.722416C7.70822 0.772209 7.78328 0.844003 7.83699 0.930976L10.135 4.4629C10.1833 4.53896 10.2469 4.60411 10.3218 4.6542C10.3967 4.70428 10.4813 4.73821 10.57 4.75382C10.6587 4.76942 10.7498 4.76636 10.8373 4.74483C10.9248 4.7233 11.0068 4.68377 11.0782 4.62876L13.8308 2.5076C13.908 2.44999 14.0008 2.41689 14.0971 2.41257C14.1934 2.40825 14.2887 2.43293 14.3708 2.4834C14.4529 2.53387 14.518 2.60781 14.5577 2.69567C14.5973 2.78352 14.6096 2.88124 14.5931 2.9762L13.7079 8.87707L0.940985 8.87607Z" fill="url(#paint0_linear_270_21309)"/>
<path d="M12.789 12.1499H1.86046C1.68562 12.1436 1.52041 12.0682 1.40109 11.9403C1.28176 11.8124 1.21808 11.6423 1.22401 11.4674V9.96875H13.4254V11.4674C13.4313 11.6423 13.3677 11.8124 13.2483 11.9403C13.129 12.0682 12.9638 12.1436 12.789 12.1499Z" fill="url(#paint1_linear_270_21309)"/>
<defs>
<linearGradient id="paint0_linear_270_21309" x1="7.32453" y1="0.646484" x2="7.32453" y2="8.87707" gradientUnits="userSpaceOnUse">
<stop stop-color="#FF8331"/>
<stop offset="1" stop-color="#DC5F19"/>
</linearGradient>
<linearGradient id="paint1_linear_270_21309" x1="7.32471" y1="9.96875" x2="7.32471" y2="12.1499" gradientUnits="userSpaceOnUse">
<stop stop-color="#FF8331"/>
<stop offset="1" stop-color="#DC5F19"/>
</linearGradient>
</defs>
</svg>
