<svg width="40" height="41" viewBox="0 0 40 41" fill="none" xmlns="http://www.w3.org/2000/svg">
<path d="M35.4226 38.1951H4.8276C4.58978 38.1951 4.35428 38.1483 4.13456 38.0573C3.91484 37.9663 3.7152 37.8329 3.54703 37.6647C3.37886 37.4965 3.24547 37.2969 3.15446 37.0772C3.06344 36.8574 3.0166 36.6219 3.0166 36.3841V7.55612C3.0166 7.07581 3.2074 6.61518 3.54703 6.27555C3.88666 5.93592 4.34729 5.74512 4.8276 5.74512H35.4276C35.9079 5.74512 36.3685 5.93592 36.7082 6.27555C37.0478 6.61518 37.2386 7.07581 37.2386 7.55612V36.3881C37.2381 36.626 37.1907 36.8615 37.0991 37.0811C37.0076 37.3007 36.8736 37.5001 36.705 37.6679C36.5363 37.8357 36.3363 37.9686 36.1163 38.0591C35.8962 38.1495 35.6605 38.1958 35.4226 38.1951Z" fill="#F2FDFF"/>
<path d="M36.1466 5.74512H33.9736C34.4539 5.74512 34.9146 5.93592 35.2542 6.27555C35.5938 6.61518 35.7846 7.07581 35.7846 7.55612V36.3881C35.7846 36.8684 35.5938 37.3291 35.2542 37.6687C34.9146 38.0083 34.4539 38.1991 33.9736 38.1991H36.1466C36.6269 38.1991 37.0876 38.0083 37.4272 37.6687C37.7668 37.3291 37.9576 36.8684 37.9576 36.3881V7.55612C37.9576 7.07581 37.7668 6.61518 37.4272 6.27555C37.0876 5.93592 36.6269 5.74512 36.1466 5.74512Z" fill="#D3ECF5"/>
<path d="M35.4226 5.74512H34.4226L32.7036 6.46912L30.9846 5.74512H23.6546L21.9356 6.46912L20.2166 5.74512H12.8896L11.1706 6.46912L9.4516 5.74512H4.8276C4.34729 5.74512 3.88666 5.93592 3.54703 6.27555C3.2074 6.61518 3.0166 7.07581 3.0166 7.55612V13.5561H37.2336V7.55612C37.2336 7.07581 37.0428 6.61518 36.7032 6.27555C36.3635 5.93592 35.9029 5.74512 35.4226 5.74512Z" fill="#ED6479"/>
<path d="M36.1466 5.74512H33.9736C34.4539 5.74512 34.9146 5.93592 35.2542 6.27555C35.5938 6.61518 35.7846 7.07581 35.7846 7.55612V13.5561H37.9576V7.55612C37.9576 7.07581 37.7668 6.61518 37.4272 6.27555C37.0876 5.93592 36.6269 5.74512 36.1466 5.74512Z" fill="#D65461"/>
<path d="M32.7014 9.29512C33.1573 9.29512 33.5945 9.11401 33.9169 8.79163C34.2393 8.46926 34.4204 8.03202 34.4204 7.57611V5.74512H30.9834V7.57212C30.9829 7.79811 31.0269 8.02199 31.113 8.23095C31.1991 8.4399 31.3255 8.62983 31.4851 8.78987C31.6447 8.9499 31.8342 9.0769 32.0429 9.1636C32.2516 9.25029 32.4754 9.29499 32.7014 9.29512Z" fill="#D65461"/>
<path d="M21.9368 9.29512C22.3927 9.29512 22.8299 9.11401 23.1523 8.79163C23.4746 8.46926 23.6558 8.03202 23.6558 7.57611V5.74512H20.2188V7.57212C20.2182 7.79811 20.2623 8.02199 20.3484 8.23095C20.4345 8.4399 20.5609 8.62983 20.7205 8.78987C20.88 8.9499 21.0696 9.0769 21.2783 9.1636C21.487 9.25029 21.7108 9.29499 21.9368 9.29512Z" fill="#D65461"/>
<path d="M11.1711 9.29512C11.3974 9.29538 11.6215 9.25098 11.8305 9.16446C12.0396 9.07794 12.2295 8.951 12.3894 8.79093C12.5493 8.63085 12.676 8.44079 12.7623 8.23164C12.8485 8.02249 12.8927 7.79836 12.8921 7.57212V5.74512H9.45215V7.57212C9.45163 7.7982 9.4957 8.02216 9.58185 8.23118C9.66801 8.4402 9.79454 8.63017 9.95421 8.79022C10.1139 8.95027 10.3036 9.07725 10.5124 9.16388C10.7212 9.25052 10.9451 9.29512 11.1711 9.29512Z" fill="#D65461"/>
<path d="M20.4875 9.29022C20.0316 9.29022 19.5944 9.10911 19.272 8.78674C18.9497 8.46436 18.7686 8.02713 18.7686 7.57122V3.91822C18.7686 3.46231 18.9497 3.02508 19.272 2.7027C19.5944 2.38033 20.0316 2.19922 20.4875 2.19922C20.7095 2.20067 20.9289 2.24668 21.1327 2.33451C21.3366 2.42233 21.5207 2.55019 21.6742 2.7105C21.8277 2.87082 21.9475 3.06032 22.0264 3.26777C22.1053 3.47523 22.1417 3.69642 22.1336 3.91822V7.57222C22.1416 7.79394 22.105 8.01502 22.0261 8.22236C21.9471 8.4297 21.8273 8.61908 21.6738 8.77928C21.5204 8.93949 21.3363 9.06726 21.1325 9.15502C20.9287 9.24278 20.7094 9.28876 20.4875 9.29022Z" fill="#9DC6FB"/>
<path d="M9.7229 9.29022C9.26717 9.29022 8.83008 9.10925 8.50774 8.78709C8.18539 8.46493 8.00417 8.02795 8.00391 7.57222V3.91822C8.00391 3.46231 8.18501 3.02508 8.50739 2.7027C8.82976 2.38033 9.26699 2.19922 9.7229 2.19922C9.94485 2.20067 10.1642 2.24668 10.3681 2.33451C10.5719 2.42233 10.7561 2.55019 10.9096 2.7105C11.0631 2.87082 11.1828 3.06032 11.2617 3.26777C11.3406 3.47523 11.3771 3.69642 11.3689 3.91822V7.57222C11.3769 7.79394 11.3404 8.01502 11.2614 8.22236C11.1825 8.4297 11.0627 8.61908 10.9092 8.77928C10.7557 8.93949 10.5716 9.06726 10.3678 9.15502C10.1641 9.24278 9.94476 9.28876 9.7229 9.29022Z" fill="#9DC6FB"/>
<path d="M31.2522 9.29022C30.7963 9.29022 30.3591 9.10911 30.0367 8.78674C29.7143 8.46436 29.5332 8.02713 29.5332 7.57122V3.91822C29.5332 3.46231 29.7143 3.02508 30.0367 2.7027C30.3591 2.38033 30.7963 2.19922 31.2522 2.19922C31.4741 2.20067 31.6936 2.24668 31.8974 2.33451C32.1012 2.42233 32.2854 2.55019 32.4389 2.7105C32.5924 2.87082 32.7121 3.06032 32.791 3.26777C32.8699 3.47523 32.9064 3.69642 32.8982 3.91822V7.57222C32.9062 7.79394 32.8697 8.01502 32.7907 8.22236C32.7117 8.4297 32.592 8.61908 32.4385 8.77928C32.285 8.93949 32.1009 9.06726 31.8972 9.15502C31.6934 9.24278 31.4741 9.28876 31.2522 9.29022Z" fill="#9DC6FB"/>
<path d="M31.2527 2.19922C31.0421 2.19903 30.8333 2.23768 30.6367 2.31322C30.96 2.43799 31.2379 2.65752 31.4342 2.94304C31.6305 3.22856 31.736 3.56673 31.7367 3.91322V7.57222C31.736 7.9187 31.6305 8.25688 31.4342 8.5424C31.2379 8.82792 30.96 9.04745 30.6367 9.17222C30.8966 9.2718 31.1768 9.30678 31.4533 9.27414C31.7297 9.2415 31.9941 9.14222 32.2237 8.98484C32.4532 8.82745 32.6412 8.61667 32.7713 8.37061C32.9014 8.12455 32.9699 7.85057 32.9707 7.57222V3.91822C32.9707 3.46249 32.7897 3.0254 32.4676 2.70306C32.1454 2.38071 31.7084 2.19948 31.2527 2.19922Z" fill="#80B4FB"/>
<path d="M20.4881 2.19922C20.2775 2.19903 20.0687 2.23768 19.8721 2.31322C20.1953 2.43799 20.4733 2.65752 20.6696 2.94304C20.8659 3.22856 20.9713 3.56673 20.9721 3.91322V7.57222C20.9713 7.9187 20.8659 8.25688 20.6696 8.5424C20.4733 8.82792 20.1953 9.04745 19.8721 9.17222C20.132 9.2718 20.4122 9.30678 20.6886 9.27414C20.9651 9.2415 21.2294 9.14222 21.459 8.98484C21.6886 8.82745 21.8765 8.61667 22.0067 8.37061C22.1368 8.12455 22.2052 7.85057 22.2061 7.57222V3.91822C22.2061 3.46249 22.0251 3.0254 21.7029 2.70306C21.3808 2.38071 20.9438 2.19948 20.4881 2.19922Z" fill="#80B4FB"/>
<path d="M9.71951 2.19922C9.50892 2.19903 9.3001 2.23768 9.10352 2.31322C9.42676 2.43799 9.70475 2.65752 9.90105 2.94304C10.0973 3.22856 10.2028 3.56673 10.2035 3.91322V7.57222C10.2028 7.9187 10.0973 8.25688 9.90105 8.5424C9.70475 8.82792 9.42676 9.04745 9.10352 9.17222C9.36344 9.2718 9.64366 9.30678 9.92009 9.27414C10.1965 9.2415 10.4609 9.14222 10.6905 8.98484C10.9201 8.82745 11.108 8.61667 11.2381 8.37061C11.3682 8.12455 11.4367 7.85057 11.4375 7.57222V3.91822C11.4375 3.46249 11.2565 3.0254 10.9344 2.70306C10.6122 2.38071 10.1752 2.19948 9.71951 2.19922Z" fill="#80B4FB"/>
<path d="M34.0674 24.265H28.1974C28.1473 24.265 28.0976 24.2551 28.0512 24.2359C28.0049 24.2167 27.9628 24.1885 27.9273 24.1531C27.8918 24.1176 27.8637 24.0755 27.8445 24.0291C27.8253 23.9828 27.8154 23.9331 27.8154 23.8829V18.009C27.8154 17.9076 27.8557 17.8105 27.9273 17.7388C27.9989 17.6672 28.0961 17.627 28.1974 17.627H34.0714C34.1727 17.627 34.2699 17.6672 34.3415 17.7388C34.4132 17.8105 34.4534 17.9076 34.4534 18.009V23.8829C34.4534 23.9335 34.4434 23.9835 34.424 24.0301C34.4045 24.0767 34.376 24.119 34.3401 24.1545C34.3042 24.19 34.2617 24.2181 34.2148 24.237C34.168 24.256 34.1179 24.2655 34.0674 24.265Z" fill="#ED6479"/>
<path d="M23.424 34.221H17.55C17.4486 34.221 17.3515 34.1808 17.2798 34.1091C17.2082 34.0375 17.168 33.9403 17.168 33.839V27.965C17.168 27.8637 17.2082 27.7665 17.2798 27.6949C17.3515 27.6232 17.4486 27.583 17.55 27.583H23.424C23.5253 27.583 23.6224 27.6232 23.6941 27.6949C23.7657 27.7665 23.806 27.8637 23.806 27.965V33.839C23.806 33.9403 23.7657 34.0375 23.6941 34.1091C23.6224 34.1808 23.5253 34.221 23.424 34.221Z" fill="#ED6479"/>
<path d="M12.7814 34.221H6.90739C6.80608 34.221 6.70891 34.1808 6.63728 34.1091C6.56564 34.0375 6.52539 33.9403 6.52539 33.839V27.965C6.52539 27.8637 6.56564 27.7665 6.63728 27.6949C6.70891 27.6232 6.80608 27.583 6.90739 27.583H12.7814C12.8827 27.583 12.9799 27.6232 13.0515 27.6949C13.1231 27.7665 13.1634 27.8637 13.1634 27.965V33.839C13.1634 33.8892 13.1535 33.9389 13.1343 33.9852C13.1151 34.0315 13.087 34.0737 13.0515 34.1091C13.016 34.1446 12.9739 34.1727 12.9276 34.1919C12.8812 34.2111 12.8316 34.221 12.7814 34.221Z" fill="#ED6479"/>
<path d="M34.0674 34.221H28.1974C28.0961 34.221 27.9989 34.1808 27.9273 34.1091C27.8557 34.0375 27.8154 33.9403 27.8154 33.839V27.965C27.8154 27.8637 27.8557 27.7665 27.9273 27.6949C27.9989 27.6232 28.0961 27.583 28.1974 27.583H34.0714C34.1727 27.583 34.2699 27.6232 34.3415 27.6949C34.4132 27.7665 34.4534 27.8637 34.4534 27.965V33.839C34.4534 33.8895 34.4434 33.9395 34.424 33.9861C34.4045 34.0327 34.376 34.075 34.3401 34.1105C34.3042 34.1461 34.2617 34.1741 34.2148 34.1931C34.168 34.212 34.1179 34.2215 34.0674 34.221Z" fill="#ED6479"/>
<path d="M23.4249 24.265H17.5509C17.5008 24.265 17.4511 24.2551 17.4048 24.2359C17.3584 24.2167 17.3163 24.1885 17.2808 24.1531C17.2454 24.1176 17.2172 24.0755 17.198 24.0291C17.1788 23.9828 17.1689 23.9331 17.1689 23.8829V18.009C17.1689 17.9076 17.2092 17.8105 17.2808 17.7388C17.3525 17.6672 17.4496 17.627 17.5509 17.627H23.4249C23.5263 17.627 23.6234 17.6672 23.6951 17.7388C23.7667 17.8105 23.8069 17.9076 23.8069 18.009V23.8829C23.8069 23.9331 23.7971 23.9828 23.7779 24.0291C23.7587 24.0755 23.7305 24.1176 23.6951 24.1531C23.6596 24.1885 23.6175 24.2167 23.5711 24.2359C23.5248 24.2551 23.4751 24.265 23.4249 24.265Z" fill="#F9D065"/>
<path d="M12.7814 24.265H6.90739C6.85723 24.265 6.80755 24.2551 6.76121 24.2359C6.71486 24.2167 6.67275 24.1885 6.63728 24.1531C6.6018 24.1176 6.57367 24.0755 6.55447 24.0291C6.53527 23.9828 6.52539 23.9331 6.52539 23.8829V18.009C6.52539 17.9076 6.56564 17.8105 6.63728 17.7388C6.70891 17.6672 6.80608 17.627 6.90739 17.627H12.7814C12.8827 17.627 12.9799 17.6672 13.0515 17.7388C13.1231 17.8105 13.1634 17.9076 13.1634 18.009V23.8829C13.1634 23.9331 13.1535 23.9828 13.1343 24.0291C13.1151 24.0755 13.087 24.1176 13.0515 24.1531C13.016 24.1885 12.9739 24.2167 12.9276 24.2359C12.8812 24.2551 12.8316 24.265 12.7814 24.265Z" fill="#F9D065"/>
<path d="M13.8528 18.4171L10.5648 21.7271L9.37476 20.5582C9.32387 20.5082 9.26364 20.4687 9.1975 20.442C9.13137 20.4153 9.06062 20.4019 8.9893 20.4026C8.91799 20.4032 8.8475 20.4179 8.78186 20.4458C8.71622 20.4737 8.65672 20.5143 8.60675 20.5652C8.55678 20.616 8.51733 20.6763 8.49064 20.7424C8.46395 20.8085 8.45054 20.8793 8.45119 20.9506C8.45184 21.0219 8.46654 21.0924 8.49443 21.158C8.52232 21.2237 8.56287 21.2832 8.61375 21.3331L10.1888 22.8812C10.2905 22.9824 10.4282 23.0392 10.5718 23.0392C10.7153 23.0392 10.853 22.9824 10.9547 22.8812L14.6238 19.1872C14.6741 19.1365 14.7139 19.0765 14.741 19.0105C14.7681 18.9445 14.7819 18.8737 14.7817 18.8024C14.7814 18.731 14.7671 18.6604 14.7396 18.5946C14.7121 18.5287 14.6719 18.469 14.6213 18.4187C14.5706 18.3684 14.5106 18.3285 14.4446 18.3014C14.3786 18.2743 14.3078 18.2605 14.2365 18.2607C14.1651 18.261 14.0945 18.2753 14.0287 18.3028C13.9628 18.3303 13.903 18.3705 13.8528 18.4211V18.4171Z" fill="#9DC6FB"/>
<path d="M25.7516 18.414C25.7012 18.3635 25.6413 18.3235 25.5754 18.2962C25.5096 18.2689 25.4389 18.2549 25.3676 18.2549C25.2963 18.2549 25.2257 18.2689 25.1598 18.2962C25.0939 18.3235 25.034 18.3635 24.9836 18.414L21.6956 21.724L20.5056 20.555C20.4029 20.4541 20.2642 20.3981 20.1202 20.3994C19.9761 20.4007 19.8385 20.4592 19.7376 20.562C19.6367 20.6647 19.5807 20.8034 19.5821 20.9474C19.5834 21.0914 19.6418 21.2291 19.7446 21.33L21.3196 22.878C21.4214 22.9792 21.5591 23.0361 21.7026 23.0361C21.8462 23.0361 21.9839 22.9792 22.0856 22.878L25.7546 19.184C25.8052 19.1333 25.8452 19.0732 25.8724 19.007C25.8996 18.9408 25.9135 18.8699 25.9132 18.7984C25.9129 18.7268 25.8985 18.656 25.8708 18.59C25.8431 18.5241 25.8026 18.4642 25.7516 18.414Z" fill="#9DC6FB"/>
</svg>
