<svg width="23" height="24" viewBox="0 0 23 24" fill="none" xmlns="http://www.w3.org/2000/svg">
<path d="M2.81208 0.987598C2.47927 1.11885 2.13708 1.46104 2.01052 1.80322C1.92146 2.04697 1.91208 2.15947 1.91208 3.34541V4.6251L1.6449 4.68135C1.12458 4.78447 0.64646 5.0751 0.47771 5.39854C0.393335 5.5626 0.393335 5.96572 0.47771 6.12979C0.64646 6.45322 1.12458 6.74385 1.6449 6.84697L1.91208 6.90322V7.26416V7.6251L1.6449 7.68135C1.12458 7.78447 0.64646 8.0751 0.47771 8.39854C0.393335 8.5626 0.393335 8.96572 0.47771 9.12979C0.64646 9.45322 1.12458 9.74385 1.6449 9.84697L1.91208 9.90322V10.2642V10.6251L1.6449 10.6813C1.12458 10.7845 0.64646 11.0751 0.47771 11.3985C0.393335 11.5626 0.393335 11.9657 0.47771 12.1298C0.64646 12.4532 1.12458 12.7438 1.6449 12.847L1.91208 12.9032V13.2642V13.6251L1.64021 13.6813C1.12458 13.7845 0.64646 14.0751 0.47771 14.3985C0.393335 14.5626 0.393335 14.9657 0.47771 15.1298C0.64646 15.4532 1.12458 15.7438 1.6449 15.847L1.91208 15.9032V16.2642V16.6251L1.6449 16.6813C1.12458 16.7845 0.64646 17.0751 0.47771 17.3985C0.393335 17.5626 0.393335 17.9657 0.47771 18.1298C0.64646 18.4532 1.12458 18.7438 1.6449 18.847L1.91208 18.9032V19.2642V19.6251L1.64021 19.6813C1.12458 19.7845 0.64646 20.0751 0.47771 20.3985C0.393335 20.5626 0.393335 20.9657 0.47771 21.1298C0.64646 21.4532 1.12458 21.7438 1.6449 21.847L1.91208 21.9032V22.5501C1.91208 23.1407 1.92146 23.211 2.00583 23.2954C2.09958 23.3892 2.16052 23.3892 10.1621 23.3892C18.1636 23.3892 18.2246 23.3892 18.3183 23.2954C18.4121 23.2017 18.4121 23.1407 18.4121 18.7157V14.2251L20.634 11.9985C22.8371 9.79541 22.8605 9.76729 22.9355 9.49541C23.0293 9.17666 23.0058 8.89072 22.8652 8.6001C22.809 8.48291 22.4715 8.1126 22.0308 7.67666C21.3652 7.02041 21.2668 6.94072 21.0418 6.87041C20.723 6.77666 20.6011 6.77666 20.2824 6.87041C20.0527 6.94072 19.9543 7.02041 19.223 7.74697L18.4121 8.54854V4.8126C18.4121 1.1376 18.4121 1.07666 18.3183 0.982912C18.2246 0.889162 18.1636 0.889162 10.6449 0.893848C3.13552 0.893848 3.05583 0.893848 2.81208 0.987598ZM17.6621 2.38916V3.13916L10.4574 3.12979C3.28083 3.11572 3.24802 3.11572 3.08396 3.01729C2.49333 2.6751 2.6199 1.84072 3.28552 1.68604C3.36521 1.6626 6.63708 1.64854 10.5511 1.64385L17.6621 1.63916V2.38916ZM2.89646 3.81885C3.04646 3.87041 3.31833 3.88916 4.00271 3.88916H4.91208V13.2642V22.6392H3.78708H2.66208V22.2688V21.9032L2.93396 21.847C3.44958 21.7438 3.92771 21.4532 4.09646 21.1298C4.1949 20.9376 4.18083 20.5954 4.06833 20.4829C3.87146 20.286 3.41208 20.4126 3.41208 20.661C3.41208 20.811 3.15896 20.9751 2.79333 21.0642L2.66208 21.0923V19.9954V18.9032L2.93396 18.847C3.44958 18.7438 3.92771 18.4532 4.09646 18.1298C4.1949 17.9376 4.18083 17.5954 4.06833 17.4829C3.87146 17.286 3.41208 17.4126 3.41208 17.661C3.41208 17.811 3.15896 17.9751 2.79333 18.0642L2.66208 18.0923V16.9954V15.9032L2.93396 15.847C3.44958 15.7438 3.92771 15.4532 4.09646 15.1298C4.1949 14.9376 4.18083 14.5954 4.06833 14.4829C3.87146 14.286 3.41208 14.4126 3.41208 14.661C3.41208 14.811 3.15896 14.9751 2.79333 15.0642L2.66208 15.0923V13.9954V12.9032L2.93396 12.847C3.44958 12.7438 3.92771 12.4532 4.09646 12.1298C4.1949 11.9376 4.18083 11.5954 4.06833 11.4829C3.87146 11.286 3.41208 11.4126 3.41208 11.661C3.41208 11.811 3.15896 11.9751 2.79333 12.0642L2.66208 12.0923V10.9954V9.90322L2.93396 9.84697C3.44958 9.74385 3.92771 9.45322 4.09646 9.12979C4.1949 8.9376 4.18083 8.59541 4.06833 8.48291C3.87146 8.28604 3.41208 8.4126 3.41208 8.66104C3.41208 8.81104 3.15896 8.9751 2.79333 9.06416L2.66208 9.09229V7.99541V6.90322L2.93396 6.84697C3.44958 6.74385 3.92771 6.45322 4.09646 6.12979C4.1949 5.9376 4.18083 5.59541 4.06833 5.48291C3.87146 5.28604 3.41208 5.4126 3.41208 5.66104C3.41208 5.81104 3.15896 5.9751 2.79333 6.06416L2.66208 6.09229V4.92041C2.66208 4.27822 2.67146 3.74854 2.68083 3.74854C2.69021 3.74854 2.78865 3.78135 2.89646 3.81885ZM17.6621 6.59385V9.30322L16.9965 9.96885L16.3261 10.6392H10.9965H5.66208V9.88916V9.13916H8.94333C12.1636 9.13916 12.2246 9.13916 12.3183 9.04541C12.3793 8.98447 12.4121 8.89072 12.4121 8.76416C12.4121 8.6376 12.3793 8.54385 12.3183 8.48291C12.2246 8.38916 12.1636 8.38916 8.94333 8.38916H5.66208V6.13916V3.88916H11.6621H17.6621V6.59385ZM1.91208 5.76416V6.09229L1.78552 6.06416C1.58396 6.01729 1.2699 5.87666 1.2324 5.81104C1.18083 5.72666 1.31208 5.62354 1.59333 5.5251C1.72927 5.47822 1.85583 5.44072 1.87927 5.43604C1.89802 5.43604 1.91208 5.58604 1.91208 5.76416ZM21.4918 8.30947C22.0121 8.8251 22.209 9.05479 22.209 9.13447C22.209 9.20947 22.0824 9.37354 21.8105 9.6501L21.4121 10.0532L20.5824 9.21885L19.748 8.38916L20.1511 7.99072C20.4277 7.71885 20.5918 7.59229 20.6668 7.59229C20.7465 7.59229 20.9761 7.78916 21.4918 8.30947ZM1.91208 8.76416V9.09229L1.78552 9.06416C1.58396 9.01729 1.2699 8.87666 1.2324 8.81104C1.18083 8.72666 1.31208 8.62354 1.59333 8.5251C1.72927 8.47822 1.85583 8.44072 1.87927 8.43604C1.89802 8.43604 1.91208 8.58604 1.91208 8.76416ZM20.0058 9.81885L20.8261 10.6392L20.5543 10.9063L20.2871 11.1782L19.4574 10.3485L18.623 9.51416L18.8808 9.25635C19.0215 9.11572 19.148 8.99854 19.1621 8.99854C19.1761 8.99854 19.5558 9.36885 20.0058 9.81885ZM18.3183 10.3813L18.5761 10.6392L15.3886 13.8267L12.2011 17.0142H11.6621H11.123L14.5683 13.5688C16.4621 11.6751 18.023 10.1235 18.0371 10.1235C18.0511 10.1235 18.1777 10.2407 18.3183 10.3813ZM19.4433 11.5063L19.7011 11.7642L16.2558 15.2095L12.8105 18.6548L12.7965 18.1298L12.7824 17.6048L15.9605 14.4267C17.709 12.6782 19.148 11.2485 19.1621 11.2485C19.1761 11.2485 19.3027 11.3657 19.4433 11.5063ZM14.8261 12.1392L14.0761 12.8892H12.2152C10.4105 12.8892 10.3449 12.8938 10.2558 12.9829C10.1949 13.0438 10.1621 13.1376 10.1621 13.2642C10.1621 13.3907 10.1949 13.4845 10.2558 13.5454C10.3449 13.6345 10.4105 13.6392 11.8355 13.6392H13.3261L11.559 15.4063C10.059 16.911 9.79177 17.2017 9.76365 17.3423C9.66052 17.9517 9.41208 19.8313 9.41208 19.9954C9.41208 20.272 9.52927 20.3892 9.80583 20.3892C9.9699 20.3892 11.8355 20.1407 12.459 20.0376C12.5996 20.0095 12.984 19.6485 15.1449 17.4923L17.6621 14.9751V18.8095V22.6392H11.6621H5.66208V19.2642V15.8892H8.00583C10.2886 15.8892 10.3543 15.8845 10.4433 15.7954C10.5699 15.6688 10.5699 15.3595 10.4433 15.2329C10.3543 15.1438 10.2886 15.1392 8.00583 15.1392H5.66208V14.3892V13.6392H7.44333C9.16365 13.6392 9.22927 13.6345 9.31833 13.5454C9.37927 13.4845 9.41208 13.3907 9.41208 13.2642C9.41208 13.1376 9.37927 13.0438 9.31833 12.9829C9.22927 12.8938 9.16365 12.8892 7.44333 12.8892H5.66208V12.1392V11.3892H10.6168H15.5761L14.8261 12.1392ZM1.91208 11.7642V12.0923L1.78552 12.0642C1.58396 12.0173 1.2699 11.8767 1.2324 11.811C1.18083 11.7267 1.31208 11.6235 1.59333 11.5251C1.72927 11.4782 1.85583 11.4407 1.87927 11.436C1.89802 11.436 1.91208 11.586 1.91208 11.7642ZM1.91208 14.7642V15.0923L1.78552 15.0642C1.58396 15.0173 1.2699 14.8767 1.2324 14.811C1.18083 14.7267 1.31208 14.6235 1.59333 14.5251C1.72927 14.4782 1.85583 14.4407 1.87927 14.436C1.89802 14.436 1.91208 14.586 1.91208 14.7642ZM1.91208 17.7642V18.0923L1.78552 18.0642C1.58396 18.0173 1.2699 17.8767 1.2324 17.811C1.18083 17.7267 1.31208 17.6235 1.59333 17.5251C1.72927 17.4782 1.85583 17.4407 1.87927 17.436C1.89802 17.436 1.91208 17.586 1.91208 17.7642ZM12.0371 18.5282V19.2923L11.1605 19.4142C10.673 19.4845 10.2746 19.536 10.2699 19.5313C10.2652 19.5267 10.3168 19.1282 10.3871 18.6407L10.509 17.7642H11.273H12.0371V18.5282ZM1.91208 20.7642V21.0923L1.78552 21.0642C1.58396 21.0173 1.2699 20.8767 1.2324 20.811C1.18083 20.7267 1.31208 20.6235 1.59333 20.5251C1.72927 20.4782 1.85583 20.4407 1.87927 20.436C1.89802 20.436 1.91208 20.586 1.91208 20.7642Z" fill="url(#paint0_linear_130_9595)"/>
<defs>
<linearGradient id="paint0_linear_130_9595" x1="11.7031" y1="23.3892" x2="11.7031" y2="0.892292" gradientUnits="userSpaceOnUse">
<stop stop-color="#FF8331"/>
<stop offset="1" stop-color="#DC5F19"/>
</linearGradient>
</defs>
</svg>
