<svg width="19" height="26" viewBox="0 0 19 26" fill="none" xmlns="http://www.w3.org/2000/svg">
<path d="M1.07309 0.119921C0.746139 0.235937 0.398092 0.610352 0.297897 0.947851C0.229342 1.19043 0.218795 2.60898 0.229342 13.0557C0.245162 24.6994 0.245162 24.8998 0.350631 25.1055C0.503561 25.4219 0.825241 25.7014 1.1311 25.791C1.36313 25.8596 2.44419 25.8701 9.50005 25.8701C16.5559 25.8701 17.637 25.8596 17.869 25.791C18.1749 25.7014 18.4965 25.4219 18.6495 25.1055C18.7549 24.8998 18.7549 24.71 18.7707 15.0859L18.7813 5.27734L16.1551 2.65644L13.5342 0.0302734L7.41704 0.0355473C2.11196 0.0355473 1.26821 0.0513668 1.07309 0.119921ZM13.0965 2.78828L13.1124 4.86601L13.2706 5.12441C13.3707 5.28262 13.529 5.44082 13.6872 5.54102L13.9456 5.69922L16.0233 5.71504L18.0957 5.73086V15.223C18.0957 23.9189 18.0905 24.7311 18.0114 24.8682C17.8057 25.2109 18.4649 25.1846 9.50005 25.1846C0.535202 25.1846 1.19438 25.2109 0.988717 24.8682C0.909616 24.7311 0.904342 23.7502 0.904342 12.9502C0.904342 2.18711 0.909616 1.16934 0.988717 1.0375C1.18911 0.694727 0.761959 0.721094 7.21665 0.71582H13.0807L13.0965 2.78828ZM15.9547 5.08223C14.0932 5.09805 14.0879 5.09277 13.8401 4.72363C13.7188 4.55488 13.7188 4.52851 13.7188 2.85684V1.16406L15.67 3.11523L17.6211 5.06641L15.9547 5.08223Z" fill="white"/>
<path d="M3.47774 7.24984C2.09083 7.70335 1.4211 9.29066 2.04864 10.6196C2.23321 11.0151 2.78692 11.5688 3.18243 11.7534C4.40587 12.3334 5.84552 11.8166 6.4256 10.5932C6.59962 10.2346 6.62599 10.1239 6.64181 9.70199C6.66817 9.16937 6.5838 8.77914 6.35177 8.35199C6.15138 7.98285 5.66095 7.53988 5.24435 7.35003C4.92794 7.20765 4.8172 7.18128 4.33204 7.16546C3.89435 7.15492 3.71505 7.17074 3.47774 7.24984ZM4.94903 7.96703C5.60294 8.26234 5.9879 8.85824 5.9879 9.57542C5.99317 9.90765 5.96681 10.0237 5.84024 10.2821C5.53438 10.9096 5.00704 11.2629 4.33204 11.3051C3.77833 11.3368 3.40919 11.1891 3.00841 10.7936C2.60763 10.3928 2.46524 10.0237 2.49688 9.46468C2.52325 8.9848 2.67091 8.6473 2.99259 8.32562C3.53048 7.78773 4.26349 7.65062 4.94903 7.96703Z" fill="white"/>
<path d="M3.82059 8.35713C3.53582 8.53643 3.40399 8.94248 3.5411 9.21143C3.65711 9.42237 4.12117 9.29581 4.12117 9.04795C4.12117 8.92139 4.2161 8.85811 4.2952 8.93721C4.33739 8.9794 4.31102 9.04268 4.18973 9.16397C3.89442 9.48038 3.82059 9.79678 4.00516 9.96026C4.195 10.1343 4.54305 10.0499 4.54305 9.8337C4.54305 9.78096 4.6116 9.69131 4.69598 9.63331C4.89637 9.48565 5.04403 9.11651 4.99656 8.86338C4.97547 8.75791 4.88055 8.58389 4.78563 8.47842C4.62742 8.30967 4.57996 8.28858 4.30047 8.27276C4.05789 8.25694 3.95242 8.27276 3.82059 8.35713Z" fill="white"/>
<path d="M4.12113 10.2445C3.89964 10.3236 3.84164 10.6136 4.01566 10.7876C4.23187 11.0038 4.543 10.8562 4.543 10.5345C4.543 10.3025 4.34261 10.1654 4.12113 10.2445Z" fill="white"/>
<path d="M7.49599 7.78223C7.35888 7.91934 7.36415 8.10918 7.50126 8.23574C7.60673 8.33066 7.76493 8.33594 12.2948 8.33594C16.8247 8.33594 16.9829 8.33066 17.0884 8.23574C17.2255 8.10918 17.2308 7.91934 17.0936 7.78223C16.9882 7.67676 16.9196 7.67676 12.2948 7.67676C7.67001 7.67676 7.60145 7.67676 7.49599 7.78223Z" fill="white"/>
<path d="M7.6543 9.24297C7.39063 9.34316 7.31153 9.60156 7.4961 9.78613C7.60157 9.8916 7.67012 9.8916 12.2949 9.8916C16.9197 9.8916 16.9883 9.8916 17.0938 9.78613C17.2309 9.64902 17.2256 9.45918 17.0885 9.33262C16.983 9.2377 16.8195 9.23242 12.3529 9.22188C9.81114 9.2166 7.69649 9.22715 7.6543 9.24297Z" fill="white"/>
<path d="M7.47488 10.9041C7.36414 11.0623 7.36941 11.2258 7.48543 11.3312C7.57508 11.4104 7.83348 11.4209 10.0905 11.4209C12.4477 11.4209 12.6007 11.4156 12.6798 11.326C12.7958 11.1994 12.7905 10.9832 12.6745 10.8777C12.5848 10.7986 12.3264 10.7881 10.0641 10.7881H7.55399L7.47488 10.9041Z" fill="white"/>
<path d="M3.5094 13.0553C2.29651 13.4402 1.59515 14.6637 1.87464 15.9082C2.22269 17.4639 3.91546 18.2496 5.34983 17.5271C7.29573 16.5516 6.98987 13.5773 4.88577 13.0342C4.4639 12.9234 3.90491 12.934 3.5094 13.0553ZM4.60101 13.6564C4.76976 13.6933 5.00706 13.7883 5.1389 13.8621C5.893 14.3051 6.2094 15.2965 5.84554 16.0875C5.43948 16.9629 4.39534 17.3689 3.55687 16.984C3.18772 16.8152 2.84495 16.4935 2.65511 16.1402C2.52854 15.9082 2.51272 15.8185 2.51272 15.3756C2.51272 14.9326 2.52854 14.843 2.65511 14.6109C2.91878 14.1047 3.38812 13.7408 3.91546 13.6406C4.24241 13.5773 4.26878 13.5773 4.60101 13.6564Z" fill="white"/>
<path d="M3.87337 14.1419C3.48313 14.337 3.3513 14.9382 3.66243 15.1122C3.78899 15.1808 3.82063 15.1808 3.95247 15.1122C4.03157 15.0647 4.10012 14.9804 4.11067 14.9171C4.13704 14.7536 4.26887 14.6534 4.31106 14.7642C4.33216 14.8222 4.29524 14.8907 4.20559 14.9593C3.83645 15.2493 3.80481 15.7872 4.15286 15.8716C4.30579 15.9138 4.54309 15.7872 4.54309 15.6712C4.54309 15.629 4.63274 15.4972 4.74876 15.3812C4.98079 15.1386 5.04934 14.896 4.97024 14.5954C4.84368 14.1419 4.31634 13.9257 3.87337 14.1419Z" fill="white"/>
<path d="M3.99452 16.1459C3.8785 16.2566 3.88905 16.4992 4.00506 16.6047C4.12635 16.7154 4.35311 16.7207 4.45858 16.61C4.55877 16.515 4.56932 16.2145 4.47967 16.1248C4.39002 16.0352 4.08944 16.0457 3.99452 16.1459Z" fill="white"/>
<path d="M7.49609 13.583C7.43809 13.641 7.39062 13.7465 7.39062 13.8203C7.39062 13.8941 7.43809 13.9996 7.49609 14.0576C7.60156 14.1631 7.67012 14.1631 12.2949 14.1631C16.9197 14.1631 16.9883 14.1631 17.0938 14.0576C17.1518 13.9996 17.1992 13.8941 17.1992 13.8203C17.1992 13.7465 17.1518 13.641 17.0938 13.583C16.9883 13.4775 16.9197 13.4775 12.2949 13.4775C7.67012 13.4775 7.60156 13.4775 7.49609 13.583Z" fill="white"/>
<path d="M7.48027 15.1545C7.36953 15.2758 7.36426 15.4234 7.475 15.5764L7.5541 15.6924H12.2949H17.0357L17.1148 15.5764C17.2256 15.4182 17.2203 15.2547 17.1043 15.1492C17.0146 15.0648 16.6033 15.0596 12.2844 15.0596C7.78086 15.0596 7.55937 15.0648 7.48027 15.1545Z" fill="white"/>
<path d="M7.49607 16.6943C7.37478 16.8156 7.35896 17.0002 7.46443 17.1479C7.53826 17.2428 7.62791 17.248 10.0801 17.248C12.5322 17.248 12.6219 17.2428 12.6957 17.1479C12.8011 17.0002 12.7853 16.8156 12.664 16.6943C12.5638 16.5941 12.49 16.5889 10.0801 16.5889C7.67009 16.5889 7.59627 16.5941 7.49607 16.6943Z" fill="white"/>
<path d="M3.66236 18.8248C2.4442 19.1359 1.64791 20.3172 1.83775 21.5459C1.96431 22.358 2.46002 23.0225 3.20884 23.3811C3.60963 23.5709 3.63599 23.5762 4.22662 23.5762C4.73287 23.5762 4.88052 23.5551 5.13892 23.4549C5.71373 23.2229 6.27271 22.6639 6.50474 22.0891C6.67349 21.6514 6.67877 20.7074 6.50474 20.2803C6.26744 19.6844 5.70845 19.1412 5.08619 18.9092C4.7065 18.7668 4.03677 18.7299 3.66236 18.8248ZM4.99127 19.5947C5.33931 19.7635 5.68209 20.1168 5.85084 20.4807C5.96158 20.718 5.98795 20.8604 5.99322 21.1768C5.99322 21.5248 5.96685 21.625 5.8192 21.9256C5.50279 22.5742 4.92271 22.9381 4.22662 22.9381C3.55689 22.9381 3.01373 22.6111 2.69732 22.0152C2.33873 21.3402 2.43892 20.5492 2.95572 20.0008C3.3565 19.5684 3.69927 19.4313 4.30572 19.4523C4.6274 19.4629 4.79615 19.4998 4.99127 19.5947Z" fill="white"/>
<path d="M3.93652 19.9318C3.64648 20.0583 3.51992 20.2535 3.51465 20.5541C3.51465 20.7966 3.53047 20.8388 3.6623 20.9074C3.78887 20.9812 3.82051 20.9812 3.94707 20.9126C4.02617 20.8705 4.10527 20.7755 4.12109 20.7017C4.13691 20.6279 4.19492 20.5646 4.24238 20.5541C4.38477 20.5277 4.34785 20.6701 4.17383 20.7966C3.9998 20.9285 3.87852 21.2554 3.93125 21.4611C4.00508 21.7617 4.43223 21.7617 4.54297 21.4611C4.57461 21.3873 4.66426 21.266 4.75391 21.1974C4.9332 21.0445 5.03867 20.7175 4.98594 20.475C4.88047 19.9898 4.38477 19.7314 3.93652 19.9318Z" fill="white"/>
<path d="M3.99983 21.9572C3.79944 22.1787 3.95764 22.4951 4.25822 22.4951C4.46916 22.4951 4.54299 22.4107 4.54299 22.1682C4.54299 22.0258 4.51662 21.9572 4.44279 21.915C4.28459 21.8359 4.09475 21.8518 3.99983 21.9572Z" fill="white"/>
<path d="M7.48032 19.426C7.35903 19.5578 7.36957 19.7318 7.49614 19.8584C7.60161 19.9639 7.67016 19.9639 12.295 19.9639C16.9198 19.9639 16.9883 19.9639 17.0938 19.8584C17.2256 19.7266 17.2309 19.5314 17.1043 19.4207C17.0147 19.3363 16.6034 19.3311 12.2844 19.3311C7.7809 19.3311 7.55942 19.3363 7.48032 19.426Z" fill="white"/>
<path d="M7.47488 20.9764C7.36414 21.1346 7.36941 21.298 7.48543 21.4035C7.57508 21.4879 7.98641 21.4932 12.3054 21.4932C16.8089 21.4932 17.0304 21.4879 17.1095 21.3982C17.2202 21.277 17.2255 21.1293 17.1147 20.9764L17.0356 20.8604H12.2948H7.55399L7.47488 20.9764Z" fill="white"/>
<path d="M7.57532 22.4529C7.35911 22.5742 7.32747 22.801 7.49622 22.9697C7.59641 23.0699 7.67024 23.0752 10.0802 23.0752C12.4902 23.0752 12.564 23.0699 12.6642 22.9697C12.7855 22.8484 12.8013 22.6639 12.6958 22.5162C12.622 22.4213 12.5271 22.416 10.1488 22.4055C8.36634 22.3949 7.64915 22.4055 7.57532 22.4529Z" fill="white"/>
</svg>
