<svg width="25" height="26" viewBox="0 0 25 26" fill="none" xmlns="http://www.w3.org/2000/svg">
<path d="M18.9578 18.9578C18.8142 18.9578 18.6765 19.0149 18.5749 19.1164C18.4734 19.218 18.4163 19.3557 18.4163 19.4993V24.3742C18.4163 24.5178 18.3593 24.6555 18.2577 24.7571C18.1562 24.8586 18.0184 24.9157 17.8748 24.9157H1.62517C1.48156 24.9157 1.34383 24.8586 1.24228 24.7571C1.14073 24.6555 1.08368 24.5178 1.08368 24.3742V5.41634H3.79184C4.22263 5.41616 4.63572 5.24495 4.94034 4.94034C5.24495 4.63572 5.41616 4.22263 5.41634 3.79184V1.083H17.8748C17.9459 1.083 18.0164 1.09701 18.0821 1.12422C18.1478 1.15144 18.2074 1.19132 18.2577 1.24161C18.308 1.29189 18.3479 1.35158 18.3751 1.41728C18.4023 1.48298 18.4163 1.55339 18.4163 1.6245V5.95783C18.4163 6.02895 18.4303 6.09936 18.4576 6.16506C18.4848 6.23075 18.5247 6.29045 18.5749 6.34073C18.6252 6.39101 18.6849 6.4309 18.7506 6.45811C18.8163 6.48533 18.8867 6.49933 18.9578 6.49933C19.0289 6.49933 19.0994 6.48533 19.1651 6.45811C19.2308 6.4309 19.2904 6.39101 19.3407 6.34073C19.391 6.29045 19.4309 6.23075 19.4581 6.16506C19.4853 6.09936 19.4993 6.02895 19.4993 5.95783V1.62517C19.4993 1.19427 19.3282 0.781004 19.0236 0.476245C18.7189 0.171486 18.3057 0.00018528 17.8748 7.14641e-06H4.87484C4.80359 -0.000358883 4.73297 0.0133392 4.66703 0.0403162C4.60108 0.0672933 4.54111 0.107019 4.49055 0.157216L0.157216 4.49055C0.107019 4.54111 0.0672933 4.60108 0.0403162 4.66703C0.0133392 4.73297 -0.000358883 4.80359 7.14641e-06 4.87484V24.3742C-8.11035e-05 24.5876 0.04189 24.799 0.123523 24.9963C0.205156 25.1935 0.324851 25.3728 0.47577 25.5238C0.62669 25.6747 0.805876 25.7945 1.00309 25.8762C1.20031 25.9579 1.4117 26 1.62517 26H17.8748C18.3059 26 18.7192 25.8288 19.024 25.524C19.3288 25.2192 19.5 24.8059 19.5 24.3748V19.4993C19.5 19.4282 19.486 19.3577 19.4587 19.292C19.4315 19.2262 19.3915 19.1665 19.3412 19.1162C19.2908 19.0659 19.231 19.026 19.1653 18.9989C19.0995 18.9717 19.029 18.9577 18.9578 18.9578ZM3.79184 4.33334H1.84688L4.33267 1.84755V3.79184C4.33267 3.93534 4.27571 4.07297 4.1743 4.1745C4.0729 4.27603 3.93534 4.33316 3.79184 4.33334Z" fill="white"/>
<path d="M15.1655 21.124H8.66552C8.52191 21.124 8.38418 21.1811 8.28262 21.2826C8.18107 21.3842 8.12402 21.5219 8.12402 21.6655C8.12402 21.8091 8.18107 21.9469 8.28262 22.0484C8.38418 22.15 8.52191 22.207 8.66552 22.207H15.1655C15.3091 22.207 15.4469 22.15 15.5484 22.0484C15.65 21.9469 15.707 21.8091 15.707 21.6655C15.707 21.5219 15.65 21.3842 15.5484 21.2826C15.4469 21.1811 15.3091 21.124 15.1655 21.124Z" fill="white" stroke="white" stroke-width="0.4"/>
<path d="M12.0455 14.624H8.66552C8.52191 14.624 8.38418 14.6811 8.28262 14.7826C8.18107 14.8842 8.12402 15.0219 8.12402 15.1655C8.12402 15.3091 8.18107 15.4469 8.28262 15.5484C8.38418 15.65 8.52191 15.707 8.66552 15.707H12.0455C12.1891 15.707 12.3269 15.65 12.4284 15.5484C12.53 15.4469 12.587 15.3091 12.587 15.1655C12.587 15.0219 12.53 14.8842 12.4284 14.7826C12.3269 14.6811 12.1891 14.624 12.0455 14.624Z" fill="white" stroke="white" stroke-width="0.4"/>
<path d="M10.8322 8.12402H8.66552C8.52191 8.12402 8.38418 8.18107 8.28262 8.28263C8.18107 8.38418 8.12402 8.52191 8.12402 8.66552C8.12402 8.80914 8.18107 8.94687 8.28262 9.04842C8.38418 9.14997 8.52191 9.20702 8.66552 9.20702H10.8322C10.9758 9.20702 11.1135 9.14997 11.2151 9.04842C11.3166 8.94687 11.3737 8.80914 11.3737 8.66552C11.3737 8.52191 11.3166 8.38418 11.2151 8.28263C11.1135 8.18107 10.9758 8.12402 10.8322 8.12402Z" fill="white" stroke="white" stroke-width="0.4"/>
<path d="M3.27846 6.90039C3.17262 6.90039 3.07112 6.94244 2.99628 7.01728C2.92144 7.09212 2.87939 7.19362 2.87939 7.29946V10.492C2.87939 10.5979 2.92144 10.6994 2.99628 10.7742C3.07112 10.849 3.17262 10.8911 3.27846 10.8911H6.47102C6.57686 10.8911 6.67837 10.849 6.75321 10.7742C6.82805 10.6994 6.87009 10.5979 6.87009 10.492V7.29946C6.87009 7.19362 6.82805 7.09212 6.75321 7.01728C6.67837 6.94244 6.57686 6.90039 6.47102 6.90039H3.27846ZM6.07195 10.0929H3.67753V7.69853H6.07195V10.0929Z" fill="white" stroke="white" stroke-width="0.2"/>
<path d="M6.47102 13.1709H3.27846C3.17262 13.1709 3.07112 13.2129 2.99628 13.2878C2.92144 13.3626 2.87939 13.4641 2.87939 13.57V16.7625C2.87939 16.8684 2.92144 16.9699 2.99628 17.0447C3.07112 17.1196 3.17262 17.1616 3.27846 17.1616H6.47102C6.57686 17.1616 6.67837 17.1196 6.75321 17.0447C6.82805 16.9699 6.87009 16.8684 6.87009 16.7625V13.57C6.87009 13.4641 6.82805 13.3626 6.75321 13.2878C6.67837 13.2129 6.57686 13.1709 6.47102 13.1709ZM6.07195 16.3635H3.67753V13.969H6.07195V16.3635Z" fill="white" stroke="white" stroke-width="0.2"/>
<path d="M6.47102 19.4424H3.27846C3.17262 19.4424 3.07112 19.4844 2.99628 19.5593C2.92144 19.6341 2.87939 19.7356 2.87939 19.8415V23.034C2.87939 23.1399 2.92144 23.2414 2.99628 23.3162C3.07112 23.391 3.17262 23.4331 3.27846 23.4331H6.47102C6.57686 23.4331 6.67837 23.391 6.75321 23.3162C6.82805 23.2414 6.87009 23.1399 6.87009 23.034V19.8415C6.87009 19.7356 6.82805 19.6341 6.75321 19.5593C6.67837 19.4844 6.57686 19.4424 6.47102 19.4424ZM6.07195 22.6349H3.67753V20.2405H6.07195V22.6349Z" fill="white" stroke="white" stroke-width="0.2"/>
<path d="M23.1169 12.5357C23.1169 11.6397 22.8512 10.7639 22.3534 10.0189C21.8557 9.2739 21.1481 8.69325 20.3204 8.35038C19.4926 8.0075 18.5817 7.91778 17.7029 8.09258C16.8242 8.26738 16.017 8.69884 15.3834 9.3324C14.7499 9.96595 14.3184 10.7732 14.1436 11.6519C13.9688 12.5307 14.0585 13.4416 14.4014 14.2693C14.7443 15.0971 15.3249 15.8046 16.0699 16.3024C16.8149 16.8002 17.6908 17.0659 18.5867 17.0659C19.7882 17.0659 20.9405 16.5886 21.7901 15.739C22.6396 14.8895 23.1169 13.7372 23.1169 12.5357ZM23.5482 12.5357C23.5482 13.517 23.2573 14.4763 22.7121 15.2922C22.1669 16.1081 21.392 16.744 20.4854 17.1195C19.5788 17.4951 18.5812 17.5933 17.6188 17.4019C16.6564 17.2104 15.7723 16.7379 15.0784 16.044C14.3846 15.3501 13.912 14.4661 13.7206 13.5037C13.5291 12.5412 13.6274 11.5436 14.0029 10.637C14.3784 9.73044 15.0144 8.95556 15.8303 8.41038C16.6462 7.86521 17.6055 7.57422 18.5867 7.57422C19.9027 7.57422 21.1647 8.09692 22.0953 9.02737C23.0259 9.95781 23.5487 11.2198 23.5489 12.5357H23.5482ZM18.1736 13.6973L20.7668 11.104C20.7869 11.084 20.8106 11.0681 20.8368 11.0573C20.863 11.0464 20.891 11.0409 20.9194 11.0409C20.9477 11.0409 20.9757 11.0464 21.0019 11.0573C21.0281 11.0681 21.0518 11.084 21.0719 11.104C21.0919 11.1241 21.1078 11.1478 21.1186 11.174C21.1295 11.2002 21.135 11.2282 21.135 11.2565C21.135 11.2849 21.1295 11.3129 21.1186 11.3391C21.1078 11.3652 21.0919 11.389 21.0719 11.409L18.3234 14.1582C18.3034 14.1782 18.2796 14.1941 18.2534 14.205C18.2272 14.2158 18.1992 14.2214 18.1709 14.2214C18.1426 14.2214 18.1145 14.2158 18.0883 14.205C18.0622 14.1941 18.0384 14.1782 18.0184 14.1582L16.4926 12.6298C16.4726 12.6097 16.4567 12.586 16.4459 12.5598C16.435 12.5336 16.4295 12.5056 16.4295 12.4773C16.4295 12.4489 16.435 12.4209 16.4459 12.3947C16.4567 12.3686 16.4726 12.3448 16.4926 12.3248C16.5331 12.2843 16.5879 12.2616 16.6451 12.2616C16.6735 12.2616 16.7015 12.2672 16.7277 12.278C16.7538 12.2888 16.7776 12.3047 16.7976 12.3248L18.1736 13.6973Z" fill="white" stroke="white"/>
</svg>
