<svg width="36" height="36" viewBox="0 0 36 36" fill="none" xmlns="http://www.w3.org/2000/svg">
<path d="M35.9 17.7178C35.8997 14.237 34.8673 10.8343 32.9332 7.94023C30.9992 5.04611 28.2504 2.79048 25.0344 1.45856C21.8185 0.126635 18.2798 -0.221755 14.8658 0.457439C11.4518 1.13663 8.31595 2.81291 5.85465 5.2743C3.39335 7.73569 1.71719 10.8717 1.03812 14.2856C0.359054 17.6996 0.707576 21.2383 2.03962 24.4542C3.37166 27.6701 5.62739 30.4189 8.52158 32.3528C11.4158 34.2867 14.8184 35.319 18.2993 35.3191C18.4033 35.3191 18.5059 35.3191 18.6093 35.3152V21.6132H14.8283V17.2065H18.6093V13.9631C18.6093 10.2024 20.9058 8.1544 24.2604 8.1544C25.3928 8.15076 26.5247 8.20861 27.6509 8.32769V12.2583H25.3367C23.5116 12.2583 23.1585 13.1261 23.1585 14.3992V17.2065H27.5227L26.9538 21.6132H23.1611V34.6384C26.8326 33.5817 30.0609 31.3596 32.3588 28.3074C34.6567 25.2552 35.8996 21.5384 35.9 17.7178Z" fill="url(#paint0_linear_130_11111)"/>
<defs>
<linearGradient id="paint0_linear_130_11111" x1="18.3" y1="0.119141" x2="18.3" y2="35.3191" gradientUnits="userSpaceOnUse">
<stop stop-color="#FF8331"/>
<stop offset="1" stop-color="#DC5F19"/>
</linearGradient>
</defs>
</svg>
