<svg width="61" height="61" viewBox="0 0 61 61" fill="none" xmlns="http://www.w3.org/2000/svg">
<g clip-path="url(#clip0_130_10793)">
<path d="M30.6938 60.5518C47.2624 60.5518 60.6938 47.1203 60.6938 30.5518C60.6938 13.9832 47.2624 0.551758 30.6938 0.551758C14.1253 0.551758 0.693848 13.9832 0.693848 30.5518C0.693848 47.1203 14.1253 60.5518 30.6938 60.5518Z" fill="white"/>
<path d="M39.4482 29.3066H31.9386V21.797C31.9386 21.4667 31.8074 21.15 31.5738 20.9165C31.3403 20.6829 31.0236 20.5518 30.6934 20.5518C30.3631 20.5518 30.0464 20.6829 29.8129 20.9165C29.5793 21.15 29.4482 21.4667 29.4482 21.797V29.3066H21.9386C21.6083 29.3066 21.2916 29.4377 21.0581 29.6713C20.8245 29.9048 20.6934 30.2215 20.6934 30.5518C20.6934 30.882 20.8245 31.1987 21.0581 31.4322C21.2916 31.6658 21.6083 31.797 21.9386 31.797H29.4482V39.3066C29.4482 39.6368 29.5793 39.9535 29.8129 40.187C30.0464 40.4206 30.3631 40.5518 30.6934 40.5518C31.0236 40.5518 31.3403 40.4206 31.5738 40.187C31.8074 39.9535 31.9386 39.6368 31.9386 39.3066V31.797H39.4482C39.7784 31.797 40.0951 31.6658 40.3286 31.4322C40.5622 31.1987 40.6934 30.882 40.6934 30.5518C40.6934 30.2215 40.5622 29.9048 40.3286 29.6713C40.0951 29.4377 39.7784 29.3066 39.4482 29.3066Z" fill="url(#paint0_linear_130_10793)"/>
</g>
<defs>
<linearGradient id="paint0_linear_130_10793" x1="30.6934" y1="20.5518" x2="30.6934" y2="40.5518" gradientUnits="userSpaceOnUse">
<stop stop-color="#FF8331"/>
<stop offset="1" stop-color="#DC5F19"/>
</linearGradient>
<clipPath id="clip0_130_10793">
<rect width="60" height="60" fill="white" transform="translate(0.693848 0.551758)"/>
</clipPath>
</defs>
</svg>
