<svg width="75" height="76" viewBox="0 0 75 76" fill="none" xmlns="http://www.w3.org/2000/svg">
<rect y="0.900391" width="75" height="75" rx="8" fill="#E0FFFD"/>
<g clip-path="url(#clip0_3881_10366)">
<path d="M33.0937 13.6953C31.1406 14.2227 29.4218 15.4922 28.4941 17.1035C28.2206 17.5918 28.1035 17.7188 27.8007 17.7969C27.2929 17.9434 26.5605 18.4609 26.1894 18.9492C25.6816 19.6133 25.5742 20.1504 25.5742 21.957C25.5742 23.4902 25.5839 23.5586 25.8085 23.8223C25.9941 24.0371 26.121 24.0957 26.4531 24.0957C26.7851 24.0957 26.9121 24.0371 27.0976 23.8223C27.3222 23.5586 27.332 23.4902 27.332 22.0645C27.332 20.8438 27.3613 20.5215 27.5078 20.2383C27.7128 19.8281 28.2402 19.457 28.6113 19.457C29.1386 19.457 29.373 19.2617 29.8027 18.4414C30.5644 16.957 32.0585 15.7656 33.5917 15.4043C34.5195 15.1895 41.3554 15.1895 42.205 15.4141C44.3828 15.9805 46.1406 17.8457 46.5312 20.0234C46.6191 20.5215 46.6581 21.5762 46.6679 23.1289V25.4922L45.7206 25.5508C43.0839 25.7168 42.2538 25.7266 41.2871 25.6191C38.3769 25.2773 36.082 24.4277 33.455 22.6797C32.9765 22.3574 32.498 22.0938 32.3906 22.0938C31.9706 22.0938 31.6777 22.3672 31.3359 23.0801C30.916 23.9688 30.1347 24.7891 29.3339 25.1992C28.7675 25.4824 28.6992 25.4922 27.1855 25.5313C25.3691 25.5703 24.9785 25.6973 24.3144 26.4492C23.6894 27.1523 23.621 27.5039 23.621 29.7598C23.621 32.0156 23.7089 32.4648 24.2656 33.1094C24.8808 33.832 25.623 34.0371 26.0429 33.5879C26.4921 33.1094 26.414 32.6309 25.7792 32.0938L25.4277 31.7813V29.8184V27.8555L25.7011 27.5918C25.9453 27.3379 26.0331 27.3184 26.8828 27.2891L27.8007 27.25L27.8398 30.1211C27.8788 32.8945 27.8886 33.0117 28.1425 33.8418C28.4453 34.8086 29.0507 36.0684 29.4316 36.5273C29.9101 37.0938 30.7695 36.8984 30.9941 36.1758C31.0429 36 30.9355 35.707 30.5742 35.0039C29.6757 33.2559 29.6464 33.0898 29.5976 29.8867L29.5585 27.084L30.1445 26.791C30.9355 26.3906 31.7851 25.668 32.3027 24.9551L32.7324 24.3594L33.2695 24.7012C34.207 25.3066 35.8867 26.0879 37.0878 26.4883C39.1386 27.1816 40.9062 27.4648 43.1328 27.4648H44.4218V29.8281C44.4218 32.377 44.3437 33.0117 43.9042 34.1055C43.5331 35.0137 43.0644 35.7266 42.371 36.4492C40.3984 38.5 37.4687 39.291 34.9003 38.4609C33.4746 38.002 33.0742 38.168 32.9374 39.2617C32.8007 40.4336 32.2343 41.4297 31.3652 42.0254C31.0917 42.2207 30.0371 42.6406 28.5722 43.1484C26.0624 44.0273 25.5058 44.3105 24.6855 45.1504C24.4316 45.4043 24.1386 45.8145 24.0214 46.0586C23.8261 46.459 23.8163 46.5176 23.9531 46.8301C24.1093 47.2109 24.3535 47.3867 24.7441 47.3867C25.1249 47.3867 25.3203 47.25 25.7109 46.7129C26.2871 45.9316 26.8632 45.6289 29.3828 44.75C30.6425 44.3105 31.746 43.9102 31.8437 43.8613C31.9706 43.793 32.0488 43.8613 32.2538 44.2031C32.8398 45.1992 33.9335 46.0391 35.2128 46.4688C37.7812 47.3379 41.3652 45.9805 40.0371 44.6426C39.6855 44.291 39.4316 44.291 38.7285 44.6035C37.0976 45.3164 35.3788 44.9941 34.2167 43.7637C33.6308 43.1387 33.3964 42.6602 33.5624 42.416C33.914 41.9277 34.2851 41.2148 34.4316 40.7656C34.5781 40.3164 34.6269 40.2578 34.8124 40.2969C36.1015 40.6289 37.7714 40.6094 39.4023 40.2578C39.4023 40.2578 39.4706 40.4434 39.539 40.6777C39.9394 42.0156 40.9257 43.1777 42.2246 43.8613C42.4394 43.9688 43.582 44.3984 44.7636 44.7988C46.1992 45.2969 47.0781 45.6582 47.4296 45.8926C48.3574 46.5176 49.0117 47.709 49.0117 48.7539V49.2422H34.0019C23.7773 49.2422 18.8652 49.2715 18.6113 49.3496C17.9667 49.5254 17.7714 50.3262 18.2499 50.8047C18.4453 51 18.6699 51 40.0078 51H61.58L61.7851 50.7754L61.9999 50.5508V34.6133C61.9999 19.9551 61.9902 18.6465 61.8339 18.2656C61.5703 17.582 61.1406 17.0254 60.5937 16.6641C59.6757 16.0586 59.5097 16.0391 54.6464 16.0391C50.037 16.0391 49.8222 16.0586 49.6562 16.4785C49.539 16.791 49.5976 17.2891 49.7831 17.5137L49.9687 17.7481L54.5488 17.7969L59.1288 17.8457L59.5292 18.1094C60.3007 18.6172 60.2421 17.2305 60.2421 34.1445V49.2422H55.5058H50.7695V48.6758C50.7695 47.0742 49.8417 45.375 48.4648 44.4277C47.9277 44.0566 47.3222 43.8125 45.4277 43.1484C42.9472 42.2793 42.4296 42.0156 41.8828 41.3223C41.5898 40.9609 41.1113 39.9648 41.1015 39.7207C41.1015 39.6621 41.3554 39.4668 41.6679 39.291C43.6796 38.0996 45.291 36.0098 45.9062 33.7637C46.0917 33.0605 46.121 32.6895 46.1601 30.1211L46.1992 27.25L47.1171 27.2891C47.9667 27.3184 48.0546 27.3379 48.2988 27.5918L48.5722 27.8555V29.7988C48.5722 32.0352 48.5722 32.0449 47.6835 32.3086C47.4003 32.3867 47.1269 32.5039 47.0781 32.5723C47.0195 32.6406 46.9023 32.9727 46.8144 33.3242C46.2968 35.3457 45.3886 37.0938 44.08 38.5977C43.7871 38.9395 43.5136 39.3301 43.4843 39.4473C43.3574 39.9551 43.8652 40.5508 44.4218 40.5508C44.7148 40.5508 45.5742 39.7012 46.2773 38.7148C47.039 37.6504 47.7519 36.2344 48.1816 34.9551C48.5038 33.998 48.5234 33.959 48.9433 33.7441C49.5195 33.4609 50.0566 32.8164 50.2324 32.2109C50.4472 31.498 50.4374 27.9727 50.2226 27.3379C50.0273 26.752 49.4218 26.0781 48.8652 25.8145L48.4257 25.6094V23.1777C48.4257 20.4434 48.3378 19.5742 47.9472 18.4805C47.5468 17.3477 47.1074 16.6738 46.1308 15.6973C45.4472 15.0137 45.0663 14.7207 44.4316 14.3887C42.791 13.5391 42.9765 13.5684 38.123 13.5293C34.0996 13.5098 33.7773 13.5195 33.0937 13.6953Z" fill="#00998F"/>
<path d="M14.5098 16.1463C13.6016 16.3611 12.7129 17.074 12.2832 17.9432L12.0488 18.4314V36.1561V53.8807L12.2832 54.3689C12.6055 55.0135 13.2598 55.6482 13.9336 55.9607L14.4902 56.2244L22.1367 56.2537C29.3145 56.2732 29.7832 56.2928 29.7344 56.449C28.6699 59.9744 28.4355 61.2635 28.7383 61.9764C28.9336 62.4549 29.5293 63.0701 30.0078 63.2947C30.4082 63.4998 30.5547 63.4998 36.9805 63.4998C44.2266 63.4998 43.8652 63.5291 44.5977 62.8748C45.1641 62.367 45.3984 61.8006 45.3984 60.9705C45.3984 60.3846 45.3691 60.2478 45.1445 59.9939C44.8125 59.5936 44.2461 59.5643 43.8848 59.9353C43.6797 60.1307 43.6406 60.2674 43.6406 60.7459C43.6406 61.2146 43.6016 61.3514 43.416 61.5271L43.1914 61.742H36.9902H30.7793L30.5742 61.5174C30.457 61.3904 30.3594 61.1756 30.3594 61.0389C30.3594 60.824 30.6426 59.7498 31.4922 56.7908L31.6289 56.2732L45.3594 56.2537L59.0898 56.2244L59.3242 55.951C59.666 55.5506 59.6074 54.9744 59.1777 54.6424C59.0605 54.5447 54.168 54.5252 37.0586 54.5154H15.0859L14.666 54.3103C14.4414 54.2029 14.1484 53.9686 14.0312 53.8025L13.8066 53.49L13.7773 36.2732C13.7578 16.9666 13.6895 18.6268 14.4707 18.1092L14.8711 17.8455L19.9199 17.7967C25.584 17.7381 25.252 17.7869 25.3496 17.035C25.3984 16.6834 25.3691 16.5955 25.1055 16.3318L24.8125 16.0389L19.8418 16.0486C17.1172 16.0584 14.7148 16.0975 14.5098 16.1463Z" fill="#00998F"/>
</g>
<defs>
<clipPath id="clip0_3881_10366">
<rect width="50" height="50" fill="white" transform="translate(12 13.5)"/>
</clipPath>
</defs>
</svg>
