<svg width="75" height="76" viewBox="0 0 75 76" fill="none" xmlns="http://www.w3.org/2000/svg">
<rect y="0.900391" width="75" height="75" rx="8" fill="#E7E3FF"/>
<g clip-path="url(#clip0_3881_10350)">
<path d="M29.6661 13.6953C29.1094 13.9883 28.7091 14.4766 28.543 15.043C28.4258 15.4434 28.3966 15.9316 28.4258 17.1914C28.4551 18.6465 28.4844 18.8613 28.67 19.2324C28.9337 19.7207 29.5098 20.209 29.9688 20.3359C30.4278 20.4629 43.5723 20.4629 44.0313 20.3359C44.5001 20.209 45.0665 19.7207 45.3204 19.2324C45.5157 18.8711 45.545 18.627 45.5743 17.2598C45.6231 15.3555 45.5255 14.8086 45.0274 14.2617C44.295 13.4512 44.8321 13.5 36.9805 13.5C30.3594 13.5098 29.9981 13.5195 29.6661 13.6953ZM43.7969 15.2871C44.0216 15.5508 44.0313 15.6191 44.0313 16.9766C44.0313 18.3535 44.0216 18.4023 43.7872 18.627L43.5528 18.8711H37.0001H30.4473L30.213 18.627C29.9786 18.4023 29.9688 18.3438 29.9688 16.9961C29.9688 15.502 30.0372 15.248 30.4962 15.0625C30.6036 15.0137 33.5919 14.9844 37.127 14.9941L43.5626 15.0137L43.7969 15.2871Z" fill="#391DE1"/>
<path d="M20.6426 16.2734C19.9786 16.4394 19.627 16.6347 19.1582 17.1132C18.6407 17.621 18.3672 18.1972 18.2403 18.9882C18.1817 19.3788 18.1524 27.2499 18.1719 40.3066C18.2012 64.037 18.0938 61.5078 19.168 62.5722C20.2032 63.5976 18.3965 63.4999 37 63.4999C55.6036 63.4999 53.7969 63.5976 54.8321 62.5722C55.9063 61.5078 55.7989 64.037 55.7989 39.8671C55.7989 22.4843 55.7793 18.7538 55.6719 18.4316C55.4473 17.7675 54.9493 17.123 54.3633 16.7226C53.5723 16.1953 52.9766 16.1171 50.1739 16.1562C48.0645 16.1855 47.8399 16.205 47.6543 16.371C47.3809 16.6249 47.3711 17.2304 47.6446 17.5038C47.8301 17.6894 47.9766 17.6992 50.3106 17.7089C53.2598 17.7187 53.5039 17.7773 54.0118 18.6269L54.2364 19.0175V39.8671C54.2364 59.3691 54.2266 60.7363 54.0704 61.0195C53.8653 61.4003 53.377 61.8203 53.0352 61.9179C52.6934 62.0058 21.3067 62.0058 20.9649 61.9179C20.6231 61.8203 20.1348 61.4003 19.9297 61.0195C19.7735 60.7363 19.7637 59.3691 19.7637 39.8671V19.0175L19.9883 18.6269C20.4961 17.7773 20.75 17.7187 23.6504 17.7089C25.9258 17.6992 26.0723 17.6894 26.2579 17.5038C26.5118 17.2499 26.5118 16.7226 26.2676 16.4199C26.0821 16.1855 26.0821 16.1855 23.6016 16.166C21.8829 16.1562 20.9844 16.1855 20.6426 16.2734Z" fill="#391DE1"/>
<path d="M23.7286 25.1699C23.2306 25.3262 22.8009 25.707 22.5372 26.2148C22.3517 26.5762 22.3517 26.8887 22.3712 37.2695L22.4005 47.9531L22.6935 48.373C22.8595 48.5977 23.1817 48.8906 23.4161 49.0176L23.8458 49.2422H37.0001H50.1544L50.5841 49.0176C50.8185 48.8906 51.1505 48.5977 51.3067 48.373L51.5997 47.9531L51.629 37.2695C51.6485 26.7812 51.6485 26.5762 51.4532 26.2051C51.1993 25.707 50.6524 25.2578 50.1251 25.1309C49.8321 25.0527 45.838 25.0234 36.9317 25.0332C26.4337 25.0332 24.0802 25.0625 23.7286 25.1699ZM27.9181 28.6367V30.6875H25.9161H23.9142V28.793C23.9142 26.9375 23.9239 26.8887 24.129 26.7422C24.3048 26.6152 24.6759 26.5859 26.131 26.5859H27.9181V28.6367ZM33.4845 28.6367V30.6875H31.4825H29.4806V28.6367V26.5859H31.4825H33.4845V28.6367ZM38.9532 28.6367V30.6875H37.0001H35.047V28.6367V26.5859H37.0001H38.9532V28.6367ZM44.5196 28.6367V30.6875H42.5177H40.5157V28.6367V26.5859H42.5177H44.5196V28.6367ZM49.8712 26.7422C50.0763 26.8887 50.086 26.9375 50.086 28.793V30.6875H48.0841H46.0821V28.6367V26.5859H47.8692C49.3243 26.5859 49.6954 26.6152 49.8712 26.7422ZM27.9181 34.3008V36.3516H25.9161H23.9142V34.3008V32.25H25.9161H27.9181V34.3008ZM33.4845 34.3008V36.3516H31.4825H29.4806V34.3008V32.25H31.4825H33.4845V34.3008ZM38.9532 34.3008V36.3516H37.0001H35.047V34.3008V32.25H37.0001H38.9532V34.3008ZM44.5196 34.3008V36.3516H42.5177H40.5157V34.3008V32.25H42.5177H44.5196V34.3008ZM50.086 34.3008V36.3516H48.0841H46.0821V34.3008V32.25H48.0841H50.086V34.3008ZM27.9181 39.9648V42.0156H25.9161H23.9142V39.9648V37.9141H25.9161H27.9181V39.9648ZM33.4845 39.9648V42.0156H31.4825H29.4806V39.9648V37.9141H31.4825H33.4845V39.9648ZM38.9532 39.9648V42.0156H37.0001H35.047V39.9648V37.9141H37.0001H38.9532V39.9648ZM44.5196 39.9648V42.0156H42.5177H40.5157V39.9648V37.9141H42.5177H44.5196V39.9648ZM50.086 39.9648V42.0156H48.0841H46.0821V39.9648V37.9141H48.0841H50.086V39.9648ZM27.9181 45.6289V47.6797H26.0333C24.6954 47.6797 24.1192 47.6504 24.0313 47.5625C23.9435 47.4746 23.9142 46.8887 23.9142 45.5117V43.5781H25.9161H27.9181V45.6289ZM33.4845 45.6289V47.6797H31.4825H29.4806V45.6289V43.5781H31.4825H33.4845V45.6289ZM38.9532 45.6289V47.6797H37.0001H35.047V45.6289V43.5781H37.0001H38.9532V45.6289ZM44.5196 45.6289V47.6797H42.5177H40.5157V45.6289V43.5781H42.5177H44.5196V45.6289ZM50.086 45.5117C50.086 46.8887 50.0567 47.4746 49.9688 47.5625C49.881 47.6504 49.3048 47.6797 47.9669 47.6797H46.0821V45.6289V43.5781H48.0841H50.086V45.5117Z" fill="#391DE1"/>
<path d="M22.6056 52.4746C22.2638 52.7383 22.254 53.3145 22.5763 53.6172L22.8009 53.832H37.0099H51.2286L51.4337 53.6074C51.7462 53.2754 51.7267 52.7383 51.3946 52.4746L51.131 52.2695H37.0001H22.8692L22.6056 52.4746Z" fill="#391DE1"/>
<path d="M22.6056 55.9902C22.2638 56.2539 22.254 56.8301 22.5763 57.1328L22.8009 57.3477H30.0567H37.3028L37.5372 57.1035C37.6935 56.957 37.7813 56.752 37.7813 56.5664C37.7813 56.3809 37.6935 56.1758 37.5372 56.0293L37.3028 55.7852H30.086C22.9278 55.7852 22.8595 55.7852 22.6056 55.9902Z" fill="#391DE1"/>
</g>
<defs>
<clipPath id="clip0_3881_10350">
<rect width="50" height="50" fill="white" transform="translate(12 13.5)"/>
</clipPath>
</defs>
</svg>
