<svg width="75" height="76" viewBox="0 0 75 76" fill="none" xmlns="http://www.w3.org/2000/svg">
<rect y="0.900391" width="75" height="75" rx="8" fill="#FFF5D3"/>
<path d="M35.3008 14.0958C28.4551 14.8185 22.8203 19.9064 21.3652 26.6642C21.1113 27.8849 21.0039 30.5802 21.1699 31.8986C21.5508 34.9259 22.8301 37.6896 25.1055 40.424C26.1211 41.6251 26.6875 42.4747 27.2637 43.6271C28.0156 45.1505 28.5137 46.8693 28.6602 48.4708L28.7187 49.213L28.416 49.34C27.8496 49.5743 27.3809 49.9845 27.0879 50.5216C26.8437 50.9611 26.8047 51.1564 26.8047 51.7325C26.8047 52.4454 26.9316 52.7872 27.4004 53.422L27.6445 53.7443L27.3418 54.0763C27.1758 54.2618 26.9707 54.6622 26.8828 54.965C26.5312 56.1857 27.1074 57.465 28.2598 57.9923C28.6504 58.1779 28.9141 58.2267 29.5977 58.2267H30.4375L30.5059 58.6075C30.7305 59.965 32.0098 61.4493 33.6309 62.2208C34.7734 62.7775 35.6523 62.963 37.0488 62.9532C38.4355 62.9435 39.2363 62.7677 40.3691 62.2306C41.9902 61.4493 43.2695 59.965 43.4941 58.6075L43.5625 58.2267H44.4023C45.0859 58.2267 45.3496 58.1779 45.7402 57.9923C46.8926 57.465 47.4687 56.1857 47.1172 54.965C47.0293 54.6622 46.8242 54.2618 46.6582 54.0763L46.3555 53.7443L46.5996 53.422C47.0684 52.7872 47.1953 52.4454 47.1953 51.7325C47.1953 51.1564 47.1562 50.9611 46.9121 50.5216C46.6191 49.9845 46.1504 49.5743 45.584 49.34L45.2812 49.213L45.3398 48.4708C45.4961 46.7911 45.9648 45.1798 46.7656 43.5587C47.3516 42.3868 47.7812 41.7423 48.875 40.4435C50.9258 37.9825 52.1269 35.5802 52.6934 32.7872C52.8301 32.0939 52.8691 31.4689 52.8691 29.8575C52.8594 27.5626 52.7227 26.6935 52.0977 24.838C49.7051 17.797 42.6934 13.3146 35.3008 14.0958ZM39.3047 15.4044C42.4883 15.9513 45.1738 17.3575 47.4492 19.6525C49.5 21.7228 50.8477 24.2521 51.4629 27.172C51.7559 28.5392 51.7754 31.088 51.5117 32.3966C50.9746 35.0822 49.9004 37.2697 47.957 39.6036C46.9121 40.8536 46.3945 41.5958 45.8574 42.6017C44.998 44.2033 44.4414 45.922 44.2266 47.6017C44.168 48.0997 44.0898 48.6564 44.0703 48.8322L44.0215 49.1447L36.9707 49.1251L29.9199 49.0958L29.8516 48.295C29.5977 45.1993 28.3086 42.2501 26.0332 39.5743C24.1289 37.3283 23.0254 35.0919 22.4883 32.3966C22.2441 31.2052 22.2441 28.6466 22.4883 27.4161C23.6992 21.1368 28.4355 16.4689 34.6562 15.4044C35.7012 15.2189 38.25 15.2286 39.3047 15.4044ZM45.3691 50.6095C45.75 50.8341 45.9844 51.2638 45.9844 51.7325C45.9844 52.2013 45.75 52.631 45.3691 52.8556C45.0664 53.0411 44.8223 53.0509 37.0195 53.0509C28.1523 53.0509 28.6016 53.0802 28.2109 52.4357C27.8301 51.8204 28.0254 50.9708 28.6309 50.6095C28.9336 50.424 29.1777 50.4142 37 50.4142C44.8223 50.4142 45.0664 50.424 45.3691 50.6095ZM45.1836 54.4572C45.9453 54.8478 46.209 55.7267 45.7695 56.3712C45.2812 57.0939 45.7793 57.0548 37 57.0548C28.2207 57.0548 28.7187 57.0939 28.2305 56.3712C28.0449 56.0978 28.0059 55.9415 28.0449 55.5607C28.084 55.0724 28.2695 54.799 28.748 54.506C29.0312 54.3302 29.4219 54.3204 36.9805 54.3204C43.6113 54.3204 44.959 54.34 45.1836 54.4572ZM42.2734 58.4025C42.2734 58.754 41.7363 59.6427 41.209 60.17C40.5742 60.8048 39.5293 61.3615 38.5625 61.5861C37.7519 61.7814 36.248 61.7814 35.4375 61.5861C33.9434 61.2443 32.5469 60.2384 31.9902 59.1056C31.5019 58.1388 31.0039 58.2267 37 58.2267C42.0195 58.2267 42.2734 58.2365 42.2734 58.4025Z" fill="#F2BE05"/>
<path d="M34.6562 18.9395C34.334 19.0566 34.2656 19.291 34.2656 20.3066C34.2656 21.1855 34.2461 21.3223 34.0996 21.3809C34.002 21.4102 33.6699 21.5469 33.3574 21.6836L32.791 21.9277L32.0293 21.1758C31.6094 20.7656 31.1797 20.4336 31.082 20.4336C30.9844 20.4336 30.1543 21.1855 29.2168 22.1133C27.8008 23.5195 27.5273 23.8418 27.5273 24.0762C27.5273 24.3008 27.6836 24.5254 28.2207 25.0723L28.9141 25.7949L28.6602 26.4199C28.5234 26.7715 28.4062 27.1035 28.4062 27.1621C28.4062 27.2305 28.0352 27.2695 27.3418 27.2695C26.502 27.2695 26.2383 27.2988 26.1211 27.4258C25.8867 27.6504 25.8867 32.2598 26.1211 32.4844C26.2383 32.6113 26.502 32.6406 27.3418 32.6406C28.0352 32.6406 28.4062 32.6797 28.4062 32.748C28.4062 32.8066 28.5234 33.1387 28.6602 33.4805L28.9141 34.1152L28.2207 34.8379C27.7031 35.3848 27.5273 35.6387 27.5273 35.8438C27.5273 36.0684 27.8398 36.4199 29.2168 37.7969C30.1445 38.7246 30.9648 39.4766 31.0332 39.4766C31.2676 39.4766 31.5898 39.252 32.2148 38.6465L32.8496 38.0313L33.5332 38.3047L34.2168 38.5879L34.2363 39.4961C34.2559 39.9941 34.2852 40.4922 34.3145 40.6094C34.4023 40.9805 34.7441 41.0391 37.0391 41.0391C39.8027 41.0391 39.666 41.1074 39.7344 39.623L39.7832 38.5879L40.4961 38.2852L41.2188 37.9824L41.9219 38.6855C42.9473 39.7012 42.8496 39.7305 44.8418 37.7383C46.1895 36.3906 46.4727 36.0586 46.4727 35.8242C46.4727 35.6191 46.3066 35.3848 45.7793 34.8379L45.0859 34.125L45.3691 33.3828L45.6426 32.6406H46.6777C47.5566 32.6406 47.7324 32.6113 47.8691 32.4648C48.0156 32.3086 48.0352 31.9863 48.0352 29.9258C48.0352 27.9238 48.0156 27.5527 47.8789 27.4258C47.7617 27.2988 47.498 27.2695 46.6875 27.2695L45.6426 27.2598L45.3398 26.4883L45.0371 25.7168L45.7598 25.0039C46.2773 24.4961 46.4727 24.2227 46.4727 24.0469C46.4727 23.8516 46.0918 23.4121 44.7734 22.1035C42.7715 20.1211 42.9082 20.1602 41.8242 21.2246L41.1406 21.9082L40.6035 21.6738C40.3105 21.5371 39.998 21.4102 39.9102 21.3809C39.7539 21.3223 39.7344 21.1855 39.7344 20.3359C39.7344 19.418 39.7148 19.3301 39.4902 19.1152L39.2559 18.8711L37.0293 18.8809C35.8086 18.8809 34.7344 18.9102 34.6562 18.9395ZM38.4844 21.1172C38.5137 22.1816 38.582 22.3086 39.1973 22.4453C39.3633 22.4746 39.8613 22.6797 40.3105 22.8848C40.7598 23.0898 41.2188 23.2656 41.3359 23.2656C41.4531 23.2656 41.8047 23.002 42.1953 22.6113L42.8594 21.9473L43.8848 22.9727C44.4512 23.5391 44.9102 24.0371 44.9102 24.0859C44.9102 24.1348 44.627 24.4766 44.2754 24.8379C43.9238 25.1992 43.6406 25.541 43.6406 25.5996C43.6406 25.668 43.7578 25.9414 43.9043 26.2246C44.041 26.5078 44.2852 27.084 44.4316 27.5039C44.5879 27.9336 44.7637 28.3145 44.832 28.3633C44.9004 28.4023 45.3887 28.4414 45.916 28.4414H46.8633V29.9551V31.4688H45.9062C44.7734 31.4688 44.7441 31.4883 44.4219 32.4355C44.3047 32.7773 44.0898 33.3145 43.9238 33.627C43.7676 33.9395 43.6406 34.252 43.6406 34.3105C43.6406 34.3691 43.9434 34.7305 44.3242 35.1211L44.998 35.8242L43.9336 36.8887L42.8594 37.9629L42.1953 37.2988C41.7754 36.8789 41.4531 36.6445 41.3164 36.6445C41.1992 36.6445 40.7988 36.791 40.4375 36.9766C40.0664 37.1621 39.5195 37.3867 39.207 37.4746C38.5234 37.6699 38.4648 37.7969 38.4648 38.9492V39.7695H37H35.5352V38.9004C35.5352 37.9141 35.3789 37.5918 34.8418 37.4844C34.6758 37.4551 34.168 37.25 33.709 37.0352C33.25 36.8203 32.7812 36.6445 32.6641 36.6445C32.5469 36.6445 32.1953 36.9082 31.8047 37.2988L31.1406 37.9629L30.0664 36.8887L29.002 35.8242L29.6758 35.1211C30.0566 34.7305 30.3594 34.3691 30.3594 34.3105C30.3594 34.252 30.1836 33.8418 29.9785 33.3926C29.7637 32.9531 29.5488 32.4063 29.4902 32.1816C29.3145 31.5176 29.207 31.4688 28.1035 31.4688H27.1367V29.9551V28.4414H28.1035C29.2266 28.4414 29.2852 28.4121 29.5391 27.6406C29.627 27.3574 29.8516 26.8008 30.0371 26.4199C30.2715 25.9219 30.3496 25.6484 30.3008 25.4922C30.2617 25.3652 29.9688 24.9941 29.6465 24.6523L29.0508 24.0371L30.0957 22.9922L31.1504 21.9473L31.7852 22.6016C32.2051 23.0508 32.4883 23.2656 32.6445 23.2656C32.7715 23.2656 33.2402 23.0898 33.6895 22.8848C34.1387 22.6699 34.6465 22.4648 34.8027 22.4258C35.3691 22.2988 35.4375 22.1621 35.4375 21.0977V20.1406H36.9414H38.4453L38.4844 21.1172Z" fill="#F2BE05"/>
<path d="M36.2383 23.9687C34.959 24.1054 33.6407 24.7792 32.7032 25.7655C31.6875 26.8593 31.1602 28.08 31.0723 29.5741C30.8965 32.4648 32.7715 35.0819 35.5352 35.8144C36.2481 36.0097 37.7422 35.9999 38.5039 35.8046C40.0079 35.414 41.6094 34.1444 42.2539 32.8163C42.8106 31.6835 42.9082 31.2538 42.8985 29.9062C42.8985 28.7831 42.8692 28.6171 42.5957 27.8847C42.0098 26.3515 41.0332 25.248 39.6465 24.5546C38.543 23.998 37.5469 23.8319 36.2383 23.9687ZM38.1036 25.2675C38.9727 25.4921 39.627 25.873 40.2911 26.537C41.7461 27.9921 42.1368 30.1308 41.2774 31.9765C41.1114 32.3476 40.9649 32.6405 40.9454 32.6405C40.9258 32.6405 40.7012 32.4159 40.4473 32.1425C40.1934 31.869 39.7539 31.5077 39.4707 31.3515L38.9629 31.0683L39.2461 30.6776C40.2129 29.3398 39.5977 27.2792 38.0352 26.6347C37.586 26.4491 36.4141 26.4491 35.9649 26.6347C34.4024 27.289 33.7872 29.3398 34.7539 30.6776L35.0372 31.0585L34.461 31.4101C34.1485 31.6054 33.7188 31.9667 33.5039 32.2011C33.2891 32.4452 33.0938 32.6405 33.0743 32.6405C33.045 32.6405 32.8887 32.3476 32.7227 31.9765C31.8633 30.1308 32.2539 27.9921 33.709 26.537C34.92 25.3261 36.5411 24.8573 38.1036 25.2675ZM37.6739 27.8554C39.0313 28.539 38.5235 30.6288 37 30.6288C35.8379 30.6288 35.125 29.2909 35.7696 28.3339C36.209 27.6894 36.9707 27.494 37.6739 27.8554ZM38.3282 32.162C38.7383 32.3183 39.0606 32.5429 39.461 32.9433C39.7735 33.246 40.0274 33.5487 40.0274 33.5976C40.0274 33.744 39.1778 34.2714 38.5723 34.5058C37.1758 35.0331 35.3399 34.7499 34.1778 33.8222L33.9336 33.6366L34.295 33.1972C35.2813 31.996 36.8243 31.5956 38.3282 32.162Z" fill="#F2BE05"/>
<path d="M16.5507 24.0078C16.3164 24.2422 16.3554 24.6816 16.6289 24.9062C16.7656 25.0039 17.4101 25.3652 18.0742 25.707C19.3925 26.3808 19.7148 26.4199 19.9297 25.9512C20.1347 25.5019 19.9199 25.2871 18.5234 24.5449C17.1953 23.8418 16.8144 23.7344 16.5507 24.0078Z" fill="#F2BE05"/>
<path d="M55.4766 24.555C54.0996 25.2874 53.9043 25.473 54.0899 25.9515C54.2656 26.4202 54.5879 26.3812 55.9649 25.6976C56.6582 25.3558 57.3125 24.9944 57.4199 24.8968C57.6445 24.6819 57.6641 24.2132 57.4492 24.0081C57.1856 23.7347 56.8047 23.8421 55.4766 24.555Z" fill="#F2BE05"/>
<path d="M15.7109 29.5156C15.6035 29.623 15.5156 29.8184 15.5156 29.9551C15.5156 30.0918 15.6035 30.2871 15.7109 30.3945C15.8867 30.5703 16.0332 30.5898 17.4199 30.5898C18.8066 30.5898 18.9531 30.5703 19.1289 30.3945C19.2363 30.2871 19.3242 30.0918 19.3242 29.9551C19.3242 29.8184 19.2363 29.623 19.1289 29.5156C18.9531 29.3398 18.8066 29.3203 17.4199 29.3203C16.0332 29.3203 15.8867 29.3398 15.7109 29.5156Z" fill="#F2BE05"/>
<path d="M54.8711 29.5156C54.7637 29.623 54.6758 29.8184 54.6758 29.9551C54.6758 30.0918 54.7637 30.2871 54.8711 30.3945C55.0469 30.5703 55.1934 30.5898 56.5801 30.5898C57.9668 30.5898 58.1133 30.5703 58.2891 30.3945C58.3965 30.2871 58.4844 30.0918 58.4844 29.9551C58.4844 29.8184 58.3965 29.623 58.2891 29.5156C58.1133 29.3398 57.9668 29.3203 56.5801 29.3203C55.1934 29.3203 55.0469 29.3398 54.8711 29.5156Z" fill="#F2BE05"/>
<path d="M17.8204 34.3105C17.127 34.6719 16.5215 35.0332 16.4727 35.1016C16.2286 35.5019 16.5313 36.0684 16.9903 36.0488C17.1172 36.0488 17.8204 35.7266 18.543 35.3457C19.9981 34.5644 20.1934 34.3496 19.8711 33.8711C19.6172 33.4707 19.2364 33.5488 17.8204 34.3105Z" fill="#F2BE05"/>
<path d="M54.1874 33.7734C54.041 33.9395 54.0117 34.457 54.1484 34.5938C54.373 34.8086 56.8535 36.0586 57.0585 36.0586C57.4199 36.0586 57.6249 35.7949 57.5859 35.3848C57.5566 35.043 57.5371 35.0234 56.2382 34.3301C54.8906 33.6074 54.4218 33.4805 54.1874 33.7734Z" fill="#F2BE05"/>
</svg>
