<svg width="75" height="76" viewBox="0 0 75 76" fill="none" xmlns="http://www.w3.org/2000/svg">
<rect y="0.900391" width="75" height="75" rx="8" fill="#FCE0FF"/>
<path d="M33.123 16.752C30.916 17.6211 29.0215 18.4219 28.9043 18.5195C28.6992 18.7051 28.6992 18.7051 28.6992 26.5566V34.3984H21.9316C15.4863 34.3984 15.1445 34.4082 14.998 34.5742C14.8418 34.7402 14.832 35.6094 14.832 45.0723V55.3945H14.0215C13.2988 55.3945 13.1816 55.4238 12.9961 55.6191C12.7129 55.9219 12.7227 56.3223 13.0254 56.6152L13.2598 56.8594H36.4434H59.627L59.8906 56.6543C60.2129 56.4004 60.2422 55.8828 59.9492 55.5898C59.7832 55.4238 59.627 55.3945 58.9727 55.3945H58.1914L58.1719 44.7988C58.1426 34.3594 58.1426 34.2031 57.9473 34.0176C57.8398 33.9102 56.1504 32.8848 54.1875 31.7422L50.623 29.6621L48.9434 29.6328L47.2539 29.6035V24.584V19.5645L47.0391 19.3301C46.8926 19.1738 45.2227 18.4219 42.1074 17.123C39.5293 16.0488 37.3516 15.1602 37.2734 15.1602C37.2051 15.1699 35.3398 15.8828 33.123 16.752ZM36.6094 36.2051V55.3945H33.3867H30.1641V37.4453V19.4961L33.2695 18.2656C34.9688 17.5918 36.4238 17.0352 36.4922 17.0254C36.5801 17.0156 36.6094 20.9121 36.6094 36.2051ZM42.0098 18.6855L45.7891 20.2676V37.8359V55.3945H41.8828H37.9766V36.1953C37.9766 20.873 38.0059 17.0059 38.1035 17.0449C38.1621 17.0742 39.9199 17.8066 42.0098 18.6855ZM49.5977 43.2363V55.3945H48.4258H47.2539V43.2363V31.0781H48.4258H49.5977V43.2363ZM54.1191 33.4219L56.7266 34.9355V45.1602V55.3945H53.8945H51.0625V43.5293V31.6543L51.2969 31.7812C51.4141 31.8496 52.6934 32.5918 54.1191 33.4219ZM28.6992 45.5801V55.3945H22.498H16.2969V45.5801V35.7656H22.498H28.6992V45.5801Z" fill="#AD11BE"/>
<path d="M34.4121 20.0918C34.1875 20.3066 34.168 20.4043 34.168 21.2148C34.168 22.0254 34.1875 22.123 34.4121 22.3379C34.5391 22.4746 34.7637 22.582 34.9004 22.582C35.0371 22.582 35.2617 22.4746 35.3887 22.3379C35.6133 22.123 35.6328 22.0254 35.6328 21.2344C35.6328 20.502 35.6035 20.3262 35.4277 20.1016C35.1641 19.7695 34.7344 19.7598 34.4121 20.0918Z" fill="#AD11BE"/>
<path d="M31.3359 20.8242C31.1699 20.9902 31.1406 21.1465 31.1406 21.9961C31.1406 23.0996 31.2773 23.3633 31.8242 23.3633C32.3711 23.3633 32.5078 23.0996 32.5078 21.9961C32.5078 20.8926 32.3711 20.6289 31.8242 20.6289C31.6582 20.6289 31.4434 20.7168 31.3359 20.8242Z" fill="#AD11BE"/>
<path d="M34.4121 25.1699C34.1875 25.3848 34.168 25.4824 34.168 26.293C34.168 27.1035 34.1875 27.2012 34.4121 27.416C34.5391 27.5527 34.7637 27.6602 34.9004 27.6602C35.0371 27.6602 35.2617 27.5527 35.3887 27.416C35.6133 27.2012 35.6328 27.1035 35.6328 26.293C35.6328 25.4824 35.6133 25.3848 35.3887 25.1699C35.2617 25.0332 35.0371 24.9258 34.9004 24.9258C34.7637 24.9258 34.5391 25.0332 34.4121 25.1699Z" fill="#AD11BE"/>
<path d="M31.3359 25.9023C31.1699 26.0684 31.1406 26.2246 31.1406 27.0742C31.1406 28.1777 31.2773 28.4414 31.8242 28.4414C32.3711 28.4414 32.5078 28.1777 32.5078 27.0742C32.5078 25.9707 32.3711 25.707 31.8242 25.707C31.6582 25.707 31.4434 25.7949 31.3359 25.9023Z" fill="#AD11BE"/>
<path d="M34.4121 30.248C34.1875 30.4629 34.168 30.5605 34.168 31.3711C34.168 32.1816 34.1875 32.2793 34.4121 32.4941C34.5391 32.6309 34.7637 32.7383 34.9004 32.7383C35.0371 32.7383 35.2617 32.6309 35.3887 32.4941C35.6133 32.2793 35.6328 32.1816 35.6328 31.3711C35.6328 30.5605 35.6133 30.4629 35.3887 30.248C35.2617 30.1113 35.0371 30.0039 34.9004 30.0039C34.7637 30.0039 34.5391 30.1113 34.4121 30.248Z" fill="#AD11BE"/>
<path d="M31.3359 30.9805C31.1699 31.1465 31.1406 31.3027 31.1406 32.1523C31.1406 33.2559 31.2773 33.5195 31.8242 33.5195C32.3711 33.5195 32.5078 33.2559 32.5078 32.1523C32.5078 31.0488 32.3711 30.7852 31.8242 30.7852C31.6582 30.7852 31.4434 30.873 31.3359 30.9805Z" fill="#AD11BE"/>
<path d="M34.4121 35.3262C34.1875 35.541 34.168 35.6387 34.168 36.4492C34.168 37.2598 34.1875 37.3574 34.4121 37.5723C34.5391 37.709 34.7637 37.8164 34.9004 37.8164C35.0371 37.8164 35.2617 37.709 35.3887 37.5723C35.6133 37.3574 35.6328 37.2598 35.6328 36.4492C35.6328 35.6387 35.6133 35.541 35.3887 35.3262C35.2617 35.1895 35.0371 35.082 34.9004 35.082C34.7637 35.082 34.5391 35.1895 34.4121 35.3262Z" fill="#AD11BE"/>
<path d="M31.5312 35.9316C31.209 36.0488 31.1406 36.293 31.1406 37.25C31.1406 38.334 31.2773 38.5977 31.8242 38.5977C32.3711 38.5977 32.5078 38.334 32.5078 37.25C32.5078 36.2441 32.4785 36.1465 32.1465 35.9707C31.9219 35.8535 31.7656 35.8438 31.5312 35.9316Z" fill="#AD11BE"/>
<path d="M34.4121 40.4043C34.1875 40.6191 34.168 40.7168 34.168 41.5078C34.168 42.5527 34.3438 42.8945 34.9004 42.8945C35.457 42.8945 35.6328 42.5527 35.6328 41.5078C35.6328 40.7168 35.6133 40.6191 35.3887 40.4043C35.2617 40.2676 35.0371 40.1602 34.9004 40.1602C34.7637 40.1602 34.5391 40.2676 34.4121 40.4043Z" fill="#AD11BE"/>
<path d="M31.4824 41.0586C31.1699 41.2344 31.1406 41.332 31.1406 42.3281C31.1406 43.4121 31.2773 43.6758 31.8242 43.6758C32.3711 43.6758 32.5078 43.4121 32.5078 42.3281C32.5078 41.3223 32.4785 41.2246 32.1465 41.0488C31.8828 40.9121 31.7363 40.9121 31.4824 41.0586Z" fill="#AD11BE"/>
<path d="M34.4121 45.4824C34.1875 45.6973 34.168 45.7949 34.168 46.5859C34.168 47.6309 34.3438 47.9727 34.9004 47.9727C35.457 47.9727 35.6328 47.6309 35.6328 46.5859C35.6328 45.7949 35.6133 45.6973 35.3887 45.4824C35.2617 45.3457 35.0371 45.2383 34.9004 45.2383C34.7637 45.2383 34.5391 45.3457 34.4121 45.4824Z" fill="#AD11BE"/>
<path d="M31.4824 46.1367C31.1699 46.3125 31.1406 46.4102 31.1406 47.4551C31.1406 48.373 31.1602 48.4609 31.3555 48.5977C31.4727 48.6855 31.6875 48.7539 31.8242 48.7539C31.9609 48.7539 32.1758 48.6855 32.293 48.5977C32.4883 48.4609 32.5078 48.373 32.5078 47.4551C32.5078 46.3906 32.4785 46.3027 32.1465 46.127C31.8828 45.9902 31.7363 45.9902 31.4824 46.1367Z" fill="#AD11BE"/>
<path d="M34.4121 50.5604C34.1875 50.7753 34.168 50.8729 34.168 51.664C34.168 52.3964 34.1973 52.5722 34.373 52.7968C34.6367 53.1288 35.125 53.1483 35.418 52.8261C35.6035 52.6308 35.6328 52.4843 35.6328 51.6933C35.6328 50.8729 35.6133 50.7753 35.3887 50.5604C35.2617 50.4237 35.0371 50.3163 34.9004 50.3163C34.7637 50.3163 34.5391 50.4237 34.4121 50.5604Z" fill="#AD11BE"/>
<path d="M31.3945 51.3027C31.1504 51.498 31.1406 51.5371 31.1406 52.5137C31.1406 53.4512 31.1602 53.5391 31.3555 53.6758C31.6387 53.8711 32.0098 53.8711 32.293 53.6758C32.4883 53.5391 32.5078 53.4512 32.5078 52.5137C32.5078 51.5371 32.498 51.498 32.2539 51.3027C32.1074 51.1855 31.9219 51.0977 31.8242 51.0977C31.7266 51.0977 31.541 51.1855 31.3945 51.3027Z" fill="#AD11BE"/>
<path d="M39.2754 19.2617C38.9434 19.3984 38.8555 19.6719 38.8555 20.6191C38.8555 21.6543 38.9922 21.8984 39.5781 21.8984C40.125 21.8984 40.3203 21.5566 40.3203 20.6191C40.3203 19.7207 40.2031 19.4082 39.8027 19.2617C39.6465 19.2129 39.5098 19.1641 39.5 19.1738C39.4902 19.1738 39.3926 19.2129 39.2754 19.2617Z" fill="#AD11BE"/>
<path d="M41.3457 20.287C41.1211 20.5019 41.1016 20.5995 41.1016 21.3905C41.1016 22.1229 41.1309 22.2987 41.3066 22.5233C41.5703 22.8554 42.0586 22.8749 42.3516 22.5526C42.5371 22.3476 42.5664 22.2206 42.5664 21.3905C42.5664 20.4921 42.5566 20.4433 42.3125 20.2479C41.9707 19.9745 41.6387 19.994 41.3457 20.287Z" fill="#AD11BE"/>
<path d="M43.6406 21.1172C43.4746 21.2832 43.4453 21.4395 43.4453 22.2891C43.4453 23.3926 43.582 23.6562 44.1289 23.6562C44.6758 23.6562 44.8125 23.3926 44.8125 22.2891C44.8125 21.1855 44.6758 20.9219 44.1289 20.9219C43.9629 20.9219 43.748 21.0098 43.6406 21.1172Z" fill="#AD11BE"/>
<path d="M39.1191 24.4375C38.8652 24.6426 38.8555 24.6719 38.8555 25.6192C38.8555 26.459 38.8848 26.6153 39.0508 26.7813C39.3438 27.0743 39.8613 27.045 40.125 26.7129C40.3105 26.4688 40.3301 26.3418 40.3008 25.5411C40.2715 24.5547 40.1836 24.3887 39.6855 24.2813C39.4707 24.2422 39.3145 24.2813 39.1191 24.4375Z" fill="#AD11BE"/>
<path d="M41.3457 25.3652C41.1211 25.58 41.1016 25.6777 41.1016 26.4882C41.1016 27.2987 41.1211 27.3964 41.3457 27.6112C41.6387 27.9042 41.9707 27.9237 42.3125 27.6503C42.5566 27.455 42.5664 27.4159 42.5664 26.4882C42.5664 25.5605 42.5566 25.5214 42.3125 25.3261C41.9707 25.0527 41.6387 25.0722 41.3457 25.3652Z" fill="#AD11BE"/>
<path d="M43.6406 26.1955C43.4746 26.3616 43.4453 26.5178 43.4453 27.3576C43.4453 28.4026 43.5137 28.5783 43.9824 28.6955C44.207 28.7541 44.6074 28.5979 44.7344 28.4026C44.7734 28.344 44.8125 27.8655 44.8125 27.3381C44.8125 26.2639 44.6758 26.0002 44.1289 26.0002C43.9629 26.0002 43.748 26.0881 43.6406 26.1955Z" fill="#AD11BE"/>
<path d="M39.1094 29.5251C38.8652 29.7205 38.8555 29.7693 38.8555 30.6775C38.8555 31.5466 38.875 31.6443 39.0801 31.8396C39.3828 32.1228 39.7832 32.113 40.0762 31.8103C40.3008 31.5955 40.3203 31.4978 40.3203 30.6873C40.3203 29.8767 40.3008 29.7791 40.0762 29.5642C39.7832 29.2712 39.4512 29.2517 39.1094 29.5251Z" fill="#AD11BE"/>
<path d="M41.3457 30.4433C41.1211 30.6581 41.1016 30.7558 41.1016 31.5663C41.1016 32.3769 41.1211 32.4745 41.3457 32.6894C41.6387 32.9823 41.9707 33.0019 42.3125 32.7284C42.5566 32.5331 42.5664 32.4843 42.5664 31.5761C42.5664 30.707 42.5469 30.6093 42.3418 30.414C42.0391 30.1308 41.6387 30.1405 41.3457 30.4433Z" fill="#AD11BE"/>
<path d="M43.6602 31.2344C43.4648 31.3711 43.4453 31.459 43.4453 32.3965C43.4453 33.373 43.4551 33.4121 43.6992 33.6074C43.8457 33.7246 44.0312 33.8125 44.1289 33.8125C44.2266 33.8125 44.4121 33.7246 44.5586 33.6074C44.8027 33.4121 44.8125 33.373 44.8125 32.3965C44.8125 31.459 44.793 31.3711 44.5977 31.2344C44.4805 31.1465 44.2656 31.0781 44.1289 31.0781C43.9922 31.0781 43.7773 31.1465 43.6602 31.2344Z" fill="#AD11BE"/>
<path d="M39.0703 34.6231C38.8848 34.8282 38.8555 34.9552 38.8555 35.7852C38.8555 36.6837 38.8652 36.7325 39.1094 36.9278C39.4316 37.1817 39.7441 37.1915 40.0371 36.9473C40.252 36.7813 40.2715 36.6641 40.3008 35.8243C40.3398 34.9356 40.3301 34.8868 40.0859 34.6427C39.7734 34.3302 39.3535 34.3204 39.0703 34.6231Z" fill="#AD11BE"/>
<path d="M41.2969 35.541C41.1114 35.7851 41.0919 35.9121 41.1212 36.7129C41.1504 37.709 41.2383 37.8652 41.7559 37.9726C42.0098 38.0215 42.1172 37.9824 42.3126 37.7871C42.5469 37.5527 42.5665 37.4746 42.5665 36.5957C42.5665 35.7949 42.5372 35.6386 42.3712 35.4726C42.0782 35.1797 41.5606 35.209 41.2969 35.541Z" fill="#AD11BE"/>
<path d="M43.6114 36.332C43.3575 36.6054 43.377 38.4023 43.6211 38.6269C43.8653 38.8515 44.4512 38.8417 44.6465 38.6171C44.9004 38.3437 44.8809 36.5468 44.6368 36.3222C44.3926 36.0976 43.8067 36.1073 43.6114 36.332Z" fill="#AD11BE"/>
<path d="M39.0508 39.6719C38.8848 39.838 38.8555 39.9942 38.8555 40.8341C38.8555 41.7813 38.8652 41.8106 39.1191 42.0157C39.3145 42.1719 39.4707 42.211 39.6855 42.1719C40.1836 42.0645 40.2715 41.8985 40.3008 40.9122C40.3301 40.1114 40.3105 39.9844 40.125 39.7403C39.8613 39.4083 39.3438 39.379 39.0508 39.6719Z" fill="#AD11BE"/>
<path d="M41.3066 40.6094C41.1406 40.8242 41.1016 41.0097 41.1016 41.6347C41.1016 42.5722 41.209 42.8652 41.5605 42.9629C42.3418 43.168 42.5664 42.875 42.5664 41.664C42.5664 40.873 42.5371 40.7168 42.3711 40.5508C42.0781 40.2578 41.5605 40.2871 41.3066 40.6094Z" fill="#AD11BE"/>
<path d="M43.6114 41.4101C43.3575 41.6835 43.377 43.4804 43.6211 43.705C43.8653 43.9296 44.4512 43.9198 44.6465 43.6952C44.9004 43.4218 44.8809 41.6249 44.6368 41.4003C44.3926 41.1757 43.8067 41.1855 43.6114 41.4101Z" fill="#AD11BE"/>
<path d="M39.0508 44.7501C38.8848 44.9161 38.8555 45.0723 38.8555 45.834C38.8555 46.3223 38.9043 46.8008 38.9629 46.9083C39.1973 47.3575 39.9883 47.3184 40.2129 46.8399C40.2715 46.7032 40.3203 46.254 40.3203 45.834C40.3203 45.209 40.2812 45.0235 40.1152 44.8086C39.8613 44.4864 39.3438 44.4571 39.0508 44.7501Z" fill="#AD11BE"/>
<path d="M41.4336 45.5117C41.1992 45.668 41.1016 46.0391 41.1016 46.752C41.1016 47.7773 41.2676 48.0703 41.8633 48.0703C42.4297 48.0703 42.5664 47.8164 42.5664 46.7715C42.5664 45.6777 42.4492 45.4336 41.9023 45.4336C41.707 45.4336 41.4922 45.4727 41.4336 45.5117Z" fill="#AD11BE"/>
<path d="M43.6992 46.4199C43.4551 46.6152 43.4453 46.6543 43.4453 47.6309C43.4453 48.5684 43.4648 48.6562 43.6602 48.793C43.7773 48.8809 43.9922 48.9492 44.1289 48.9492C44.2656 48.9492 44.4805 48.8809 44.5977 48.793C44.793 48.6562 44.8125 48.5684 44.8125 47.6309C44.8125 46.6543 44.8027 46.6152 44.5586 46.4199C44.4121 46.3027 44.2266 46.2148 44.1289 46.2148C44.0312 46.2148 43.8457 46.3027 43.6992 46.4199Z" fill="#AD11BE"/>
<path d="M39.0117 49.8477C38.8945 50.0039 38.8555 50.3066 38.8555 50.9512C38.8555 52.0254 38.9727 52.2695 39.5195 52.2695C40.1641 52.2695 40.3203 52.0059 40.3203 50.9512C40.3203 49.8965 40.1641 49.6328 39.5195 49.6328C39.2559 49.6328 39.1191 49.6914 39.0117 49.8477Z" fill="#AD11BE"/>
<path d="M41.5117 50.5117C41.209 50.6387 41.1016 50.9902 41.1016 51.8691C41.1016 52.8066 41.2969 53.1484 41.8438 53.1484C42.4297 53.1484 42.5664 52.9043 42.5664 51.8398C42.5664 51.1074 42.5273 50.8828 42.4004 50.7266C42.1855 50.4824 41.8145 50.3848 41.5117 50.5117Z" fill="#AD11BE"/>
<path d="M43.7871 51.4102C43.4746 51.5859 43.4453 51.6836 43.4453 52.6797C43.4453 53.7637 43.582 54.0273 44.1289 54.0273C44.6758 54.0273 44.8125 53.7637 44.8125 52.6797C44.8125 51.6738 44.7832 51.5762 44.4512 51.4004C44.1875 51.2637 44.041 51.2637 43.7871 51.4102Z" fill="#AD11BE"/>
<path d="M52.1367 34.3984C51.9805 34.5547 51.9414 34.7207 51.9414 35.209C51.9414 35.9609 52.1465 36.2539 52.6738 36.2539C53.2012 36.2539 53.4062 35.9609 53.4062 35.209C53.4062 34.4668 53.2109 34.2031 52.6738 34.2031C52.459 34.2031 52.2539 34.2812 52.1367 34.3984Z" fill="#AD11BE"/>
<path d="M54.4707 35.7558C54.2656 35.9218 54.2363 36.0292 54.2363 36.6445C54.2363 37.2597 54.2656 37.3671 54.4707 37.5331C54.7637 37.7773 55.1738 37.7675 55.4375 37.5234C55.623 37.3476 55.6523 37.2109 55.6523 36.6445C55.6523 36.039 55.6328 35.9609 55.3984 35.7753C55.0762 35.5214 54.7637 35.5116 54.4707 35.7558Z" fill="#AD11BE"/>
<path d="M52.1367 37.7383C51.9805 37.9043 51.9414 38.0801 51.9414 38.5684C51.9414 39.3105 52.1367 39.5742 52.6738 39.5742C53.2207 39.5742 53.4062 39.3105 53.4062 38.5488C53.4062 38.041 53.3672 37.875 53.2109 37.7188C52.9473 37.4551 52.4004 37.4551 52.1367 37.7383Z" fill="#AD11BE"/>
<path d="M54.6074 39.0079C54.1387 39.2325 54.0508 40.5118 54.4805 40.8634C54.7637 41.0977 55.2129 41.088 55.4571 40.8438C55.6133 40.6876 55.6524 40.5216 55.6524 39.9747C55.6524 39.3595 55.6328 39.2813 55.3985 39.0958C55.1153 38.8712 54.9297 38.8516 54.6074 39.0079Z" fill="#AD11BE"/>
<path d="M52.1465 41.0977C51.9902 41.293 51.9414 41.498 51.9414 41.918C51.9414 42.6406 52.1465 42.9336 52.6738 42.9336C53.2012 42.9336 53.4062 42.6406 53.4062 41.918C53.4062 41.2051 53.1621 40.8438 52.6738 40.8438C52.4395 40.8438 52.293 40.9121 52.1465 41.0977Z" fill="#AD11BE"/>
<path d="M54.4219 42.5137C54.2852 42.6699 54.2363 42.8652 54.2363 43.334C54.2363 44.0762 54.4316 44.3594 54.9395 44.3594C55.4668 44.3594 55.6523 44.0859 55.6523 43.3047C55.6523 42.7773 55.6133 42.6016 55.4766 42.4746C55.2129 42.2402 54.6465 42.2598 54.4219 42.5137Z" fill="#AD11BE"/>
<path d="M52.1855 44.4082C51.9805 44.6035 51.9414 44.7402 51.9414 45.2383C51.9414 45.7363 51.9805 45.873 52.1855 46.0684C52.4883 46.3809 52.8594 46.3809 53.1621 46.0684C53.3672 45.873 53.4062 45.7363 53.4062 45.2383C53.4062 44.7402 53.3672 44.6035 53.1621 44.4082C53.0352 44.2715 52.8105 44.1641 52.6738 44.1641C52.5371 44.1641 52.3125 44.2715 52.1855 44.4082Z" fill="#AD11BE"/>
<path d="M54.4219 45.834C54.2852 45.9902 54.2363 46.1855 54.2363 46.6543C54.2363 47.416 54.4219 47.6797 54.9688 47.6797C55.4961 47.6797 55.6523 47.4551 55.6523 46.6934C55.6523 45.8828 55.4863 45.6289 54.9785 45.6289C54.7246 45.6289 54.5488 45.6973 54.4219 45.834Z" fill="#AD11BE"/>
<path d="M52.1855 47.7285C51.9805 47.9238 51.9414 48.0605 51.9414 48.5586C51.9414 49.0566 51.9805 49.1934 52.1855 49.3887C52.4883 49.7012 52.8594 49.7012 53.1621 49.3887C53.3672 49.1934 53.4062 49.0566 53.4062 48.5586C53.4062 48.0605 53.3672 47.9238 53.1621 47.7285C53.0352 47.5918 52.8105 47.4844 52.6738 47.4844C52.5371 47.4844 52.3125 47.5918 52.1855 47.7285Z" fill="#AD11BE"/>
<path d="M54.4316 49.1447C54.2168 49.3888 54.1289 50.1017 54.2754 50.5314C54.4609 51.088 55.0273 51.2248 55.4863 50.8244C55.7402 50.5998 55.7207 49.4083 55.457 49.1447C55.2031 48.8908 54.666 48.8908 54.4316 49.1447Z" fill="#AD11BE"/>
<path d="M52.3613 50.9023C52.0586 51.0293 51.9414 51.3027 51.9414 51.9082C51.9414 52.5918 52.1953 52.9531 52.6738 52.9531C53.1621 52.9531 53.4062 52.5918 53.4062 51.8789C53.4062 51.4883 53.3574 51.2539 53.2402 51.1172C53.0352 50.873 52.6543 50.7754 52.3613 50.9023Z" fill="#AD11BE"/>
<path d="M54.4805 52.4451C54.1777 52.6893 54.0898 53.5584 54.3242 54.0076C54.5293 54.408 54.9883 54.5154 55.3496 54.2518C55.5742 54.076 55.6035 53.9783 55.6328 53.3631C55.6523 52.7674 55.6328 52.6404 55.457 52.4647C55.2129 52.2205 54.7637 52.2108 54.4805 52.4451Z" fill="#AD11BE"/>
<path d="M17.3223 37.1816C17.1855 37.3086 17.0781 37.5332 17.0781 37.6699C17.0781 37.8066 17.1855 38.0312 17.3223 38.1582C17.5371 38.3828 17.625 38.4023 18.5234 38.4023C19.6953 38.4023 19.9492 38.2754 19.9492 37.6699C19.9492 37.0645 19.6953 36.9375 18.5234 36.9375C17.625 36.9375 17.5371 36.957 17.3223 37.1816Z" fill="#AD11BE"/>
<path d="M21.2774 37.1328C20.9746 37.4355 20.9844 37.9629 21.2969 38.2266C21.4531 38.373 21.6777 38.4023 22.4492 38.4023C23.2598 38.4023 23.4356 38.373 23.6602 38.1973C23.9922 37.9336 24.002 37.5039 23.6699 37.1816C23.4551 36.957 23.3672 36.9375 22.4492 36.9375C21.5996 36.9375 21.4434 36.9668 21.2774 37.1328Z" fill="#AD11BE"/>
<path d="M25.2422 37.1426C24.9101 37.4062 24.8906 37.8945 25.2129 38.1875C25.4179 38.3828 25.5449 38.4023 26.4336 38.4023C27.5761 38.4023 27.8203 38.2754 27.8203 37.6895C27.8203 37.084 27.5371 36.9375 26.375 36.9375C25.6426 36.9375 25.4668 36.9668 25.2422 37.1426Z" fill="#AD11BE"/>
<path d="M17.3223 40.2969C17.1855 40.3945 17.127 40.5508 17.127 40.8438C17.127 41.4492 17.293 41.5273 18.5527 41.5273C19.5684 41.5273 19.6074 41.5176 19.8027 41.2734C19.9199 41.127 20.0078 40.9414 20.0078 40.8438C20.0078 40.7461 19.9199 40.5605 19.8027 40.4141C19.6074 40.1699 19.5684 40.1602 18.5527 40.1602C17.8105 40.1602 17.4492 40.1992 17.3223 40.2969Z" fill="#AD11BE"/>
<path d="M21.2285 40.3555C21.1309 40.4629 21.0527 40.6875 21.0527 40.8438C21.0527 41 21.1309 41.2246 21.2285 41.332C21.3848 41.5078 21.5312 41.5273 22.4688 41.5273C23.6602 41.5273 23.9141 41.4102 23.9141 40.8438C23.9141 40.2773 23.6602 40.1602 22.4688 40.1602C21.5312 40.1602 21.3848 40.1797 21.2285 40.3555Z" fill="#AD11BE"/>
<path d="M25.1445 40.375C25.0566 40.4922 24.9883 40.707 24.9883 40.8438C24.9883 40.9805 25.0566 41.1953 25.1445 41.3125C25.2812 41.5176 25.3691 41.5273 26.3945 41.5273C27.6445 41.5273 27.8203 41.4395 27.8203 40.8242C27.8203 40.248 27.625 40.1602 26.375 40.1602C25.3691 40.1602 25.2812 40.1797 25.1445 40.375Z" fill="#AD11BE"/>
<path d="M17.3223 43.5293C17.1855 43.6562 17.0781 43.8809 17.0781 44.0176C17.0781 44.1543 17.1855 44.3789 17.3223 44.5059C17.5371 44.7305 17.625 44.75 18.5234 44.75C19.6953 44.75 19.9492 44.623 19.9492 44.0176C19.9492 43.4121 19.6953 43.2852 18.5234 43.2852C17.625 43.2852 17.5371 43.3047 17.3223 43.5293Z" fill="#AD11BE"/>
<path d="M21.2969 43.4512C20.9844 43.7246 20.9746 44.252 21.2774 44.5547C21.4434 44.7207 21.5996 44.75 22.4492 44.75C23.3672 44.75 23.4551 44.7305 23.6699 44.5059C24.002 44.1836 23.9922 43.7539 23.6602 43.4902C23.4356 43.3145 23.2598 43.2852 22.4492 43.2852C21.6777 43.2852 21.4531 43.3145 21.2969 43.4512Z" fill="#AD11BE"/>
<path d="M25.2032 43.5098C24.9004 43.832 24.9199 44.291 25.2422 44.5449C25.4668 44.7207 25.6426 44.75 26.375 44.75C27.5371 44.75 27.8203 44.6035 27.8203 43.9883C27.8203 43.4121 27.5762 43.2852 26.4239 43.2852C25.4961 43.2852 25.3985 43.3047 25.2032 43.5098Z" fill="#AD11BE"/>
<path d="M17.2734 46.7032C17.0488 46.9278 17.0293 47.1719 17.1953 47.5332C17.3418 47.8555 17.5078 47.8848 18.6797 47.8555C19.5976 47.8262 19.6562 47.8164 19.8418 47.5625C19.9687 47.3867 20.0176 47.2305 19.9687 47.0645C19.8515 46.5664 19.6855 46.5078 18.5332 46.5078C17.5957 46.5078 17.4492 46.5274 17.2734 46.7032Z" fill="#AD11BE"/>
<path d="M21.2285 46.7031C21.1309 46.8105 21.0527 47.0352 21.0527 47.1914C21.0527 47.3477 21.1309 47.5723 21.2285 47.6797C21.3848 47.8555 21.5312 47.875 22.4688 47.875C23.6602 47.875 23.9141 47.7578 23.9141 47.1914C23.9141 46.625 23.6602 46.5078 22.4688 46.5078C21.5312 46.5078 21.3848 46.5273 21.2285 46.7031Z" fill="#AD11BE"/>
<path d="M25.1445 46.7227C24.9297 47.0254 24.9492 47.4453 25.1836 47.6797C25.3594 47.8555 25.5058 47.875 26.4336 47.875C27.6445 47.875 27.8203 47.7871 27.8203 47.1719C27.8203 46.5957 27.625 46.5078 26.375 46.5078C25.3691 46.5078 25.2812 46.5273 25.1445 46.7227Z" fill="#AD11BE"/>
<path d="M17.3223 49.877C17.1855 50.0039 17.0781 50.2285 17.0781 50.3652C17.0781 50.502 17.1855 50.7266 17.3223 50.8535C17.5371 51.0781 17.625 51.0977 18.5234 51.0977C19.627 51.0977 19.8613 50.9902 19.9688 50.4434C20.0176 50.1895 19.9785 50.082 19.7832 49.8867C19.5391 49.6523 19.4707 49.6328 18.543 49.6328C17.625 49.6328 17.5371 49.6523 17.3223 49.877Z" fill="#AD11BE"/>
<path d="M21.2969 49.7988C20.9844 50.0723 20.9746 50.5996 21.2774 50.9023C21.4434 51.0684 21.5996 51.0977 22.4492 51.0977C23.3672 51.0977 23.4551 51.0781 23.6699 50.8535C23.9824 50.5508 23.9922 50.1309 23.6895 49.8477C23.4844 49.6523 23.3574 49.6328 22.4785 49.6328C21.6777 49.6328 21.4531 49.6621 21.2969 49.7988Z" fill="#AD11BE"/>
<path d="M25.2031 49.8281C24.8906 50.1211 24.9102 50.6289 25.2422 50.8926C25.4668 51.0684 25.6426 51.0977 26.4043 51.0977C27.4883 51.0977 27.8203 50.9219 27.8203 50.3555C27.8203 49.7598 27.5859 49.6328 26.4238 49.6328C25.5449 49.6328 25.3887 49.6621 25.2031 49.8281Z" fill="#AD11BE"/>
<path d="M17.2734 53.051C17.0195 53.3049 17.0292 53.6369 17.2832 53.9689C17.4882 54.2229 17.498 54.2326 18.5624 54.2033C19.6074 54.174 19.6562 54.1643 19.8417 53.9104C19.9687 53.7346 20.0175 53.5783 19.9687 53.4123C19.8515 52.9143 19.6855 52.8557 18.5332 52.8557C17.5957 52.8557 17.4492 52.8752 17.2734 53.051Z" fill="#AD11BE"/>
<path d="M21.2285 53.0508C21.0137 53.2949 21.0137 53.793 21.2383 54.0371C21.3848 54.1934 21.5508 54.2227 22.4688 54.2227C23.3965 54.2227 23.543 54.2031 23.7188 54.0273C23.9531 53.793 23.9727 53.373 23.7578 53.0703C23.6211 52.8652 23.5332 52.8555 22.5078 52.8555C21.5313 52.8555 21.3848 52.875 21.2285 53.0508Z" fill="#AD11BE"/>
<path d="M25.1543 53.0312C24.9297 53.2754 24.9492 53.793 25.1836 54.0273C25.3496 54.1934 25.5059 54.2227 26.3848 54.2227C27.5957 54.2227 27.8203 54.1152 27.8203 53.5488C27.8203 52.9434 27.6445 52.8555 26.3848 52.8555C25.4668 52.8555 25.291 52.8848 25.1543 53.0312Z" fill="#AD11BE"/>
</svg>
