<svg width="37" height="36" viewBox="0 0 37 36" fill="none" xmlns="http://www.w3.org/2000/svg">
<path d="M18.5 0.125C15.0204 0.125259 11.6189 1.15733 8.72584 3.09072C5.83273 5.0241 3.5779 7.77196 2.24647 10.9868C0.915041 14.2017 0.566813 17.7392 1.24582 21.1519C1.92483 24.5647 3.60057 27.6995 6.06115 30.1599C8.52174 32.6203 11.6566 34.2958 15.0695 34.9745C18.4823 35.6533 22.0197 35.3048 25.2345 33.9731C28.4493 32.6415 31.1969 30.3864 33.1301 27.4932C35.0633 24.5999 36.0951 21.1984 36.0951 17.7188C36.0942 13.0526 34.2402 8.5779 30.9406 5.27859C27.641 1.97927 23.1662 0.12552 18.5 0.125ZM26.5821 14.1438C26.5906 14.317 26.5939 14.4896 26.5939 14.6667C26.5939 19.9766 22.6169 26.0996 15.3441 26.1009C13.1913 26.1016 11.0852 25.4741 9.28383 24.2954C10.3211 24.4194 11.3726 24.336 12.3774 24.0502C13.3822 23.7644 14.3201 23.2818 15.1369 22.6305C14.3065 22.6106 13.5033 22.3305 12.8407 21.8297C12.1781 21.3289 11.6894 20.6327 11.4436 19.8393C11.6884 19.8877 11.9373 19.9123 12.1868 19.9125C12.5391 19.9125 12.8898 19.865 13.2294 19.7713C12.3274 19.58 11.519 19.0831 10.9409 18.3647C10.3628 17.6463 10.0504 16.7504 10.0565 15.8283V15.7767C10.6038 16.0872 11.2186 16.2598 11.8476 16.2794C11.0082 15.7014 10.4165 14.8292 10.1897 13.8356C9.96299 12.842 10.1177 11.7995 10.6232 10.9146C11.607 12.1512 12.8421 13.1649 14.2469 13.8885C15.6516 14.6122 17.194 15.0294 18.772 15.1125C18.7038 14.8123 18.6696 14.5053 18.67 14.1974C18.6618 13.1402 19.0738 12.123 19.8154 11.3695C20.5571 10.616 21.5676 10.1879 22.6248 10.1792C23.1673 10.1797 23.7039 10.2928 24.2006 10.5113C24.6972 10.7298 25.1431 11.049 25.5101 11.4487C26.3966 11.2699 27.2457 10.9398 28.0202 10.4727C27.7283 11.3994 27.1106 12.1889 26.2814 12.6952C27.0671 12.6013 27.8339 12.3884 28.5556 12.0638C28.0272 12.869 27.3594 13.5734 26.5834 14.1438H26.5821Z" fill="url(#paint0_linear_130_11114)"/>
<defs>
<linearGradient id="paint0_linear_130_11114" x1="18.5013" y1="0.125" x2="18.5013" y2="35.3125" gradientUnits="userSpaceOnUse">
<stop stop-color="#FF8331"/>
<stop offset="1" stop-color="#DC5F19"/>
</linearGradient>
</defs>
</svg>
