<svg width="36" height="36" viewBox="0 0 36 36" fill="none" xmlns="http://www.w3.org/2000/svg">
<path d="M31.9763 0H3.82377C3.36087 0.00184409 2.90289 0.095082 2.47611 0.274363C2.04934 0.453644 1.66216 0.715439 1.33681 1.04472C1.01146 1.37401 0.754343 1.7643 0.580207 2.1932C0.40607 2.62211 0.318345 3.08117 0.322067 3.54406L0.30481 35.4351L7.34273 28.3486H31.9739C32.4377 28.3471 32.8967 28.2543 33.3246 28.0754C33.7526 27.8965 34.141 27.635 34.4678 27.3058C34.7947 26.9767 35.0534 26.5864 35.2293 26.1572C35.4051 25.728 35.4947 25.2683 35.4929 24.8045V3.54406C35.4947 3.08044 35.4052 2.62099 35.2295 2.19195C35.0538 1.76292 34.7952 1.3727 34.4687 1.0436C34.1421 0.714488 33.7539 0.452934 33.3263 0.273872C32.8986 0.0948102 32.4399 0.00174777 31.9763 0ZM12.3702 16.2009H8.34838V13.1643H12.3702V16.2009ZM20.4137 16.2009H16.3919V13.1643H20.4137V16.2009ZM26.4468 16.2009H22.4258V13.1643H26.4476L26.4468 16.2009Z" fill="url(#paint0_linear_130_11120)"/>
<defs>
<linearGradient id="paint0_linear_130_11120" x1="17.8988" y1="0" x2="17.8988" y2="35.4351" gradientUnits="userSpaceOnUse">
<stop stop-color="#FF8331"/>
<stop offset="1" stop-color="#DC5F19"/>
</linearGradient>
</defs>
</svg>
