<svg width="36" height="36" viewBox="0 0 36 36" fill="none" xmlns="http://www.w3.org/2000/svg">
<path d="M17.6987 35.3191C21.1797 35.3194 24.5826 34.2874 27.4771 32.3536C30.3716 30.4198 32.6277 27.6711 33.9599 24.4551C35.2922 21.2391 35.6409 17.7003 34.9619 14.2861C34.2829 10.872 32.6067 7.73581 30.1453 5.2743C27.6839 2.81279 24.5478 1.13648 21.1336 0.457344C17.7195 -0.221788 14.1806 0.126767 10.9646 1.45893C7.74855 2.7911 4.99978 5.04703 3.06588 7.94145C1.13199 10.8359 0.0998463 14.2388 0.0999756 17.7198C0.100149 22.3873 1.95433 26.8635 5.25467 30.164C8.555 33.4645 13.0312 35.3188 17.6987 35.3191ZM8.15228 17.3379L25.1213 10.7948C25.9059 10.5097 26.5964 10.9909 26.3414 12.1777L23.454 25.7885C23.2395 26.7542 22.6661 26.9883 21.8638 26.5345L17.4639 23.2914L15.3415 25.336C15.2368 25.4716 15.1022 25.5811 14.9482 25.6561C14.7941 25.7311 14.6249 25.7694 14.4536 25.7682L14.7661 21.2905L22.9198 13.9235C23.2755 13.6109 22.8406 13.435 22.3731 13.7456L12.2965 20.0881L7.95286 18.7339C7.00999 18.4345 6.98972 17.7911 8.14902 17.336L8.15228 17.3379Z" fill="url(#paint0_linear_130_11117)"/>
<defs>
<linearGradient id="paint0_linear_130_11117" x1="17.7" y1="0.119141" x2="17.7" y2="35.3191" gradientUnits="userSpaceOnUse">
<stop stop-color="#FF8331"/>
<stop offset="1" stop-color="#DC5F19"/>
</linearGradient>
</defs>
</svg>
