<svg width="71" height="70" viewBox="0 0 71 70" fill="none" xmlns="http://www.w3.org/2000/svg">
<path d="M31.7129 0.0956955C22.5391 1.08007 14.2266 5.46874 8.375 12.4414C4.25977 17.3359 1.70312 22.8867 0.568359 29.3945C0.308594 30.8848 0.28125 31.6094 0.28125 35C0.28125 38.3906 0.308594 39.1152 0.568359 40.6055C1.85352 47.9883 4.94336 54.0996 10.043 59.3906C15.2793 64.832 21.8828 68.2773 29.5938 69.6309C31.084 69.8906 31.8086 69.918 35.1992 69.918C39.4785 69.918 40.7637 69.7812 44.127 68.9199C56.1719 65.8027 66.002 55.9727 69.1191 43.9277C69.9805 40.5645 70.1172 39.2793 70.1172 35C70.1172 31.6094 70.0898 30.8848 69.8301 29.3945C68.4766 21.6836 65.0176 15.0801 59.5898 9.84375C54.3125 4.7578 48.1465 1.64062 40.8867 0.396477C39.5605 0.164055 38.5352 0.0956955 35.7461 0.0683517C33.832 0.041008 32.0137 0.0546799 31.7129 0.0956955ZM39.4375 5.81054C46.082 6.87695 51.3184 9.54296 55.9805 14.2187C60.0547 18.2793 62.7344 23.0781 63.9648 28.4375C64.9219 32.6621 64.9219 37.3379 63.9648 41.5625C62.3105 48.8359 57.7715 55.3164 51.2363 59.7187C48.7207 61.4141 44.9062 63.041 41.7617 63.7656C37.5371 64.7227 32.8613 64.7227 28.6367 63.7656C21.3633 62.1113 14.8828 57.5723 10.4805 51.0371C8.78516 48.5215 7.1582 44.707 6.43359 41.5625C5.47656 37.3379 5.47656 32.6621 6.43359 28.4375C7.66406 23.0781 10.3438 18.2793 14.418 14.2187C19.5723 9.05078 25.4648 6.3164 33.0801 5.55077C34.1602 5.4414 38.166 5.60546 39.4375 5.81054Z" fill="white"/>
<path d="M48.7887 22.1348C48.5563 22.1895 48.1871 22.3535 47.9684 22.4766C47.7496 22.6133 43.8258 26.8516 39.2457 31.8965L30.9059 41.084L26.8043 36.9414C24.4254 34.5352 22.4567 32.6758 22.1559 32.5117C21.7321 32.293 21.4313 32.252 20.775 32.293C19.2985 32.3887 18.3825 33.291 18.2731 34.7266C18.1637 36.1758 18.0953 36.0938 23.8102 41.8906C26.7086 44.8301 29.32 47.3867 29.6207 47.5645C30.3864 48.0293 31.5075 48.0293 32.3141 47.5645C32.9977 47.1816 51.4684 26.9063 51.8922 26.0859C52.3981 25.1016 52.1383 23.4883 51.3864 22.8184C50.7301 22.2441 49.5817 21.9434 48.7887 22.1348Z" fill="white"/>
</svg>
