<svg width="67" height="70" viewBox="0 0 67 70" fill="none" xmlns="http://www.w3.org/2000/svg">
<path d="M33.0627 0.260086C32.9943 0.410477 32.926 1.23079 32.926 2.09212V3.65071L31.3264 3.74641C20.8537 4.3343 11.4611 9.70736 5.58222 18.4574C-1.48614 28.971 -1.82793 43.0804 4.70722 53.8949C9.08222 61.1273 15.8908 66.4183 23.7932 68.7015C27.3615 69.7406 29.9592 70.055 34.0197 69.9593C37.4377 69.8909 39.2287 69.6449 42.1408 68.8382C45.258 67.9906 49.2639 66.1859 50.1799 65.2288C51.342 64.012 51.1779 62.221 49.7971 61.1683C49.3869 60.8538 49.1271 60.7718 48.3889 60.7308C47.5275 60.6761 47.4318 60.7034 46.1877 61.3597C40.5412 64.3128 34.0197 65.2699 27.799 64.0394C19.1447 62.3304 11.5842 56.3148 7.9748 48.262C4.57051 40.6878 4.69355 32.1702 8.30293 24.7874C12.0627 17.1038 18.9943 11.6488 27.3205 9.80305C29.0021 9.42024 31.0666 9.16048 32.2971 9.16048H33.049L33.09 10.8831C33.1311 12.7699 33.2268 12.9886 33.8967 12.8109C34.2521 12.7152 40.3361 7.60188 40.6779 7.1097C40.965 6.71321 40.9377 5.96126 40.6369 5.5511C40.4865 5.3597 38.9416 4.03352 37.1916 2.61165C34.676 0.547195 33.924 0.000320435 33.6096 0.000320435C33.3498 0.000320435 33.1584 0.0960236 33.0627 0.260086Z" fill="white"/>
<path d="M48.9633 8.6961C48.4847 8.80547 47.4457 9.80352 47.2816 10.3367C47.0218 11.1297 47.1586 12.3328 47.5961 12.8934C47.9379 13.3445 49.264 14.3699 50.016 14.7664C51.5199 15.5731 53.4476 14.8074 53.9125 13.2215C54.3636 11.7176 53.8851 10.7879 52.0394 9.53008C51.0004 8.80547 50.7953 8.72344 50.0707 8.68243C49.6332 8.65508 49.1273 8.66875 48.9633 8.6961Z" fill="white"/>
<path d="M56.7834 15.709C55.8401 15.9551 55.0471 16.7344 54.7873 17.6641C54.5139 18.7031 54.7737 19.4414 55.9221 20.9863C56.8108 22.1484 57.4534 22.5586 58.4651 22.5586C60.1604 22.5586 61.3772 21.2051 61.1858 19.5371C61.1037 18.8398 60.9944 18.6348 59.9826 17.2266C59.0666 15.9551 57.9319 15.4082 56.7834 15.709Z" fill="white"/>
<path d="M27.1424 17.0488C27.033 17.2676 26.7459 18.0332 26.4998 18.7715C26.0896 20.0293 26.076 20.125 26.281 20.4395C26.4041 20.6309 26.5818 20.7813 26.6775 20.7813C27.1971 20.7949 27.1697 21 26.158 23.9941C25.0232 27.3438 24.8865 28.2461 25.3924 29.3262C25.5291 29.627 26.7869 31.2402 28.1814 32.9219L30.7244 35.9707L30.5057 36.6133C30.3826 36.9688 30.2732 37.2695 30.2596 37.2969C30.2322 37.3242 28.5916 37.707 26.6092 38.1582C22.7127 39.0332 21.8787 39.3477 21.1131 40.1953C20.4705 40.9199 20.2518 41.3711 19.3221 44.0508L18.5428 46.334L17.9685 46.2656C17.2439 46.1563 17.1756 46.2383 16.5877 48.002C16.0545 49.5469 16.0271 49.793 16.2869 50.0117C16.4783 50.1758 38.8865 57.832 39.16 57.832C39.4607 57.832 39.7342 57.3398 40.2264 55.877C40.7732 54.2363 40.7459 53.9629 40.0213 53.7031C39.7889 53.6211 39.6385 53.498 39.6658 53.4023C39.6932 53.3203 40.1033 52.0898 40.5682 50.668C41.5252 47.7969 41.6482 46.8398 41.2107 45.9102C41.074 45.623 39.8025 44.0098 38.3943 42.3008L35.824 39.2109L36.0428 38.541C36.1658 38.1719 36.3572 37.8438 36.4666 37.8027C36.5896 37.7754 38.2303 37.4063 40.1033 36.9824C43.8084 36.1621 44.656 35.8477 45.4217 35C46.1053 34.2344 46.3924 33.6055 47.3494 30.7617L48.1971 28.2324L48.8123 28.2734C49.2225 28.3008 49.4685 28.2598 49.5916 28.123C49.783 27.877 50.699 25.1973 50.699 24.8555C50.699 24.7188 50.5623 24.5273 50.3982 24.418C49.9881 24.1582 27.949 16.6797 27.5935 16.6797C27.4432 16.6797 27.2518 16.8301 27.1424 17.0488ZM37.6424 24.4727C42.0857 25.9766 45.7908 27.2344 45.8728 27.2754C45.9959 27.3164 45.7635 28.1504 45.1072 30.0918C44.1365 32.9082 43.8631 33.4141 43.0428 33.8379C42.8514 33.9336 40.951 34.3984 38.8045 34.877C35.7967 35.5469 34.8396 35.8066 34.6209 36.0254C34.2244 36.4219 33.281 39.2793 33.4041 39.7441C33.4451 39.9492 34.7439 41.6172 36.2889 43.4629C38.7635 46.4297 39.0779 46.8672 39.0779 47.3047C39.0779 47.6738 37.5467 52.5684 37.3826 52.7461C37.3416 52.7871 20.8943 47.209 20.826 47.1406C20.7576 47.0723 22.2068 42.875 22.4529 42.4238C22.74 41.8633 23.3963 41.3301 24.0115 41.1523C24.285 41.0703 26.1307 40.6465 28.1131 40.209C30.2322 39.7441 31.7908 39.334 31.9412 39.1973C32.283 38.8965 33.2674 35.8203 33.158 35.3965C33.117 35.2188 31.8728 33.6328 30.3963 31.8828C27.5525 28.4785 27.4568 28.3555 27.4568 27.8633C27.4568 27.4805 29.3572 21.7383 29.4803 21.7383C29.535 21.7383 33.2127 22.9688 37.6424 24.4727Z" fill="white"/>
<path d="M60.9805 25.1159C60.1328 25.5261 59.4492 26.6062 59.4492 27.5495C59.4492 28.0007 60.1328 30.2429 60.4336 30.7761C61.0352 31.8562 62.375 32.28 63.7695 31.8425C64.6172 31.5827 65.4648 30.3386 65.4648 29.3542C65.4648 28.7527 64.8223 26.5652 64.4805 26.0046C64.0566 25.3074 63.1953 24.8835 62.2383 24.8835C61.7734 24.8835 61.2402 24.9792 60.9805 25.1159Z" fill="white"/>
<path d="M62.3616 35.4244C62.0608 35.5747 61.6233 35.9439 61.4183 36.2447C61.0901 36.7232 61.0218 36.9966 60.9124 38.3228C60.7483 40.2095 60.8851 40.8111 61.637 41.563C62.8401 42.7662 64.8089 42.6021 65.7796 41.2076C66.1214 40.729 66.1897 40.4556 66.2991 39.1431C66.4632 37.3794 66.3401 36.7369 65.7386 36.0396C65.5061 35.7798 65.1233 35.479 64.8636 35.356C64.2073 35.0415 63.0589 35.0689 62.3616 35.4244Z" fill="white"/>
<path d="M60.4748 45.4316C59.7639 45.7598 59.217 46.4707 58.6838 47.7559C58.0686 49.2051 58.0139 50.0527 58.4651 50.9277C58.9436 51.8848 59.7639 52.3633 60.885 52.3633C62.2112 52.3633 63.0588 51.584 63.8245 49.6836C64.5764 47.7969 64.344 46.5117 63.1272 45.7051C62.4573 45.2676 61.1448 45.1309 60.4748 45.4316Z" fill="white"/>
<path d="M54.9243 54.4141C54.6509 54.5508 53.9946 55.1798 53.4614 55.7813C52.2856 57.1485 52.0532 57.8048 52.395 58.9532C52.8872 60.6348 54.7466 61.3868 56.3735 60.5391C56.852 60.2794 58.3423 58.6524 58.6704 58.0098C58.8071 57.7501 58.9028 57.2442 58.9028 56.8067C58.9028 55.7813 58.52 55.0567 57.7134 54.5372C57.1802 54.2091 56.9341 54.1407 56.2505 54.1407C55.7036 54.1544 55.2388 54.2364 54.9243 54.4141Z" fill="white"/>
</svg>
