<svg width="14" height="14" viewBox="0 0 14 14" fill="none" xmlns="http://www.w3.org/2000/svg">
<g clip-path="url(#clip0_130_10948)">
<path d="M6.7932 7.19834e-06C5.44858 0.00135182 4.13454 0.401307 3.01718 1.14932C1.89982 1.89733 1.02931 2.95981 0.515673 4.20247C0.0020392 5.44512 -0.131654 6.81216 0.131493 8.13078C0.39464 9.44941 1.04281 10.6604 1.99408 11.6107C2.94535 12.561 4.157 13.208 5.47589 13.4698C6.79477 13.7317 8.16168 13.5966 9.40382 13.0817C10.646 12.5669 11.7076 11.6953 12.4545 10.5772C13.2014 9.45907 13.6 8.14463 13.6 6.80001C13.6004 5.90633 13.4246 5.02135 13.0826 4.19571C12.7406 3.37007 12.2391 2.61998 11.6068 1.98837C10.9746 1.35676 10.224 0.856032 9.39802 0.514844C8.57204 0.173657 7.68688 -0.00129338 6.7932 7.19834e-06ZM6.8 12.24C5.72407 12.24 4.6723 11.921 3.7777 11.3232C2.8831 10.7254 2.18584 9.87584 1.7741 8.88181C1.36236 7.88778 1.25463 6.79397 1.46453 5.73872C1.67443 4.68346 2.19254 3.71414 2.95334 2.95335C3.71414 2.19255 4.68345 1.67444 5.73871 1.46454C6.79397 1.25463 7.88777 1.36236 8.8818 1.7741C9.87583 2.18584 10.7254 2.8831 11.3232 3.7777C11.921 4.67231 12.24 5.72408 12.24 6.80001C12.24 8.24278 11.6669 9.62647 10.6467 10.6467C9.62647 11.6669 8.24278 12.24 6.8 12.24Z" fill="#232735"/>
<path d="M3.72793 5.1873L3.23808 6.10869L6.63267 8.23702L10.1298 6.12879L9.679 5.23181L6.69868 7.04951L3.72793 5.1873Z" fill="#232735"/>
</g>
<defs>
<clipPath id="clip0_130_10948">
<rect width="13.6" height="13.6" fill="white"/>
</clipPath>
</defs>
</svg>
