<svg width="14" height="16" viewBox="0 0 14 16" fill="none" xmlns="http://www.w3.org/2000/svg">
<path d="M12.0849 1.76007H11.3302V0.25H9.82011V1.76007H3.77982V0.25H2.26756V1.76007H1.51508C1.31712 1.76007 1.1211 1.79918 0.9383 1.87516C0.755498 1.95114 0.589509 2.06248 0.449867 2.2028C0.310226 2.34312 0.199685 2.50965 0.124594 2.69282C0.0495029 2.87599 0.0113422 3.07219 0.0123036 3.27015L0.00500506 13.8399C0.00490913 14.0383 0.0439029 14.2347 0.119757 14.4179C0.195611 14.6012 0.306839 14.7677 0.447081 14.9079C0.587324 15.0482 0.753831 15.1594 0.937085 15.2352C1.12034 15.3111 1.31675 15.3501 1.51508 15.35H12.0849C12.485 15.3488 12.8684 15.1894 13.1514 14.9064C13.4343 14.6235 13.5938 14.2401 13.5949 13.8399V3.27015C13.5938 2.87 13.4343 2.48658 13.1514 2.20364C12.8684 1.9207 12.485 1.76123 12.0849 1.76007ZM12.0849 13.8399H1.51508V5.53489H12.0849V13.8399ZM3.02515 7.04496H6.79997V10.8198H3.02515V7.04496Z" fill="#232735"/>
</svg>
