<svg width="49" height="48" viewBox="0 0 49 48" fill="none" xmlns="http://www.w3.org/2000/svg">
<g clip-path="url(#clip0_130_12914)">
<g clip-path="url(#clip1_130_12914)">
<path fill-rule="evenodd" clip-rule="evenodd" d="M29.7464 17.3271L26.1329 19.8554C26.1329 19.8554 26.5643 21.3106 28.097 21.0219L31.4191 19.6441C31.4191 19.6441 34.1629 18.3885 35.4992 20.6948C36.8354 23.0012 35.8127 27.21 33.4117 29.1802C33.4117 29.1802 32.4055 30.3842 28.6871 31.5922C28.6871 31.5922 27.6335 32.1652 26.642 31.7161C25.6504 31.2669 25.8673 30.0899 25.8673 30.0899L25.8875 19.8749L28.3521 17.5139C28.3521 17.5139 29.0194 16.8061 29.7464 17.3271ZM26.0119 21.2157C26.0132 21.2178 26.4711 21.9684 27.6014 22.1577L27.5881 22.2375C26.4213 22.0421 25.9445 21.2607 25.9431 21.2585L26.0119 21.2157H26.0119ZM26.0793 20.7237C26.0806 20.7258 26.5385 21.4764 27.6688 21.6657L27.6555 21.7455C26.4887 21.5501 26.0119 20.7687 26.0105 20.7665L26.0793 20.7237ZM30.4259 22.9054L30.4727 28.0614L31.7927 27.523C31.7927 27.523 32.9064 26.9797 33.4856 25.4301C34.0647 23.8804 33.5034 22.491 32.3808 22.3307C32.3808 22.3307 31.5611 22.2594 30.426 22.9055L30.4259 22.9054Z" fill="url(#paint0_linear_130_12914)"/>
<path fill-rule="evenodd" clip-rule="evenodd" d="M26.5254 20.0014L30.9704 16.8877L30.9969 17.3615L30.9039 17.1932L26.5254 20.0014Z" fill="#098A4E"/>
<path fill-rule="evenodd" clip-rule="evenodd" d="M26.7222 20.3105L31.6612 17.3262L31.6744 17.9417L31.515 17.7336L26.7222 20.3105Z" fill="#098A4E"/>
<path fill-rule="evenodd" clip-rule="evenodd" d="M27.1963 20.5816L32.3568 17.7168L32.3612 18.3146C32.3612 18.3146 32.2815 18.164 32.1574 18.2127L27.1963 20.5816H27.1963Z" fill="#098A4E"/>
<path fill-rule="evenodd" clip-rule="evenodd" d="M27.6792 20.7895L33.0124 18.1904L33.039 18.6907L32.9416 18.5225L27.6792 20.7895Z" fill="#098A4E"/>
<path d="M45.1345 28.5782L40.594 28.5469L39.5326 31.8394L37.1255 30.8931C37.1568 30.7966 37.2168 30.6115 37.3055 30.3378C37.3941 30.0667 37.5062 29.7278 37.6419 29.3185C37.7775 28.9118 37.9287 28.453 38.0957 27.942C38.2652 27.4285 38.4425 26.8889 38.6277 26.3206C38.8128 25.7549 39.0058 25.1709 39.2041 24.5713C39.4023 23.9744 39.5979 23.3826 39.7934 22.8013C39.9864 22.2173 40.1716 21.6569 40.3516 21.1172C40.5289 20.5776 40.6932 20.0823 40.8445 19.6339C40.9931 19.1881 41.1235 18.7971 41.2357 18.4634C41.3478 18.1297 41.4339 17.8794 41.4886 17.71L44.0627 17.6865C44.1357 17.8507 44.2322 18.0984 44.3574 18.4295C44.4826 18.7605 44.626 19.149 44.7851 19.5974C44.9468 20.0458 45.1189 20.5411 45.3041 21.0833C45.4919 21.6256 45.6848 22.1886 45.8856 22.7778C46.0865 23.3669 46.2899 23.9613 46.4933 24.5661C46.6967 25.1683 46.8949 25.7575 47.0853 26.3284C47.2757 26.9019 47.4582 27.4467 47.6278 27.9629C47.7999 28.4817 47.9511 28.9431 48.0867 29.3524C48.2224 29.7643 48.3345 30.1058 48.4258 30.3821C48.5171 30.6558 48.5796 30.8409 48.6109 30.9374L46.2038 31.8863L45.1345 28.5781L45.1345 28.5782ZM41.5512 25.9583L44.1774 25.9661L42.863 21.782L41.5512 25.9583H41.5512Z" fill="url(#paint1_linear_130_12914)"/>
<path d="M17.8159 23.4764L22.1398 23.4607V26.1719L17.8237 26.1276L17.8315 28.9221H23.2717V31.5421C22.5936 31.5316 21.5713 31.529 20.2073 31.5342C18.8434 31.5395 17.1612 31.5421 15.1636 31.5421L15.2027 17.7646H23.2717V20.3846H17.8081L17.8159 23.4764H17.8159Z" fill="url(#paint2_linear_130_12914)"/>
<path d="M3.53706 30.0917L3.47412 29.9131C3.27945 29.3622 3.07379 28.7921 2.86266 28.2C2.6515 27.608 2.43764 27.005 2.22375 26.3938C2.0099 25.7798 1.80146 25.185 1.60133 24.6067C1.40117 24.0284 1.21196 23.4775 1.03098 22.9567C0.852766 22.4332 0.690971 21.9645 0.548402 21.5506C0.408562 21.1367 0.287908 20.7886 0.191939 20.5063C0.0959693 20.2267 0.0301439 20.0349 0 19.9334L2.53088 18.9385L5.86458 28.5711C5.76241 28.7396 5.65809 28.9064 5.55156 29.0705C4.76095 30.2886 4.07423 30.3953 3.53706 30.0917Z" fill="url(#paint3_linear_130_12914)"/>
<path fill-rule="evenodd" clip-rule="evenodd" d="M2.28363 28.3204C2.28363 28.3204 3.60185 32.0757 5.55177 29.0717C7.50165 26.0676 8.73525 22.2109 8.73525 22.2109C8.73525 22.2109 9.18207 22.8821 9.80293 22.9238C9.80293 22.9238 8.16794 28.5539 4.8383 31.1245C4.8383 31.1245 6.1793 30.918 7.76632 28.6857C9.35338 26.4533 10.4374 23.0749 10.4374 23.0749C10.4374 23.0749 10.8801 23.1757 11.0035 23.0936C11.0035 23.0936 9.19915 29.4125 5.52674 31.6181C5.52674 31.6181 2.17869 33.509 2.28367 28.3204H2.28363Z" fill="#098A4E"/>
<path fill-rule="evenodd" clip-rule="evenodd" d="M9.16406 21.1021L10.0383 16.83C10.0383 16.83 11.9942 16.241 12.7838 14.744C12.7838 14.744 13.0146 14.2061 13.1236 14.2241C13.2326 14.242 12.5373 15.7318 12.5373 15.7318L11.4831 18.2083C11.3878 18.2152 11.293 18.2461 11.2078 18.3027C10.9445 18.4779 10.8731 18.8332 11.0483 19.0965C11.2235 19.3597 11.579 19.431 11.8423 19.2559C12.1056 19.0808 12.1771 18.7254 12.0018 18.4622C11.9653 18.4074 11.921 18.3609 11.8712 18.3232L13.2576 14.6583C13.2576 14.6583 13.3503 14.3704 13.4399 14.3496C13.5295 14.3288 13.3977 14.83 13.3274 14.9866C13.2572 15.1432 12.9529 16.5544 13.6935 18.3632L11.5362 21.995C11.5362 21.995 10.29 21.987 9.1641 21.1021L9.16406 21.1021Z" fill="#098A4E"/>
<path fill-rule="evenodd" clip-rule="evenodd" d="M9.37073 21.6097C9.37073 21.6097 9.01727 21.205 8.77518 21.5211C8.53306 21.8372 9.10735 22.3406 9.55503 22.5275C10.0027 22.7145 10.8938 22.8585 11.173 22.802C11.4522 22.7456 11.666 22.4159 11.2347 22.2827C10.8034 22.1496 10.0759 22.1018 9.37073 21.6096V21.6097Z" fill="#098A4E"/>
<path d="M11.7544 19.1264C11.9446 18.9999 11.9962 18.7432 11.8696 18.5531C11.743 18.363 11.4863 18.3114 11.2961 18.4379C11.1059 18.5644 11.0543 18.8211 11.1808 19.0112C11.3074 19.2014 11.5642 19.2529 11.7544 19.1264Z" fill="url(#paint4_linear_130_12914)"/>
</g>
</g>
<defs>
<linearGradient id="paint0_linear_130_12914" x1="30.9693" y1="17.1357" x2="30.9693" y2="31.888" gradientUnits="userSpaceOnUse">
<stop stop-color="#FF8331"/>
<stop offset="1" stop-color="#DC5F19"/>
</linearGradient>
<linearGradient id="paint1_linear_130_12914" x1="42.8682" y1="17.6865" x2="42.8682" y2="31.8863" gradientUnits="userSpaceOnUse">
<stop stop-color="#FF8331"/>
<stop offset="1" stop-color="#DC5F19"/>
</linearGradient>
<linearGradient id="paint2_linear_130_12914" x1="19.2176" y1="17.7646" x2="19.2176" y2="31.5421" gradientUnits="userSpaceOnUse">
<stop stop-color="#FF8331"/>
<stop offset="1" stop-color="#DC5F19"/>
</linearGradient>
<linearGradient id="paint3_linear_130_12914" x1="2.93229" y1="18.9385" x2="2.93229" y2="30.2352" gradientUnits="userSpaceOnUse">
<stop stop-color="#FF8331"/>
<stop offset="1" stop-color="#DC5F19"/>
</linearGradient>
<linearGradient id="paint4_linear_130_12914" x1="11.2961" y1="18.4379" x2="11.7541" y2="19.1266" gradientUnits="userSpaceOnUse">
<stop stop-color="#FF8331"/>
<stop offset="1" stop-color="#DC5F19"/>
</linearGradient>
<clipPath id="clip0_130_12914">
<rect width="48" height="48" fill="white" transform="translate(0.5)"/>
</clipPath>
<clipPath id="clip1_130_12914">
<rect width="48.5" height="20.2083" fill="white" transform="translate(0 14)"/>
</clipPath>
</defs>
</svg>
