<svg width="20" height="25" viewBox="0 0 20 25" fill="none" xmlns="http://www.w3.org/2000/svg">
<g clip-path="url(#clip0_130_9564)">
<path d="M8.99689 13.6643L11.9525 11.4446L8.99689 9.23093V13.6643ZM9.97887 6.52148C9.00517 6.52148 8.05335 6.81022 7.24375 7.35117C6.43415 7.89213 5.80315 8.66101 5.43054 9.56058C5.05792 10.4602 4.96043 11.45 5.15038 12.405C5.34034 13.36 5.80922 14.2372 6.49772 14.9257C7.18623 15.6142 8.06344 16.0831 9.01842 16.273C9.9734 16.463 10.9633 16.3655 11.8628 15.9929C12.7624 15.6203 13.5313 14.9893 14.0723 14.1797C14.6132 13.3701 14.9019 12.4183 14.9019 11.4446C14.9008 10.1392 14.3817 8.88771 13.4587 7.96471C12.5357 7.0417 11.2842 6.52265 9.97887 6.52148ZM9.97887 15.3883C9.19961 15.3878 8.43801 15.1563 7.7903 14.723C7.1426 14.2898 6.63786 13.6742 6.3399 12.9542C6.04193 12.2341 5.96411 11.4419 6.11626 10.6777C6.26841 9.91343 6.64371 9.21144 7.19473 8.66042C7.74574 8.10941 8.44773 7.73411 9.21199 7.58196C9.97624 7.4298 10.7684 7.50763 11.4885 7.80559C12.2085 8.10356 12.8241 8.60829 13.2573 9.256C13.6906 9.9037 13.9221 10.6653 13.9226 11.4446C13.9219 12.4903 13.5062 13.493 12.7667 14.2324C12.0273 14.9719 11.0246 15.3876 9.97887 15.3883Z" fill="url(#paint0_linear_130_9564)"/>
<path d="M15.9348 24.4697H4.06672C3.41121 24.469 2.78274 24.2083 2.31915 23.7449C1.85555 23.2815 1.59468 22.6531 1.59375 21.9976V3.20637C1.59445 2.55071 1.85522 1.9221 2.31884 1.45848C2.78246 0.994865 3.41106 0.734097 4.06672 0.733398H13.1727L18.4069 5.96768V21.9976C18.406 22.6529 18.1453 23.2812 17.6819 23.7446C17.2184 24.208 16.5902 24.4687 15.9348 24.4697ZM4.06672 1.72241C3.67322 1.72264 3.2959 1.87906 3.01766 2.15731C2.73941 2.43555 2.58299 2.81287 2.58276 3.20637V21.9976C2.58299 22.3911 2.73941 22.7684 3.01766 23.0466C3.2959 23.3249 3.67322 23.4813 4.06672 23.4815H15.9348C16.3282 23.4811 16.7053 23.3245 16.9833 23.0463C17.2614 22.7681 17.4177 22.3909 17.4179 21.9976V6.37823L12.7586 1.71889L4.06672 1.72241Z" fill="url(#paint1_linear_130_9564)" stroke="url(#paint2_linear_130_9564)" stroke-width="0.263736"/>
<path d="M17.9127 6.66761H14.9456C14.2901 6.66691 13.6616 6.40626 13.1981 5.94283C12.7345 5.4794 12.4736 4.85102 12.4727 4.19552V1.22848C12.478 1.10094 12.5325 0.980408 12.6246 0.892063C12.7168 0.803718 12.8395 0.754395 12.9672 0.754395C13.0948 0.754395 13.2175 0.803718 13.3097 0.892063C13.4018 0.980408 13.4563 1.10094 13.4617 1.22848V4.19552C13.4619 4.58902 13.6183 4.96633 13.8966 5.24458C14.1748 5.52282 14.5521 5.67924 14.9456 5.67947H17.9127C17.9793 5.67666 18.0459 5.68737 18.1084 5.71095C18.1708 5.73454 18.2279 5.77051 18.276 5.8167C18.3242 5.8629 18.3626 5.91837 18.3888 5.97976C18.415 6.04116 18.4285 6.10723 18.4285 6.17398C18.4285 6.24073 18.415 6.3068 18.3888 6.36819C18.3626 6.42959 18.3242 6.48506 18.276 6.53126C18.2279 6.57745 18.1708 6.61342 18.1084 6.63701C18.0459 6.66059 17.9793 6.6713 17.9127 6.66848V6.66761Z" fill="url(#paint3_linear_130_9564)" stroke="url(#paint4_linear_130_9564)" stroke-width="0.263736"/>
<path d="M14.2422 19.0307H4.68177C4.60779 19.047 4.5311 19.0465 4.45734 19.0292C4.38358 19.0119 4.31463 18.9783 4.25559 18.9309C4.19654 18.8834 4.14888 18.8233 4.11614 18.755C4.0834 18.6867 4.06641 18.6119 4.06641 18.5362C4.06641 18.4604 4.0834 18.3856 4.11614 18.3173C4.14888 18.249 4.19654 18.1889 4.25559 18.1414C4.31463 18.094 4.38358 18.0604 4.45734 18.0431C4.5311 18.0259 4.60779 18.0253 4.68177 18.0417H14.2422C14.3162 18.0253 14.3929 18.0259 14.4666 18.0431C14.5404 18.0604 14.6093 18.094 14.6684 18.1414C14.7274 18.1889 14.7751 18.249 14.8078 18.3173C14.8406 18.3856 14.8576 18.4604 14.8576 18.5362C14.8576 18.6119 14.8406 18.6867 14.8078 18.755C14.7751 18.8233 14.7274 18.8834 14.6684 18.9309C14.6093 18.9783 14.5404 19.0119 14.4666 19.0292C14.3929 19.0465 14.3162 19.047 14.2422 19.0307ZM14.2422 21.5028H4.68177C4.60779 21.5191 4.5311 21.5186 4.45734 21.5013C4.38358 21.484 4.31463 21.4504 4.25559 21.403C4.19654 21.3555 4.14888 21.2954 4.11614 21.2271C4.0834 21.1588 4.06641 21.084 4.06641 21.0082C4.06641 20.9325 4.0834 20.8577 4.11614 20.7894C4.14888 20.7211 4.19654 20.661 4.25559 20.6135C4.31463 20.5661 4.38358 20.5325 4.45734 20.5152C4.5311 20.4979 4.60779 20.4974 4.68177 20.5137H14.2422C14.3162 20.4974 14.3929 20.4979 14.4666 20.5152C14.5404 20.5325 14.6093 20.5661 14.6684 20.6135C14.7274 20.661 14.7751 20.7211 14.8078 20.7894C14.8406 20.8577 14.8576 20.9325 14.8576 21.0082C14.8576 21.084 14.8406 21.1588 14.8078 21.2271C14.7751 21.2954 14.7274 21.3555 14.6684 21.403C14.6093 21.4504 14.5404 21.484 14.4666 21.5013C14.3929 21.5186 14.3162 21.5191 14.2422 21.5028Z" fill="url(#paint5_linear_130_9564)"/>
<path d="M15.4395 19.0305H13.7085C13.5809 19.0251 13.4604 18.9706 13.372 18.8785C13.2837 18.7863 13.2344 18.6636 13.2344 18.536C13.2344 18.4083 13.2837 18.2856 13.372 18.1934C13.4604 18.1013 13.5809 18.0468 13.7085 18.0415H15.4395C15.5061 18.0386 15.5727 18.0494 15.6352 18.0729C15.6976 18.0965 15.7547 18.1325 15.8028 18.1787C15.851 18.2249 15.8894 18.2803 15.9156 18.3417C15.9418 18.4031 15.9553 18.4692 15.9553 18.536C15.9553 18.6027 15.9418 18.6688 15.9156 18.7302C15.8894 18.7916 15.851 18.847 15.8028 18.8932C15.7547 18.9394 15.6976 18.9754 15.6352 18.999C15.5727 19.0226 15.5061 19.0333 15.4395 19.0305ZM15.4395 21.5026H13.7085C13.5809 21.4972 13.4604 21.4427 13.372 21.3506C13.2837 21.2584 13.2344 21.1357 13.2344 21.008C13.2344 20.8804 13.2837 20.7577 13.372 20.6655C13.4604 20.5734 13.5809 20.5189 13.7085 20.5135H15.4395C15.5061 20.5107 15.5727 20.5214 15.6352 20.545C15.6976 20.5686 15.7547 20.6046 15.8028 20.6508C15.851 20.697 15.8894 20.7524 15.9156 20.8138C15.9418 20.8752 15.9553 20.9413 15.9553 21.008C15.9553 21.0748 15.9418 21.1409 15.9156 21.2023C15.8894 21.2637 15.851 21.3191 15.8028 21.3653C15.7547 21.4115 15.6976 21.4475 15.6352 21.4711C15.5727 21.4947 15.5061 21.5054 15.4395 21.5026Z" fill="url(#paint6_linear_130_9564)"/>
</g>
<defs>
<linearGradient id="paint0_linear_130_9564" x1="9.97886" y1="6.52148" x2="9.97886" y2="16.3676" gradientUnits="userSpaceOnUse">
<stop stop-color="#FF8331"/>
<stop offset="1" stop-color="#DC5F19"/>
</linearGradient>
<linearGradient id="paint1_linear_130_9564" x1="10.0003" y1="0.733398" x2="10.0003" y2="24.4697" gradientUnits="userSpaceOnUse">
<stop stop-color="#FF8331"/>
<stop offset="1" stop-color="#DC5F19"/>
</linearGradient>
<linearGradient id="paint2_linear_130_9564" x1="10.0003" y1="0.733398" x2="10.0003" y2="24.4697" gradientUnits="userSpaceOnUse">
<stop stop-color="#FF8331"/>
<stop offset="1" stop-color="#DC5F19"/>
</linearGradient>
<linearGradient id="paint3_linear_130_9564" x1="15.4506" y1="0.754395" x2="15.4506" y2="6.66892" gradientUnits="userSpaceOnUse">
<stop stop-color="#FF8331"/>
<stop offset="1" stop-color="#DC5F19"/>
</linearGradient>
<linearGradient id="paint4_linear_130_9564" x1="15.4506" y1="0.754395" x2="15.4506" y2="6.66892" gradientUnits="userSpaceOnUse">
<stop stop-color="#FF8331"/>
<stop offset="1" stop-color="#DC5F19"/>
</linearGradient>
<linearGradient id="paint5_linear_130_9564" x1="9.46199" y1="18.0298" x2="9.46199" y2="21.5146" gradientUnits="userSpaceOnUse">
<stop stop-color="#FF8331"/>
<stop offset="1" stop-color="#DC5F19"/>
</linearGradient>
<linearGradient id="paint6_linear_130_9564" x1="14.5948" y1="18.041" x2="14.5948" y2="21.503" gradientUnits="userSpaceOnUse">
<stop stop-color="#FF8331"/>
<stop offset="1" stop-color="#DC5F19"/>
</linearGradient>
<clipPath id="clip0_130_9564">
<rect width="17.0769" height="24" fill="white" transform="translate(1.46191 0.601562)"/>
</clipPath>
</defs>
</svg>
