<svg width="36" height="36" viewBox="0 0 36 36" fill="#000" xmlns="http://www.w3.org/2000/svg">
<path d="M18.1039 0.119141H18.0954C14.8524 0.118343 11.6723 1.01408 8.90649 2.70738C6.14068 4.40068 3.89681 6.82562 2.42281 9.71427C0.948811 12.6029 0.302067 15.8428 0.554036 19.076C0.806004 22.3092 1.94688 25.4098 3.8506 28.0352L1.65673 34.5743L8.42208 32.4118C10.7127 33.9208 13.3243 34.8734 16.0485 35.1936C18.7727 35.5138 21.534 35.1927 24.1121 34.256C26.6901 33.3194 29.0135 31.793 30.8968 29.7987C32.7801 27.8045 34.1711 25.3976 34.9588 22.7702C35.7466 20.1428 35.9092 17.3676 35.4337 14.6662C34.9583 11.9648 33.8579 9.41192 32.2204 7.21136C30.583 5.0108 28.4538 3.22349 26.0028 1.9921C23.5518 0.760701 20.8468 0.119318 18.1039 0.119141ZM28.3454 24.973C27.9204 26.1716 26.2353 27.1662 24.8908 27.4578C23.9714 27.654 22.7702 27.8096 18.7264 26.1337C13.5546 23.9908 10.2256 18.7347 9.964 18.394C9.71486 18.0526 7.87149 15.6116 7.87149 13.0855C7.84868 12.2847 7.99747 11.4882 8.30785 10.7496C8.61823 10.0109 9.08303 9.34726 9.67105 8.80307C10.1668 8.36805 10.8117 8.1417 11.4706 8.17139C11.6884 8.17139 11.8845 8.18251 12.0591 8.19036C12.5764 8.21324 12.836 8.24332 13.176 9.0594C13.6011 10.0828 14.6342 12.6082 14.7585 12.8678C14.8458 13.0092 14.8981 13.1694 14.9112 13.3351C14.9243 13.5007 14.8977 13.6672 14.8337 13.8205C14.6884 14.1185 14.4958 14.391 14.2635 14.6275C14.0019 14.9269 13.7567 15.1552 13.4977 15.4775C13.2597 15.7568 12.9916 16.0556 13.2904 16.5728C14.0638 17.8889 15.0259 19.0846 16.1461 20.1216C17.3493 21.2224 18.7497 22.0859 20.2736 22.6666C20.4762 22.7632 20.7034 22.7962 20.9252 22.7612C21.147 22.7261 21.3529 22.6248 21.516 22.4705C22.0063 21.8887 22.4647 21.2807 22.8892 20.6493C23.0143 20.4395 23.2133 20.2839 23.447 20.2131C23.6808 20.1422 23.9326 20.1611 24.1532 20.2661C24.6286 20.4309 27.1429 21.674 27.6595 21.9316C28.1761 22.1893 28.5174 22.3148 28.6403 22.5326C28.7753 23.3588 28.6706 24.2063 28.3389 24.9749L28.3454 24.973Z" fill="url(#paint0_linear_130_11108)"/>
<defs>
<linearGradient id="paint0_linear_130_11108" x1="18.1005" y1="0.119141" x2="18.1005" y2="35.3139" gradientUnits="userSpaceOnUse">
<stop stop-color="#FF8331"/>
<stop offset="1" stop-color="#DC5F19"/>
</linearGradient>
</defs>
</svg>
